<?xml version="1.0" encoding="utf-8" standalone="no"?>
<!DOCTYPE svg PUBLIC "-//W3C//DTD SVG 1.1//EN"
  "http://www.w3.org/Graphics/SVG/1.1/DTD/svg11.dtd">
<svg xmlns:xlink="http://www.w3.org/1999/xlink" width="1346.506562pt" height="464.145675pt" viewBox="0 0 1346.506562 464.145675" xmlns="http://www.w3.org/2000/svg" version="1.1">
 <metadata>
  <rdf:RDF xmlns:dc="http://purl.org/dc/elements/1.1/" xmlns:cc="http://creativecommons.org/ns#" xmlns:rdf="http://www.w3.org/1999/02/22-rdf-syntax-ns#">
   <cc:Work>
    <dc:type rdf:resource="http://purl.org/dc/dcmitype/StillImage"/>
    <dc:date>2024-08-22T14:21:16.007982</dc:date>
    <dc:format>image/svg+xml</dc:format>
    <dc:creator>
     <cc:Agent>
      <dc:title>Matplotlib v3.7.5, https://matplotlib.org/</dc:title>
     </cc:Agent>
    </dc:creator>
   </cc:Work>
  </rdf:RDF>
 </metadata>
 <defs>
  <style type="text/css">*{stroke-linejoin: round; stroke-linecap: butt}</style>
 </defs>
 <g id="figure_1">
  <g id="patch_1">
   <path d="M 0 464.145675 
L 1346.506562 464.145675 
L 1346.506562 0 
L 0 0 
z
" style="fill: #ffffff"/>
  </g>
  <g id="axes_1">
   <g id="patch_2">
    <path d="M 75.914375 401.9263 
L 424.814375 401.9263 
L 424.814375 49.0703 
L 75.914375 49.0703 
z
" style="fill: #ffffff"/>
   </g>
   <g id="matplotlib.axis_1">
    <g id="xtick_1">
     <g id="line2d_1">
      <defs>
       <path id="m01478a7039" d="M 0 0 
L 0 6 
" style="stroke: #262626; stroke-width: 1.25"/>
      </defs>
      <g>
       <use xlink:href="#m01478a7039" x="119.526875" y="401.9263" style="fill: #262626; stroke: #262626; stroke-width: 1.25"/>
      </g>
     </g>
     <g id="text_1">
      <!-- PNA -->
      <g style="fill: #262626" transform="translate(97.140156 425.142862) scale(0.22 -0.22)">
       <defs>
        <path id="DejaVuSans-50" d="M 1259 4147 
L 1259 2394 
L 2053 2394 
Q 2494 2394 2734 2622 
Q 2975 2850 2975 3272 
Q 2975 3691 2734 3919 
Q 2494 4147 2053 4147 
L 1259 4147 
z
M 628 4666 
L 2053 4666 
Q 2838 4666 3239 4311 
Q 3641 3956 3641 3272 
Q 3641 2581 3239 2228 
Q 2838 1875 2053 1875 
L 1259 1875 
L 1259 0 
L 628 0 
L 628 4666 
z
" transform="scale(0.015625)"/>
        <path id="DejaVuSans-4e" d="M 628 4666 
L 1478 4666 
L 3547 763 
L 3547 4666 
L 4159 4666 
L 4159 0 
L 3309 0 
L 1241 3903 
L 1241 0 
L 628 0 
L 628 4666 
z
" transform="scale(0.015625)"/>
        <path id="DejaVuSans-41" d="M 2188 4044 
L 1331 1722 
L 3047 1722 
L 2188 4044 
z
M 1831 4666 
L 2547 4666 
L 4325 0 
L 3669 0 
L 3244 1197 
L 1141 1197 
L 716 0 
L 50 0 
L 1831 4666 
z
" transform="scale(0.015625)"/>
       </defs>
       <use xlink:href="#DejaVuSans-50"/>
       <use xlink:href="#DejaVuSans-4e" x="60.302734"/>
       <use xlink:href="#DejaVuSans-41" x="135.107422"/>
      </g>
     </g>
    </g>
    <g id="xtick_2">
     <g id="line2d_2">
      <g>
       <use xlink:href="#m01478a7039" x="206.751875" y="401.9263" style="fill: #262626; stroke: #262626; stroke-width: 1.25"/>
      </g>
     </g>
     <g id="text_2">
      <!-- GAT -->
      <g style="fill: #262626" transform="translate(184.837812 425.142862) scale(0.22 -0.22)">
       <defs>
        <path id="DejaVuSans-47" d="M 3809 666 
L 3809 1919 
L 2778 1919 
L 2778 2438 
L 4434 2438 
L 4434 434 
Q 4069 175 3628 42 
Q 3188 -91 2688 -91 
Q 1594 -91 976 548 
Q 359 1188 359 2328 
Q 359 3472 976 4111 
Q 1594 4750 2688 4750 
Q 3144 4750 3555 4637 
Q 3966 4525 4313 4306 
L 4313 3634 
Q 3963 3931 3569 4081 
Q 3175 4231 2741 4231 
Q 1884 4231 1454 3753 
Q 1025 3275 1025 2328 
Q 1025 1384 1454 906 
Q 1884 428 2741 428 
Q 3075 428 3337 486 
Q 3600 544 3809 666 
z
" transform="scale(0.015625)"/>
        <path id="DejaVuSans-54" d="M -19 4666 
L 3928 4666 
L 3928 4134 
L 2272 4134 
L 2272 0 
L 1638 0 
L 1638 4134 
L -19 4134 
L -19 4666 
z
" transform="scale(0.015625)"/>
       </defs>
       <use xlink:href="#DejaVuSans-47"/>
       <use xlink:href="#DejaVuSans-41" x="77.490234"/>
       <use xlink:href="#DejaVuSans-54" x="138.148438"/>
      </g>
     </g>
    </g>
    <g id="xtick_3">
     <g id="line2d_3">
      <g>
       <use xlink:href="#m01478a7039" x="293.976875" y="401.9263" style="fill: #262626; stroke: #262626; stroke-width: 1.25"/>
      </g>
     </g>
     <g id="text_3">
      <!-- GCN -->
      <g style="fill: #262626" transform="translate(269.543125 425.142862) scale(0.22 -0.22)">
       <defs>
        <path id="DejaVuSans-43" d="M 4122 4306 
L 4122 3641 
Q 3803 3938 3442 4084 
Q 3081 4231 2675 4231 
Q 1875 4231 1450 3742 
Q 1025 3253 1025 2328 
Q 1025 1406 1450 917 
Q 1875 428 2675 428 
Q 3081 428 3442 575 
Q 3803 722 4122 1019 
L 4122 359 
Q 3791 134 3420 21 
Q 3050 -91 2638 -91 
Q 1578 -91 968 557 
Q 359 1206 359 2328 
Q 359 3453 968 4101 
Q 1578 4750 2638 4750 
Q 3056 4750 3426 4639 
Q 3797 4528 4122 4306 
z
" transform="scale(0.015625)"/>
       </defs>
       <use xlink:href="#DejaVuSans-47"/>
       <use xlink:href="#DejaVuSans-43" x="77.490234"/>
       <use xlink:href="#DejaVuSans-4e" x="147.314453"/>
      </g>
     </g>
    </g>
    <g id="xtick_4">
     <g id="line2d_4">
      <g>
       <use xlink:href="#m01478a7039" x="381.201875" y="401.9263" style="fill: #262626; stroke: #262626; stroke-width: 1.25"/>
      </g>
     </g>
     <g id="text_4">
      <!-- GIN -->
      <g style="fill: #262626" transform="translate(361.204219 425.142862) scale(0.22 -0.22)">
       <defs>
        <path id="DejaVuSans-49" d="M 628 4666 
L 1259 4666 
L 1259 0 
L 628 0 
L 628 4666 
z
" transform="scale(0.015625)"/>
       </defs>
       <use xlink:href="#DejaVuSans-47"/>
       <use xlink:href="#DejaVuSans-49" x="77.490234"/>
       <use xlink:href="#DejaVuSans-4e" x="106.982422"/>
      </g>
     </g>
    </g>
    <g id="text_5">
     <!-- Backbone -->
     <g style="fill: #262626" transform="translate(191.28125 451.954425) scale(0.24 -0.24)">
      <defs>
       <path id="DejaVuSans-42" d="M 1259 2228 
L 1259 519 
L 2272 519 
Q 2781 519 3026 730 
Q 3272 941 3272 1375 
Q 3272 1813 3026 2020 
Q 2781 2228 2272 2228 
L 1259 2228 
z
M 1259 4147 
L 1259 2741 
L 2194 2741 
Q 2656 2741 2882 2914 
Q 3109 3088 3109 3444 
Q 3109 3797 2882 3972 
Q 2656 4147 2194 4147 
L 1259 4147 
z
M 628 4666 
L 2241 4666 
Q 2963 4666 3353 4366 
Q 3744 4066 3744 3513 
Q 3744 3084 3544 2831 
Q 3344 2578 2956 2516 
Q 3422 2416 3680 2098 
Q 3938 1781 3938 1306 
Q 3938 681 3513 340 
Q 3088 0 2303 0 
L 628 0 
L 628 4666 
z
" transform="scale(0.015625)"/>
       <path id="DejaVuSans-61" d="M 2194 1759 
Q 1497 1759 1228 1600 
Q 959 1441 959 1056 
Q 959 750 1161 570 
Q 1363 391 1709 391 
Q 2188 391 2477 730 
Q 2766 1069 2766 1631 
L 2766 1759 
L 2194 1759 
z
M 3341 1997 
L 3341 0 
L 2766 0 
L 2766 531 
Q 2569 213 2275 61 
Q 1981 -91 1556 -91 
Q 1019 -91 701 211 
Q 384 513 384 1019 
Q 384 1609 779 1909 
Q 1175 2209 1959 2209 
L 2766 2209 
L 2766 2266 
Q 2766 2663 2505 2880 
Q 2244 3097 1772 3097 
Q 1472 3097 1187 3025 
Q 903 2953 641 2809 
L 641 3341 
Q 956 3463 1253 3523 
Q 1550 3584 1831 3584 
Q 2591 3584 2966 3190 
Q 3341 2797 3341 1997 
z
" transform="scale(0.015625)"/>
       <path id="DejaVuSans-63" d="M 3122 3366 
L 3122 2828 
Q 2878 2963 2633 3030 
Q 2388 3097 2138 3097 
Q 1578 3097 1268 2742 
Q 959 2388 959 1747 
Q 959 1106 1268 751 
Q 1578 397 2138 397 
Q 2388 397 2633 464 
Q 2878 531 3122 666 
L 3122 134 
Q 2881 22 2623 -34 
Q 2366 -91 2075 -91 
Q 1284 -91 818 406 
Q 353 903 353 1747 
Q 353 2603 823 3093 
Q 1294 3584 2113 3584 
Q 2378 3584 2631 3529 
Q 2884 3475 3122 3366 
z
" transform="scale(0.015625)"/>
       <path id="DejaVuSans-6b" d="M 581 4863 
L 1159 4863 
L 1159 1991 
L 2875 3500 
L 3609 3500 
L 1753 1863 
L 3688 0 
L 2938 0 
L 1159 1709 
L 1159 0 
L 581 0 
L 581 4863 
z
" transform="scale(0.015625)"/>
       <path id="DejaVuSans-62" d="M 3116 1747 
Q 3116 2381 2855 2742 
Q 2594 3103 2138 3103 
Q 1681 3103 1420 2742 
Q 1159 2381 1159 1747 
Q 1159 1113 1420 752 
Q 1681 391 2138 391 
Q 2594 391 2855 752 
Q 3116 1113 3116 1747 
z
M 1159 2969 
Q 1341 3281 1617 3432 
Q 1894 3584 2278 3584 
Q 2916 3584 3314 3078 
Q 3713 2572 3713 1747 
Q 3713 922 3314 415 
Q 2916 -91 2278 -91 
Q 1894 -91 1617 61 
Q 1341 213 1159 525 
L 1159 0 
L 581 0 
L 581 4863 
L 1159 4863 
L 1159 2969 
z
" transform="scale(0.015625)"/>
       <path id="DejaVuSans-6f" d="M 1959 3097 
Q 1497 3097 1228 2736 
Q 959 2375 959 1747 
Q 959 1119 1226 758 
Q 1494 397 1959 397 
Q 2419 397 2687 759 
Q 2956 1122 2956 1747 
Q 2956 2369 2687 2733 
Q 2419 3097 1959 3097 
z
M 1959 3584 
Q 2709 3584 3137 3096 
Q 3566 2609 3566 1747 
Q 3566 888 3137 398 
Q 2709 -91 1959 -91 
Q 1206 -91 779 398 
Q 353 888 353 1747 
Q 353 2609 779 3096 
Q 1206 3584 1959 3584 
z
" transform="scale(0.015625)"/>
       <path id="DejaVuSans-6e" d="M 3513 2113 
L 3513 0 
L 2938 0 
L 2938 2094 
Q 2938 2591 2744 2837 
Q 2550 3084 2163 3084 
Q 1697 3084 1428 2787 
Q 1159 2491 1159 1978 
L 1159 0 
L 581 0 
L 581 3500 
L 1159 3500 
L 1159 2956 
Q 1366 3272 1645 3428 
Q 1925 3584 2291 3584 
Q 2894 3584 3203 3211 
Q 3513 2838 3513 2113 
z
" transform="scale(0.015625)"/>
       <path id="DejaVuSans-65" d="M 3597 1894 
L 3597 1613 
L 953 1613 
Q 991 1019 1311 708 
Q 1631 397 2203 397 
Q 2534 397 2845 478 
Q 3156 559 3463 722 
L 3463 178 
Q 3153 47 2828 -22 
Q 2503 -91 2169 -91 
Q 1331 -91 842 396 
Q 353 884 353 1716 
Q 353 2575 817 3079 
Q 1281 3584 2069 3584 
Q 2775 3584 3186 3129 
Q 3597 2675 3597 1894 
z
M 3022 2063 
Q 3016 2534 2758 2815 
Q 2500 3097 2075 3097 
Q 1594 3097 1305 2825 
Q 1016 2553 972 2059 
L 3022 2063 
z
" transform="scale(0.015625)"/>
      </defs>
      <use xlink:href="#DejaVuSans-42"/>
      <use xlink:href="#DejaVuSans-61" x="68.603516"/>
      <use xlink:href="#DejaVuSans-63" x="129.882812"/>
      <use xlink:href="#DejaVuSans-6b" x="184.863281"/>
      <use xlink:href="#DejaVuSans-62" x="242.773438"/>
      <use xlink:href="#DejaVuSans-6f" x="306.25"/>
      <use xlink:href="#DejaVuSans-6e" x="367.431641"/>
      <use xlink:href="#DejaVuSans-65" x="430.810547"/>
     </g>
    </g>
   </g>
   <g id="matplotlib.axis_2">
    <g id="ytick_1">
     <g id="line2d_5">
      <defs>
       <path id="mf7e8b32dd3" d="M 0 0 
L -6 0 
" style="stroke: #262626; stroke-width: 1.25"/>
      </defs>
      <g>
       <use xlink:href="#mf7e8b32dd3" x="75.914375" y="401.9263" style="fill: #262626; stroke: #262626; stroke-width: 1.25"/>
      </g>
     </g>
     <g id="text_6">
      <!-- 0.2 -->
      <g style="fill: #262626" transform="translate(34.4275 410.284581) scale(0.22 -0.22)">
       <defs>
        <path id="DejaVuSans-30" d="M 2034 4250 
Q 1547 4250 1301 3770 
Q 1056 3291 1056 2328 
Q 1056 1369 1301 889 
Q 1547 409 2034 409 
Q 2525 409 2770 889 
Q 3016 1369 3016 2328 
Q 3016 3291 2770 3770 
Q 2525 4250 2034 4250 
z
M 2034 4750 
Q 2819 4750 3233 4129 
Q 3647 3509 3647 2328 
Q 3647 1150 3233 529 
Q 2819 -91 2034 -91 
Q 1250 -91 836 529 
Q 422 1150 422 2328 
Q 422 3509 836 4129 
Q 1250 4750 2034 4750 
z
" transform="scale(0.015625)"/>
        <path id="DejaVuSans-2e" d="M 684 794 
L 1344 794 
L 1344 0 
L 684 0 
L 684 794 
z
" transform="scale(0.015625)"/>
        <path id="DejaVuSans-32" d="M 1228 531 
L 3431 531 
L 3431 0 
L 469 0 
L 469 531 
Q 828 903 1448 1529 
Q 2069 2156 2228 2338 
Q 2531 2678 2651 2914 
Q 2772 3150 2772 3378 
Q 2772 3750 2511 3984 
Q 2250 4219 1831 4219 
Q 1534 4219 1204 4116 
Q 875 4013 500 3803 
L 500 4441 
Q 881 4594 1212 4672 
Q 1544 4750 1819 4750 
Q 2544 4750 2975 4387 
Q 3406 4025 3406 3419 
Q 3406 3131 3298 2873 
Q 3191 2616 2906 2266 
Q 2828 2175 2409 1742 
Q 1991 1309 1228 531 
z
" transform="scale(0.015625)"/>
       </defs>
       <use xlink:href="#DejaVuSans-30"/>
       <use xlink:href="#DejaVuSans-2e" x="63.623047"/>
       <use xlink:href="#DejaVuSans-32" x="95.410156"/>
      </g>
     </g>
    </g>
    <g id="ytick_2">
     <g id="line2d_6">
      <g>
       <use xlink:href="#mf7e8b32dd3" x="75.914375" y="337.770664" style="fill: #262626; stroke: #262626; stroke-width: 1.25"/>
      </g>
     </g>
     <g id="text_7">
      <!-- 0.3 -->
      <g style="fill: #262626" transform="translate(34.4275 346.128945) scale(0.22 -0.22)">
       <defs>
        <path id="DejaVuSans-33" d="M 2597 2516 
Q 3050 2419 3304 2112 
Q 3559 1806 3559 1356 
Q 3559 666 3084 287 
Q 2609 -91 1734 -91 
Q 1441 -91 1130 -33 
Q 819 25 488 141 
L 488 750 
Q 750 597 1062 519 
Q 1375 441 1716 441 
Q 2309 441 2620 675 
Q 2931 909 2931 1356 
Q 2931 1769 2642 2001 
Q 2353 2234 1838 2234 
L 1294 2234 
L 1294 2753 
L 1863 2753 
Q 2328 2753 2575 2939 
Q 2822 3125 2822 3475 
Q 2822 3834 2567 4026 
Q 2313 4219 1838 4219 
Q 1578 4219 1281 4162 
Q 984 4106 628 3988 
L 628 4550 
Q 988 4650 1302 4700 
Q 1616 4750 1894 4750 
Q 2613 4750 3031 4423 
Q 3450 4097 3450 3541 
Q 3450 3153 3228 2886 
Q 3006 2619 2597 2516 
z
" transform="scale(0.015625)"/>
       </defs>
       <use xlink:href="#DejaVuSans-30"/>
       <use xlink:href="#DejaVuSans-2e" x="63.623047"/>
       <use xlink:href="#DejaVuSans-33" x="95.410156"/>
      </g>
     </g>
    </g>
    <g id="ytick_3">
     <g id="line2d_7">
      <g>
       <use xlink:href="#mf7e8b32dd3" x="75.914375" y="273.615027" style="fill: #262626; stroke: #262626; stroke-width: 1.25"/>
      </g>
     </g>
     <g id="text_8">
      <!-- 0.4 -->
      <g style="fill: #262626" transform="translate(34.4275 281.973309) scale(0.22 -0.22)">
       <defs>
        <path id="DejaVuSans-34" d="M 2419 4116 
L 825 1625 
L 2419 1625 
L 2419 4116 
z
M 2253 4666 
L 3047 4666 
L 3047 1625 
L 3713 1625 
L 3713 1100 
L 3047 1100 
L 3047 0 
L 2419 0 
L 2419 1100 
L 313 1100 
L 313 1709 
L 2253 4666 
z
" transform="scale(0.015625)"/>
       </defs>
       <use xlink:href="#DejaVuSans-30"/>
       <use xlink:href="#DejaVuSans-2e" x="63.623047"/>
       <use xlink:href="#DejaVuSans-34" x="95.410156"/>
      </g>
     </g>
    </g>
    <g id="ytick_4">
     <g id="line2d_8">
      <g>
       <use xlink:href="#mf7e8b32dd3" x="75.914375" y="209.459391" style="fill: #262626; stroke: #262626; stroke-width: 1.25"/>
      </g>
     </g>
     <g id="text_9">
      <!-- 0.5 -->
      <g style="fill: #262626" transform="translate(34.4275 217.817672) scale(0.22 -0.22)">
       <defs>
        <path id="DejaVuSans-35" d="M 691 4666 
L 3169 4666 
L 3169 4134 
L 1269 4134 
L 1269 2991 
Q 1406 3038 1543 3061 
Q 1681 3084 1819 3084 
Q 2600 3084 3056 2656 
Q 3513 2228 3513 1497 
Q 3513 744 3044 326 
Q 2575 -91 1722 -91 
Q 1428 -91 1123 -41 
Q 819 9 494 109 
L 494 744 
Q 775 591 1075 516 
Q 1375 441 1709 441 
Q 2250 441 2565 725 
Q 2881 1009 2881 1497 
Q 2881 1984 2565 2268 
Q 2250 2553 1709 2553 
Q 1456 2553 1204 2497 
Q 953 2441 691 2322 
L 691 4666 
z
" transform="scale(0.015625)"/>
       </defs>
       <use xlink:href="#DejaVuSans-30"/>
       <use xlink:href="#DejaVuSans-2e" x="63.623047"/>
       <use xlink:href="#DejaVuSans-35" x="95.410156"/>
      </g>
     </g>
    </g>
    <g id="ytick_5">
     <g id="line2d_9">
      <g>
       <use xlink:href="#mf7e8b32dd3" x="75.914375" y="145.303755" style="fill: #262626; stroke: #262626; stroke-width: 1.25"/>
      </g>
     </g>
     <g id="text_10">
      <!-- 0.6 -->
      <g style="fill: #262626" transform="translate(34.4275 153.662036) scale(0.22 -0.22)">
       <defs>
        <path id="DejaVuSans-36" d="M 2113 2584 
Q 1688 2584 1439 2293 
Q 1191 2003 1191 1497 
Q 1191 994 1439 701 
Q 1688 409 2113 409 
Q 2538 409 2786 701 
Q 3034 994 3034 1497 
Q 3034 2003 2786 2293 
Q 2538 2584 2113 2584 
z
M 3366 4563 
L 3366 3988 
Q 3128 4100 2886 4159 
Q 2644 4219 2406 4219 
Q 1781 4219 1451 3797 
Q 1122 3375 1075 2522 
Q 1259 2794 1537 2939 
Q 1816 3084 2150 3084 
Q 2853 3084 3261 2657 
Q 3669 2231 3669 1497 
Q 3669 778 3244 343 
Q 2819 -91 2113 -91 
Q 1303 -91 875 529 
Q 447 1150 447 2328 
Q 447 3434 972 4092 
Q 1497 4750 2381 4750 
Q 2619 4750 2861 4703 
Q 3103 4656 3366 4563 
z
" transform="scale(0.015625)"/>
       </defs>
       <use xlink:href="#DejaVuSans-30"/>
       <use xlink:href="#DejaVuSans-2e" x="63.623047"/>
       <use xlink:href="#DejaVuSans-36" x="95.410156"/>
      </g>
     </g>
    </g>
    <g id="ytick_6">
     <g id="line2d_10">
      <g>
       <use xlink:href="#mf7e8b32dd3" x="75.914375" y="81.148118" style="fill: #262626; stroke: #262626; stroke-width: 1.25"/>
      </g>
     </g>
     <g id="text_11">
      <!-- 0.7 -->
      <g style="fill: #262626" transform="translate(34.4275 89.506399) scale(0.22 -0.22)">
       <defs>
        <path id="DejaVuSans-37" d="M 525 4666 
L 3525 4666 
L 3525 4397 
L 1831 0 
L 1172 0 
L 2766 4134 
L 525 4134 
L 525 4666 
z
" transform="scale(0.015625)"/>
       </defs>
       <use xlink:href="#DejaVuSans-30"/>
       <use xlink:href="#DejaVuSans-2e" x="63.623047"/>
       <use xlink:href="#DejaVuSans-37" x="95.410156"/>
      </g>
     </g>
    </g>
    <g id="text_12">
     <!-- Validation RMSE -->
     <g style="fill: #262626" transform="translate(25.43625 322.46205) rotate(-90) scale(0.24 -0.24)">
      <defs>
       <path id="DejaVuSans-56" d="M 1831 0 
L 50 4666 
L 709 4666 
L 2188 738 
L 3669 4666 
L 4325 4666 
L 2547 0 
L 1831 0 
z
" transform="scale(0.015625)"/>
       <path id="DejaVuSans-6c" d="M 603 4863 
L 1178 4863 
L 1178 0 
L 603 0 
L 603 4863 
z
" transform="scale(0.015625)"/>
       <path id="DejaVuSans-69" d="M 603 3500 
L 1178 3500 
L 1178 0 
L 603 0 
L 603 3500 
z
M 603 4863 
L 1178 4863 
L 1178 4134 
L 603 4134 
L 603 4863 
z
" transform="scale(0.015625)"/>
       <path id="DejaVuSans-64" d="M 2906 2969 
L 2906 4863 
L 3481 4863 
L 3481 0 
L 2906 0 
L 2906 525 
Q 2725 213 2448 61 
Q 2172 -91 1784 -91 
Q 1150 -91 751 415 
Q 353 922 353 1747 
Q 353 2572 751 3078 
Q 1150 3584 1784 3584 
Q 2172 3584 2448 3432 
Q 2725 3281 2906 2969 
z
M 947 1747 
Q 947 1113 1208 752 
Q 1469 391 1925 391 
Q 2381 391 2643 752 
Q 2906 1113 2906 1747 
Q 2906 2381 2643 2742 
Q 2381 3103 1925 3103 
Q 1469 3103 1208 2742 
Q 947 2381 947 1747 
z
" transform="scale(0.015625)"/>
       <path id="DejaVuSans-74" d="M 1172 4494 
L 1172 3500 
L 2356 3500 
L 2356 3053 
L 1172 3053 
L 1172 1153 
Q 1172 725 1289 603 
Q 1406 481 1766 481 
L 2356 481 
L 2356 0 
L 1766 0 
Q 1100 0 847 248 
Q 594 497 594 1153 
L 594 3053 
L 172 3053 
L 172 3500 
L 594 3500 
L 594 4494 
L 1172 4494 
z
" transform="scale(0.015625)"/>
       <path id="DejaVuSans-20" transform="scale(0.015625)"/>
       <path id="DejaVuSans-52" d="M 2841 2188 
Q 3044 2119 3236 1894 
Q 3428 1669 3622 1275 
L 4263 0 
L 3584 0 
L 2988 1197 
Q 2756 1666 2539 1819 
Q 2322 1972 1947 1972 
L 1259 1972 
L 1259 0 
L 628 0 
L 628 4666 
L 2053 4666 
Q 2853 4666 3247 4331 
Q 3641 3997 3641 3322 
Q 3641 2881 3436 2590 
Q 3231 2300 2841 2188 
z
M 1259 4147 
L 1259 2491 
L 2053 2491 
Q 2509 2491 2742 2702 
Q 2975 2913 2975 3322 
Q 2975 3731 2742 3939 
Q 2509 4147 2053 4147 
L 1259 4147 
z
" transform="scale(0.015625)"/>
       <path id="DejaVuSans-4d" d="M 628 4666 
L 1569 4666 
L 2759 1491 
L 3956 4666 
L 4897 4666 
L 4897 0 
L 4281 0 
L 4281 4097 
L 3078 897 
L 2444 897 
L 1241 4097 
L 1241 0 
L 628 0 
L 628 4666 
z
" transform="scale(0.015625)"/>
       <path id="DejaVuSans-53" d="M 3425 4513 
L 3425 3897 
Q 3066 4069 2747 4153 
Q 2428 4238 2131 4238 
Q 1616 4238 1336 4038 
Q 1056 3838 1056 3469 
Q 1056 3159 1242 3001 
Q 1428 2844 1947 2747 
L 2328 2669 
Q 3034 2534 3370 2195 
Q 3706 1856 3706 1288 
Q 3706 609 3251 259 
Q 2797 -91 1919 -91 
Q 1588 -91 1214 -16 
Q 841 59 441 206 
L 441 856 
Q 825 641 1194 531 
Q 1563 422 1919 422 
Q 2459 422 2753 634 
Q 3047 847 3047 1241 
Q 3047 1584 2836 1778 
Q 2625 1972 2144 2069 
L 1759 2144 
Q 1053 2284 737 2584 
Q 422 2884 422 3419 
Q 422 4038 858 4394 
Q 1294 4750 2059 4750 
Q 2388 4750 2728 4690 
Q 3069 4631 3425 4513 
z
" transform="scale(0.015625)"/>
       <path id="DejaVuSans-45" d="M 628 4666 
L 3578 4666 
L 3578 4134 
L 1259 4134 
L 1259 2753 
L 3481 2753 
L 3481 2222 
L 1259 2222 
L 1259 531 
L 3634 531 
L 3634 0 
L 628 0 
L 628 4666 
z
" transform="scale(0.015625)"/>
      </defs>
      <use xlink:href="#DejaVuSans-56"/>
      <use xlink:href="#DejaVuSans-61" x="60.658203"/>
      <use xlink:href="#DejaVuSans-6c" x="121.9375"/>
      <use xlink:href="#DejaVuSans-69" x="149.720703"/>
      <use xlink:href="#DejaVuSans-64" x="177.503906"/>
      <use xlink:href="#DejaVuSans-61" x="240.980469"/>
      <use xlink:href="#DejaVuSans-74" x="302.259766"/>
      <use xlink:href="#DejaVuSans-69" x="341.46875"/>
      <use xlink:href="#DejaVuSans-6f" x="369.251953"/>
      <use xlink:href="#DejaVuSans-6e" x="430.433594"/>
      <use xlink:href="#DejaVuSans-20" x="493.8125"/>
      <use xlink:href="#DejaVuSans-52" x="525.599609"/>
      <use xlink:href="#DejaVuSans-4d" x="595.082031"/>
      <use xlink:href="#DejaVuSans-53" x="681.361328"/>
      <use xlink:href="#DejaVuSans-45" x="744.837891"/>
     </g>
    </g>
   </g>
   <g id="patch_3">
    <path d="M 84.636875 530.237573 
L 119.526875 530.237573 
L 119.526875 88.159749 
L 84.636875 88.159749 
z
" clip-path="url(#pd56a8ee2c6)" style="fill: #ffe699; stroke: #ffffff; stroke-linejoin: miter"/>
   </g>
   <g id="patch_4">
    <path d="M 171.861875 530.237573 
L 206.751875 530.237573 
L 206.751875 107.135573 
L 171.861875 107.135573 
z
" clip-path="url(#pd56a8ee2c6)" style="fill: #ffe699; stroke: #ffffff; stroke-linejoin: miter"/>
   </g>
   <g id="patch_5">
    <path d="M 259.086875 530.237573 
L 293.976875 530.237573 
L 293.976875 87.174265 
L 259.086875 87.174265 
z
" clip-path="url(#pd56a8ee2c6)" style="fill: #ffe699; stroke: #ffffff; stroke-linejoin: miter"/>
   </g>
   <g id="patch_6">
    <path d="M 346.311875 530.237573 
L 381.201875 530.237573 
L 381.201875 87.762637 
L 346.311875 87.762637 
z
" clip-path="url(#pd56a8ee2c6)" style="fill: #ffe699; stroke: #ffffff; stroke-linejoin: miter"/>
   </g>
   <g id="patch_7">
    <path d="M 119.526875 530.237573 
L 154.416875 530.237573 
L 154.416875 123.954179 
L 119.526875 123.954179 
z
" clip-path="url(#pd56a8ee2c6)" style="fill: #00b0f0; stroke: #ffffff; stroke-linejoin: miter"/>
   </g>
   <g id="patch_8">
    <path d="M 206.751875 530.237573 
L 241.641875 530.237573 
L 241.641875 128.013955 
L 206.751875 128.013955 
z
" clip-path="url(#pd56a8ee2c6)" style="fill: #00b0f0; stroke: #ffffff; stroke-linejoin: miter"/>
   </g>
   <g id="patch_9">
    <path d="M 293.976875 530.237573 
L 328.866875 530.237573 
L 328.866875 104.376672 
L 293.976875 104.376672 
z
" clip-path="url(#pd56a8ee2c6)" style="fill: #00b0f0; stroke: #ffffff; stroke-linejoin: miter"/>
   </g>
   <g id="patch_10">
    <path d="M 381.201875 530.237573 
L 416.091875 530.237573 
L 416.091875 108.248078 
L 381.201875 108.248078 
z
" clip-path="url(#pd56a8ee2c6)" style="fill: #00b0f0; stroke: #ffffff; stroke-linejoin: miter"/>
   </g>
   <g id="line2d_11">
    <path d="M 102.081875 110.928977 
L 102.081875 68.2159 
" clip-path="url(#pd56a8ee2c6)" style="fill: none; stroke: #424242; stroke-width: 2.7; stroke-linecap: round"/>
   </g>
   <g id="line2d_12">
    <path d="M 189.306875 119.034044 
L 189.306875 94.561661 
" clip-path="url(#pd56a8ee2c6)" style="fill: none; stroke: #424242; stroke-width: 2.7; stroke-linecap: round"/>
   </g>
   <g id="line2d_13">
    <path d="M 276.531875 101.544175 
L 276.531875 71.144618 
" clip-path="url(#pd56a8ee2c6)" style="fill: none; stroke: #424242; stroke-width: 2.7; stroke-linecap: round"/>
   </g>
   <g id="line2d_14">
    <path d="M 363.756875 102.020909 
L 363.756875 74.286876 
" clip-path="url(#pd56a8ee2c6)" style="fill: none; stroke: #424242; stroke-width: 2.7; stroke-linecap: round"/>
   </g>
   <g id="line2d_15">
    <path d="M 136.971875 144.617373 
L 136.971875 104.727207 
" clip-path="url(#pd56a8ee2c6)" style="fill: none; stroke: #424242; stroke-width: 2.7; stroke-linecap: round"/>
   </g>
   <g id="line2d_16">
    <path d="M 224.196875 136.853629 
L 224.196875 118.393964 
" clip-path="url(#pd56a8ee2c6)" style="fill: none; stroke: #424242; stroke-width: 2.7; stroke-linecap: round"/>
   </g>
   <g id="line2d_17">
    <path d="M 311.421875 115.101738 
L 311.421875 92.427695 
" clip-path="url(#pd56a8ee2c6)" style="fill: none; stroke: #424242; stroke-width: 2.7; stroke-linecap: round"/>
   </g>
   <g id="line2d_18">
    <path d="M 398.646875 126.096291 
L 398.646875 87.907464 
" clip-path="url(#pd56a8ee2c6)" style="fill: none; stroke: #424242; stroke-width: 2.7; stroke-linecap: round"/>
   </g>
   <g id="line2d_19">
    <path d="M 189.306875 38.48462 
L 189.306875 31.4275 
L 224.196875 31.4275 
L 224.196875 38.48462 
" style="fill: none; stroke: #333333; stroke-width: 1.5; stroke-linecap: round"/>
   </g>
   <g id="line2d_20">
    <path d="M 102.081875 38.48462 
L 102.081875 31.4275 
L 136.971875 31.4275 
L 136.971875 38.48462 
" style="fill: none; stroke: #333333; stroke-width: 1.5; stroke-linecap: round"/>
   </g>
   <g id="line2d_21">
    <path d="M 276.531875 38.48462 
L 276.531875 31.4275 
L 311.421875 31.4275 
L 311.421875 38.48462 
" style="fill: none; stroke: #333333; stroke-width: 1.5; stroke-linecap: round"/>
   </g>
   <g id="line2d_22">
    <path d="M 363.756875 38.48462 
L 363.756875 31.4275 
L 398.646875 31.4275 
L 398.646875 38.48462 
" style="fill: none; stroke: #333333; stroke-width: 1.5; stroke-linecap: round"/>
   </g>
   <g id="patch_11">
    <path d="M 75.914375 401.9263 
L 75.914375 49.0703 
" style="fill: none; stroke: #262626; stroke-width: 1.25; stroke-linejoin: miter; stroke-linecap: square"/>
   </g>
   <g id="patch_12">
    <path d="M 75.914375 401.9263 
L 424.814375 401.9263 
" style="fill: none; stroke: #262626; stroke-width: 1.25; stroke-linejoin: miter; stroke-linecap: square"/>
   </g>
   <g id="text_13">
    <!-- **** -->
    <g style="fill: #262626" transform="translate(182.751875 25.43625) scale(0.24 -0.24)">
     <defs>
      <path id="DejaVuSans-2a" d="M 3009 3897 
L 1888 3291 
L 3009 2681 
L 2828 2375 
L 1778 3009 
L 1778 1831 
L 1422 1831 
L 1422 3009 
L 372 2375 
L 191 2681 
L 1313 3291 
L 191 3897 
L 372 4206 
L 1422 3572 
L 1422 4750 
L 1778 4750 
L 1778 3572 
L 2828 4206 
L 3009 3897 
z
" transform="scale(0.015625)"/>
     </defs>
     <use xlink:href="#DejaVuSans-2a"/>
     <use xlink:href="#DejaVuSans-2a" x="50"/>
     <use xlink:href="#DejaVuSans-2a" x="100"/>
     <use xlink:href="#DejaVuSans-2a" x="150"/>
    </g>
   </g>
   <g id="text_14">
    <!-- **** -->
    <g style="fill: #262626" transform="translate(95.526875 25.43625) scale(0.24 -0.24)">
     <use xlink:href="#DejaVuSans-2a"/>
     <use xlink:href="#DejaVuSans-2a" x="50"/>
     <use xlink:href="#DejaVuSans-2a" x="100"/>
     <use xlink:href="#DejaVuSans-2a" x="150"/>
    </g>
   </g>
   <g id="text_15">
    <!-- * -->
    <g style="fill: #262626" transform="translate(287.976875 25.43625) scale(0.24 -0.24)">
     <use xlink:href="#DejaVuSans-2a"/>
    </g>
   </g>
   <g id="text_16">
    <!-- * -->
    <g style="fill: #262626" transform="translate(375.201875 25.43625) scale(0.24 -0.24)">
     <use xlink:href="#DejaVuSans-2a"/>
    </g>
   </g>
  </g>
  <g id="axes_2">
   <g id="patch_13">
    <path d="M 613.994375 401.9263 
L 962.894375 401.9263 
L 962.894375 49.0703 
L 613.994375 49.0703 
z
" style="fill: #ffffff"/>
   </g>
   <g id="matplotlib.axis_3">
    <g id="xtick_5">
     <g id="line2d_23">
      <g>
       <use xlink:href="#m01478a7039" x="657.606875" y="401.9263" style="fill: #262626; stroke: #262626; stroke-width: 1.25"/>
      </g>
     </g>
     <g id="text_17">
      <!-- PNA -->
      <g style="fill: #262626" transform="translate(635.220156 425.142862) scale(0.22 -0.22)">
       <use xlink:href="#DejaVuSans-50"/>
       <use xlink:href="#DejaVuSans-4e" x="60.302734"/>
       <use xlink:href="#DejaVuSans-41" x="135.107422"/>
      </g>
     </g>
    </g>
    <g id="xtick_6">
     <g id="line2d_24">
      <g>
       <use xlink:href="#m01478a7039" x="744.831875" y="401.9263" style="fill: #262626; stroke: #262626; stroke-width: 1.25"/>
      </g>
     </g>
     <g id="text_18">
      <!-- GAT -->
      <g style="fill: #262626" transform="translate(722.917812 425.142862) scale(0.22 -0.22)">
       <use xlink:href="#DejaVuSans-47"/>
       <use xlink:href="#DejaVuSans-41" x="77.490234"/>
       <use xlink:href="#DejaVuSans-54" x="138.148438"/>
      </g>
     </g>
    </g>
    <g id="xtick_7">
     <g id="line2d_25">
      <g>
       <use xlink:href="#m01478a7039" x="832.056875" y="401.9263" style="fill: #262626; stroke: #262626; stroke-width: 1.25"/>
      </g>
     </g>
     <g id="text_19">
      <!-- GCN -->
      <g style="fill: #262626" transform="translate(807.623125 425.142862) scale(0.22 -0.22)">
       <use xlink:href="#DejaVuSans-47"/>
       <use xlink:href="#DejaVuSans-43" x="77.490234"/>
       <use xlink:href="#DejaVuSans-4e" x="147.314453"/>
      </g>
     </g>
    </g>
    <g id="xtick_8">
     <g id="line2d_26">
      <g>
       <use xlink:href="#m01478a7039" x="919.281875" y="401.9263" style="fill: #262626; stroke: #262626; stroke-width: 1.25"/>
      </g>
     </g>
     <g id="text_20">
      <!-- GIN -->
      <g style="fill: #262626" transform="translate(899.284219 425.142862) scale(0.22 -0.22)">
       <use xlink:href="#DejaVuSans-47"/>
       <use xlink:href="#DejaVuSans-49" x="77.490234"/>
       <use xlink:href="#DejaVuSans-4e" x="106.982422"/>
      </g>
     </g>
    </g>
    <g id="text_21">
     <!-- Backbone -->
     <g style="fill: #262626" transform="translate(729.36125 451.954425) scale(0.24 -0.24)">
      <use xlink:href="#DejaVuSans-42"/>
      <use xlink:href="#DejaVuSans-61" x="68.603516"/>
      <use xlink:href="#DejaVuSans-63" x="129.882812"/>
      <use xlink:href="#DejaVuSans-6b" x="184.863281"/>
      <use xlink:href="#DejaVuSans-62" x="242.773438"/>
      <use xlink:href="#DejaVuSans-6f" x="306.25"/>
      <use xlink:href="#DejaVuSans-6e" x="367.431641"/>
      <use xlink:href="#DejaVuSans-65" x="430.810547"/>
     </g>
    </g>
   </g>
   <g id="matplotlib.axis_4">
    <g id="ytick_7">
     <g id="line2d_27">
      <g>
       <use xlink:href="#mf7e8b32dd3" x="613.994375" y="401.9263" style="fill: #262626; stroke: #262626; stroke-width: 1.25"/>
      </g>
     </g>
     <g id="text_22">
      <!-- 0.2 -->
      <g style="fill: #262626" transform="translate(572.5075 410.284581) scale(0.22 -0.22)">
       <use xlink:href="#DejaVuSans-30"/>
       <use xlink:href="#DejaVuSans-2e" x="63.623047"/>
       <use xlink:href="#DejaVuSans-32" x="95.410156"/>
      </g>
     </g>
    </g>
    <g id="ytick_8">
     <g id="line2d_28">
      <g>
       <use xlink:href="#mf7e8b32dd3" x="613.994375" y="337.770664" style="fill: #262626; stroke: #262626; stroke-width: 1.25"/>
      </g>
     </g>
     <g id="text_23">
      <!-- 0.3 -->
      <g style="fill: #262626" transform="translate(572.5075 346.128945) scale(0.22 -0.22)">
       <use xlink:href="#DejaVuSans-30"/>
       <use xlink:href="#DejaVuSans-2e" x="63.623047"/>
       <use xlink:href="#DejaVuSans-33" x="95.410156"/>
      </g>
     </g>
    </g>
    <g id="ytick_9">
     <g id="line2d_29">
      <g>
       <use xlink:href="#mf7e8b32dd3" x="613.994375" y="273.615027" style="fill: #262626; stroke: #262626; stroke-width: 1.25"/>
      </g>
     </g>
     <g id="text_24">
      <!-- 0.4 -->
      <g style="fill: #262626" transform="translate(572.5075 281.973309) scale(0.22 -0.22)">
       <use xlink:href="#DejaVuSans-30"/>
       <use xlink:href="#DejaVuSans-2e" x="63.623047"/>
       <use xlink:href="#DejaVuSans-34" x="95.410156"/>
      </g>
     </g>
    </g>
    <g id="ytick_10">
     <g id="line2d_30">
      <g>
       <use xlink:href="#mf7e8b32dd3" x="613.994375" y="209.459391" style="fill: #262626; stroke: #262626; stroke-width: 1.25"/>
      </g>
     </g>
     <g id="text_25">
      <!-- 0.5 -->
      <g style="fill: #262626" transform="translate(572.5075 217.817672) scale(0.22 -0.22)">
       <use xlink:href="#DejaVuSans-30"/>
       <use xlink:href="#DejaVuSans-2e" x="63.623047"/>
       <use xlink:href="#DejaVuSans-35" x="95.410156"/>
      </g>
     </g>
    </g>
    <g id="ytick_11">
     <g id="line2d_31">
      <g>
       <use xlink:href="#mf7e8b32dd3" x="613.994375" y="145.303755" style="fill: #262626; stroke: #262626; stroke-width: 1.25"/>
      </g>
     </g>
     <g id="text_26">
      <!-- 0.6 -->
      <g style="fill: #262626" transform="translate(572.5075 153.662036) scale(0.22 -0.22)">
       <use xlink:href="#DejaVuSans-30"/>
       <use xlink:href="#DejaVuSans-2e" x="63.623047"/>
       <use xlink:href="#DejaVuSans-36" x="95.410156"/>
      </g>
     </g>
    </g>
    <g id="ytick_12">
     <g id="line2d_32">
      <g>
       <use xlink:href="#mf7e8b32dd3" x="613.994375" y="81.148118" style="fill: #262626; stroke: #262626; stroke-width: 1.25"/>
      </g>
     </g>
     <g id="text_27">
      <!-- 0.7 -->
      <g style="fill: #262626" transform="translate(572.5075 89.506399) scale(0.22 -0.22)">
       <use xlink:href="#DejaVuSans-30"/>
       <use xlink:href="#DejaVuSans-2e" x="63.623047"/>
       <use xlink:href="#DejaVuSans-37" x="95.410156"/>
      </g>
     </g>
    </g>
    <g id="text_28">
     <!-- Test RMSE -->
     <g style="fill: #262626" transform="translate(563.51625 286.8333) rotate(-90) scale(0.24 -0.24)">
      <defs>
       <path id="DejaVuSans-73" d="M 2834 3397 
L 2834 2853 
Q 2591 2978 2328 3040 
Q 2066 3103 1784 3103 
Q 1356 3103 1142 2972 
Q 928 2841 928 2578 
Q 928 2378 1081 2264 
Q 1234 2150 1697 2047 
L 1894 2003 
Q 2506 1872 2764 1633 
Q 3022 1394 3022 966 
Q 3022 478 2636 193 
Q 2250 -91 1575 -91 
Q 1294 -91 989 -36 
Q 684 19 347 128 
L 347 722 
Q 666 556 975 473 
Q 1284 391 1588 391 
Q 1994 391 2212 530 
Q 2431 669 2431 922 
Q 2431 1156 2273 1281 
Q 2116 1406 1581 1522 
L 1381 1569 
Q 847 1681 609 1914 
Q 372 2147 372 2553 
Q 372 3047 722 3315 
Q 1072 3584 1716 3584 
Q 2034 3584 2315 3537 
Q 2597 3491 2834 3397 
z
" transform="scale(0.015625)"/>
      </defs>
      <use xlink:href="#DejaVuSans-54"/>
      <use xlink:href="#DejaVuSans-65" x="44.083984"/>
      <use xlink:href="#DejaVuSans-73" x="105.607422"/>
      <use xlink:href="#DejaVuSans-74" x="157.707031"/>
      <use xlink:href="#DejaVuSans-20" x="196.916016"/>
      <use xlink:href="#DejaVuSans-52" x="228.703125"/>
      <use xlink:href="#DejaVuSans-4d" x="298.185547"/>
      <use xlink:href="#DejaVuSans-53" x="384.464844"/>
      <use xlink:href="#DejaVuSans-45" x="447.941406"/>
     </g>
    </g>
   </g>
   <g id="patch_14">
    <path d="M 622.716875 530.237573 
L 657.606875 530.237573 
L 657.606875 89.489108 
L 622.716875 89.489108 
z
" clip-path="url(#p4055cc4dc1)" style="fill: #ffe699; stroke: #ffffff; stroke-linejoin: miter"/>
   </g>
   <g id="patch_15">
    <path d="M 709.941875 530.237573 
L 744.831875 530.237573 
L 744.831875 86.538717 
L 709.941875 86.538717 
z
" clip-path="url(#p4055cc4dc1)" style="fill: #ffe699; stroke: #ffffff; stroke-linejoin: miter"/>
   </g>
   <g id="patch_16">
    <path d="M 797.166875 530.237573 
L 832.056875 530.237573 
L 832.056875 82.534683 
L 797.166875 82.534683 
z
" clip-path="url(#p4055cc4dc1)" style="fill: #ffe699; stroke: #ffffff; stroke-linejoin: miter"/>
   </g>
   <g id="patch_17">
    <path d="M 884.391875 530.237573 
L 919.281875 530.237573 
L 919.281875 69.882794 
L 884.391875 69.882794 
z
" clip-path="url(#p4055cc4dc1)" style="fill: #ffe699; stroke: #ffffff; stroke-linejoin: miter"/>
   </g>
   <g id="patch_18">
    <path d="M 657.606875 530.237573 
L 692.496875 530.237573 
L 692.496875 115.085879 
L 657.606875 115.085879 
z
" clip-path="url(#p4055cc4dc1)" style="fill: #00b0f0; stroke: #ffffff; stroke-linejoin: miter"/>
   </g>
   <g id="patch_19">
    <path d="M 744.831875 530.237573 
L 779.721875 530.237573 
L 779.721875 110.861688 
L 744.831875 110.861688 
z
" clip-path="url(#p4055cc4dc1)" style="fill: #00b0f0; stroke: #ffffff; stroke-linejoin: miter"/>
   </g>
   <g id="patch_20">
    <path d="M 832.056875 530.237573 
L 866.946875 530.237573 
L 866.946875 103.25167 
L 832.056875 103.25167 
z
" clip-path="url(#p4055cc4dc1)" style="fill: #00b0f0; stroke: #ffffff; stroke-linejoin: miter"/>
   </g>
   <g id="patch_21">
    <path d="M 919.281875 530.237573 
L 954.171875 530.237573 
L 954.171875 100.372833 
L 919.281875 100.372833 
z
" clip-path="url(#p4055cc4dc1)" style="fill: #00b0f0; stroke: #ffffff; stroke-linejoin: miter"/>
   </g>
   <g id="line2d_33">
    <path d="M 640.161875 105.022386 
L 640.161875 75.190869 
" clip-path="url(#p4055cc4dc1)" style="fill: none; stroke: #424242; stroke-width: 2.7; stroke-linecap: round"/>
   </g>
   <g id="line2d_34">
    <path d="M 727.386875 103.186482 
L 727.386875 69.057931 
" clip-path="url(#p4055cc4dc1)" style="fill: none; stroke: #424242; stroke-width: 2.7; stroke-linecap: round"/>
   </g>
   <g id="line2d_35">
    <path d="M 814.611875 102.17015 
L 814.611875 61.244727 
" clip-path="url(#p4055cc4dc1)" style="fill: none; stroke: #424242; stroke-width: 2.7; stroke-linecap: round"/>
   </g>
   <g id="line2d_36">
    <path d="M 901.836875 90.777785 
L 901.836875 47.41783 
" clip-path="url(#p4055cc4dc1)" style="fill: none; stroke: #424242; stroke-width: 2.7; stroke-linecap: round"/>
   </g>
   <g id="line2d_37">
    <path d="M 675.051875 127.528318 
L 675.051875 105.557695 
" clip-path="url(#p4055cc4dc1)" style="fill: none; stroke: #424242; stroke-width: 2.7; stroke-linecap: round"/>
   </g>
   <g id="line2d_38">
    <path d="M 762.276875 126.504649 
L 762.276875 96.111891 
" clip-path="url(#p4055cc4dc1)" style="fill: none; stroke: #424242; stroke-width: 2.7; stroke-linecap: round"/>
   </g>
   <g id="line2d_39">
    <path d="M 849.501875 116.508248 
L 849.501875 87.311447 
" clip-path="url(#p4055cc4dc1)" style="fill: none; stroke: #424242; stroke-width: 2.7; stroke-linecap: round"/>
   </g>
   <g id="line2d_40">
    <path d="M 936.726875 117.658255 
L 936.726875 82.395202 
" clip-path="url(#p4055cc4dc1)" style="fill: none; stroke: #424242; stroke-width: 2.7; stroke-linecap: round"/>
   </g>
   <g id="line2d_41">
    <path d="M 727.386875 38.48462 
L 727.386875 31.4275 
L 762.276875 31.4275 
L 762.276875 38.48462 
" style="fill: none; stroke: #333333; stroke-width: 1.5; stroke-linecap: round"/>
   </g>
   <g id="line2d_42">
    <path d="M 640.161875 38.48462 
L 640.161875 31.4275 
L 675.051875 31.4275 
L 675.051875 38.48462 
" style="fill: none; stroke: #333333; stroke-width: 1.5; stroke-linecap: round"/>
   </g>
   <g id="line2d_43">
    <path d="M 814.611875 38.48462 
L 814.611875 31.4275 
L 849.501875 31.4275 
L 849.501875 38.48462 
" style="fill: none; stroke: #333333; stroke-width: 1.5; stroke-linecap: round"/>
   </g>
   <g id="line2d_44">
    <path d="M 901.836875 38.48462 
L 901.836875 31.4275 
L 936.726875 31.4275 
L 936.726875 38.48462 
" style="fill: none; stroke: #333333; stroke-width: 1.5; stroke-linecap: round"/>
   </g>
   <g id="patch_22">
    <path d="M 613.994375 401.9263 
L 613.994375 49.0703 
" style="fill: none; stroke: #262626; stroke-width: 1.25; stroke-linejoin: miter; stroke-linecap: square"/>
   </g>
   <g id="patch_23">
    <path d="M 613.994375 401.9263 
L 962.894375 401.9263 
" style="fill: none; stroke: #262626; stroke-width: 1.25; stroke-linejoin: miter; stroke-linecap: square"/>
   </g>
   <g id="text_29">
    <!-- *** -->
    <g style="fill: #262626" transform="translate(726.831875 25.43625) scale(0.24 -0.24)">
     <use xlink:href="#DejaVuSans-2a"/>
     <use xlink:href="#DejaVuSans-2a" x="50"/>
     <use xlink:href="#DejaVuSans-2a" x="100"/>
    </g>
   </g>
   <g id="text_30">
    <!-- *** -->
    <g style="fill: #262626" transform="translate(639.606875 25.43625) scale(0.24 -0.24)">
     <use xlink:href="#DejaVuSans-2a"/>
     <use xlink:href="#DejaVuSans-2a" x="50"/>
     <use xlink:href="#DejaVuSans-2a" x="100"/>
    </g>
   </g>
   <g id="text_31">
    <!-- * -->
    <g style="fill: #262626" transform="translate(826.056875 25.43625) scale(0.24 -0.24)">
     <use xlink:href="#DejaVuSans-2a"/>
    </g>
   </g>
   <g id="text_32">
    <!-- *** -->
    <g style="fill: #262626" transform="translate(901.281875 25.43625) scale(0.24 -0.24)">
     <use xlink:href="#DejaVuSans-2a"/>
     <use xlink:href="#DejaVuSans-2a" x="50"/>
     <use xlink:href="#DejaVuSans-2a" x="100"/>
    </g>
   </g>
  </g>
  <g id="legend_1">
   <g id="patch_24">
    <path d="M 1045.522187 321.7863 
L 1335.306562 321.7863 
Q 1339.306562 321.7863 1339.306562 317.7863 
L 1339.306562 216.28255 
Q 1339.306562 212.28255 1335.306562 212.28255 
L 1045.522187 212.28255 
Q 1041.522187 212.28255 1041.522187 216.28255 
L 1041.522187 317.7863 
Q 1041.522187 321.7863 1045.522187 321.7863 
z
" style="fill: #ffffff; opacity: 0.8; stroke: #cccccc; stroke-linejoin: miter"/>
   </g>
   <g id="patch_25">
    <path d="M 1049.522187 248.756925 
L 1089.522187 248.756925 
L 1089.522187 234.756925 
L 1049.522187 234.756925 
z
" style="fill: #ffe699; stroke: #ffffff; stroke-linejoin: miter"/>
   </g>
   <g id="text_33">
    <!-- Without AC-awareness -->
    <g style="fill: #262626" transform="translate(1105.522187 235.479425) scale(0.2 -0.2)">
     <defs>
      <path id="DejaVuSans-57" d="M 213 4666 
L 850 4666 
L 1831 722 
L 2809 4666 
L 3519 4666 
L 4500 722 
L 5478 4666 
L 6119 4666 
L 4947 0 
L 4153 0 
L 3169 4050 
L 2175 0 
L 1381 0 
L 213 4666 
z
" transform="scale(0.015625)"/>
      <path id="DejaVuSans-68" d="M 3513 2113 
L 3513 0 
L 2938 0 
L 2938 2094 
Q 2938 2591 2744 2837 
Q 2550 3084 2163 3084 
Q 1697 3084 1428 2787 
Q 1159 2491 1159 1978 
L 1159 0 
L 581 0 
L 581 4863 
L 1159 4863 
L 1159 2956 
Q 1366 3272 1645 3428 
Q 1925 3584 2291 3584 
Q 2894 3584 3203 3211 
Q 3513 2838 3513 2113 
z
" transform="scale(0.015625)"/>
      <path id="DejaVuSans-75" d="M 544 1381 
L 544 3500 
L 1119 3500 
L 1119 1403 
Q 1119 906 1312 657 
Q 1506 409 1894 409 
Q 2359 409 2629 706 
Q 2900 1003 2900 1516 
L 2900 3500 
L 3475 3500 
L 3475 0 
L 2900 0 
L 2900 538 
Q 2691 219 2414 64 
Q 2138 -91 1772 -91 
Q 1169 -91 856 284 
Q 544 659 544 1381 
z
M 1991 3584 
L 1991 3584 
z
" transform="scale(0.015625)"/>
      <path id="DejaVuSans-2d" d="M 313 2009 
L 1997 2009 
L 1997 1497 
L 313 1497 
L 313 2009 
z
" transform="scale(0.015625)"/>
      <path id="DejaVuSans-77" d="M 269 3500 
L 844 3500 
L 1563 769 
L 2278 3500 
L 2956 3500 
L 3675 769 
L 4391 3500 
L 4966 3500 
L 4050 0 
L 3372 0 
L 2619 2869 
L 1863 0 
L 1184 0 
L 269 3500 
z
" transform="scale(0.015625)"/>
      <path id="DejaVuSans-72" d="M 2631 2963 
Q 2534 3019 2420 3045 
Q 2306 3072 2169 3072 
Q 1681 3072 1420 2755 
Q 1159 2438 1159 1844 
L 1159 0 
L 581 0 
L 581 3500 
L 1159 3500 
L 1159 2956 
Q 1341 3275 1631 3429 
Q 1922 3584 2338 3584 
Q 2397 3584 2469 3576 
Q 2541 3569 2628 3553 
L 2631 2963 
z
" transform="scale(0.015625)"/>
     </defs>
     <use xlink:href="#DejaVuSans-57"/>
     <use xlink:href="#DejaVuSans-69" x="96.626953"/>
     <use xlink:href="#DejaVuSans-74" x="124.410156"/>
     <use xlink:href="#DejaVuSans-68" x="163.619141"/>
     <use xlink:href="#DejaVuSans-6f" x="226.998047"/>
     <use xlink:href="#DejaVuSans-75" x="288.179688"/>
     <use xlink:href="#DejaVuSans-74" x="351.558594"/>
     <use xlink:href="#DejaVuSans-20" x="390.767578"/>
     <use xlink:href="#DejaVuSans-41" x="422.554688"/>
     <use xlink:href="#DejaVuSans-43" x="489.212891"/>
     <use xlink:href="#DejaVuSans-2d" x="559.037109"/>
     <use xlink:href="#DejaVuSans-61" x="595.121094"/>
     <use xlink:href="#DejaVuSans-77" x="656.400391"/>
     <use xlink:href="#DejaVuSans-61" x="738.1875"/>
     <use xlink:href="#DejaVuSans-72" x="799.466797"/>
     <use xlink:href="#DejaVuSans-65" x="838.330078"/>
     <use xlink:href="#DejaVuSans-6e" x="899.853516"/>
     <use xlink:href="#DejaVuSans-65" x="963.232422"/>
     <use xlink:href="#DejaVuSans-73" x="1024.755859"/>
     <use xlink:href="#DejaVuSans-73" x="1076.855469"/>
    </g>
    <!--  ($\mathcal{L}_{mae}$) -->
    <g style="fill: #262626" transform="translate(1105.522187 257.87505) scale(0.2 -0.2)">
     <defs>
      <path id="DejaVuSans-28" d="M 1984 4856 
Q 1566 4138 1362 3434 
Q 1159 2731 1159 2009 
Q 1159 1288 1364 580 
Q 1569 -128 1984 -844 
L 1484 -844 
Q 1016 -109 783 600 
Q 550 1309 550 2009 
Q 550 2706 781 3412 
Q 1013 4119 1484 4856 
L 1984 4856 
z
" transform="scale(0.015625)"/>
      <path id="STIXNonUnicode-Italic-e238" d="M 4070 915 
L 4179 800 
Q 3347 -45 2413 -45 
Q 2157 -45 1850 26 
Q 1395 122 1146 122 
Q 1005 122 672 61 
Q 339 0 192 0 
L 230 154 
Q 582 154 730 749 
L 1178 2566 
Q 1286 3008 1516 3353 
Q 1747 3699 2025 3894 
Q 2304 4090 2585 4189 
Q 2867 4288 3123 4288 
Q 3443 4288 3593 4083 
Q 3744 3878 3744 3584 
Q 3744 3347 3593 3200 
Q 3443 3053 3226 3053 
Q 3085 3053 2995 3149 
Q 2906 3245 2906 3379 
Q 2906 3482 2957 3552 
Q 3008 3622 3065 3644 
Q 3123 3667 3174 3705 
Q 3226 3744 3226 3789 
Q 3226 4032 2854 4032 
Q 2522 4032 2310 3785 
Q 2099 3539 1990 3132 
Q 1882 2726 1795 2284 
Q 1709 1843 1549 1363 
Q 1389 883 1158 589 
L 1158 563 
Q 1363 704 1888 704 
Q 2227 704 2460 544 
Q 2694 384 2963 384 
Q 3507 384 4070 915 
z
" transform="scale(0.015625)"/>
      <path id="DejaVuSans-Oblique-6d" d="M 5747 2113 
L 5338 0 
L 4763 0 
L 5166 2094 
Q 5191 2228 5203 2325 
Q 5216 2422 5216 2491 
Q 5216 2772 5059 2928 
Q 4903 3084 4622 3084 
Q 4203 3084 3875 2770 
Q 3547 2456 3450 1953 
L 3066 0 
L 2491 0 
L 2900 2094 
Q 2925 2209 2937 2307 
Q 2950 2406 2950 2484 
Q 2950 2769 2794 2926 
Q 2638 3084 2363 3084 
Q 1938 3084 1609 2770 
Q 1281 2456 1184 1953 
L 800 0 
L 225 0 
L 909 3500 
L 1484 3500 
L 1375 2956 
Q 1609 3263 1923 3423 
Q 2238 3584 2597 3584 
Q 2978 3584 3223 3384 
Q 3469 3184 3519 2828 
Q 3781 3197 4126 3390 
Q 4472 3584 4856 3584 
Q 5306 3584 5551 3325 
Q 5797 3066 5797 2591 
Q 5797 2488 5784 2364 
Q 5772 2241 5747 2113 
z
" transform="scale(0.015625)"/>
      <path id="DejaVuSans-Oblique-61" d="M 3438 1997 
L 3047 0 
L 2472 0 
L 2578 531 
Q 2325 219 2001 64 
Q 1678 -91 1281 -91 
Q 834 -91 548 182 
Q 263 456 263 884 
Q 263 1497 752 1853 
Q 1241 2209 2100 2209 
L 2900 2209 
L 2931 2363 
Q 2938 2388 2941 2417 
Q 2944 2447 2944 2509 
Q 2944 2788 2717 2942 
Q 2491 3097 2081 3097 
Q 1800 3097 1504 3025 
Q 1209 2953 897 2809 
L 997 3341 
Q 1322 3463 1633 3523 
Q 1944 3584 2234 3584 
Q 2853 3584 3176 3315 
Q 3500 3047 3500 2534 
Q 3500 2431 3484 2292 
Q 3469 2153 3438 1997 
z
M 2816 1759 
L 2241 1759 
Q 1534 1759 1195 1570 
Q 856 1381 856 984 
Q 856 709 1029 553 
Q 1203 397 1509 397 
Q 1978 397 2328 733 
Q 2678 1069 2791 1631 
L 2816 1759 
z
" transform="scale(0.015625)"/>
      <path id="DejaVuSans-Oblique-65" d="M 3078 2063 
Q 3088 2113 3092 2166 
Q 3097 2219 3097 2272 
Q 3097 2653 2873 2875 
Q 2650 3097 2266 3097 
Q 1838 3097 1509 2826 
Q 1181 2556 1013 2059 
L 3078 2063 
z
M 3578 1613 
L 903 1613 
Q 884 1494 878 1425 
Q 872 1356 872 1306 
Q 872 872 1139 634 
Q 1406 397 1894 397 
Q 2269 397 2603 481 
Q 2938 566 3225 728 
L 3116 159 
Q 2806 34 2476 -28 
Q 2147 -91 1806 -91 
Q 1078 -91 686 257 
Q 294 606 294 1247 
Q 294 1794 489 2264 
Q 684 2734 1063 3103 
Q 1306 3334 1642 3459 
Q 1978 3584 2356 3584 
Q 2950 3584 3301 3228 
Q 3653 2872 3653 2272 
Q 3653 2128 3634 1964 
Q 3616 1800 3578 1613 
z
" transform="scale(0.015625)"/>
      <path id="DejaVuSans-29" d="M 513 4856 
L 1013 4856 
Q 1481 4119 1714 3412 
Q 1947 2706 1947 2009 
Q 1947 1309 1714 600 
Q 1481 -109 1013 -844 
L 513 -844 
Q 928 -128 1133 580 
Q 1338 1288 1338 2009 
Q 1338 2731 1133 3434 
Q 928 4138 513 4856 
z
" transform="scale(0.015625)"/>
     </defs>
     <use xlink:href="#DejaVuSans-20" transform="translate(0 0.125)"/>
     <use xlink:href="#DejaVuSans-28" transform="translate(31.787109 0.125)"/>
     <use xlink:href="#STIXNonUnicode-Italic-e238" transform="translate(70.800781 0.125)"/>
     <use xlink:href="#DejaVuSans-Oblique-6d" transform="translate(141.0578 -16.28125) scale(0.7)"/>
     <use xlink:href="#DejaVuSans-Oblique-61" transform="translate(209.246277 -16.28125) scale(0.7)"/>
     <use xlink:href="#DejaVuSans-Oblique-65" transform="translate(252.141785 -16.28125) scale(0.7)"/>
     <use xlink:href="#DejaVuSans-29" transform="translate(297.942566 0.125)"/>
    </g>
   </g>
   <g id="patch_26">
    <path d="M 1049.522187 300.5088 
L 1089.522187 300.5088 
L 1089.522187 286.5088 
L 1049.522187 286.5088 
z
" style="fill: #00b0f0; stroke: #ffffff; stroke-linejoin: miter"/>
   </g>
   <g id="text_34">
    <!-- With AC-awareness -->
    <g style="fill: #262626" transform="translate(1105.522187 287.2313) scale(0.2 -0.2)">
     <use xlink:href="#DejaVuSans-57"/>
     <use xlink:href="#DejaVuSans-69" x="96.626953"/>
     <use xlink:href="#DejaVuSans-74" x="124.410156"/>
     <use xlink:href="#DejaVuSans-68" x="163.619141"/>
     <use xlink:href="#DejaVuSans-20" x="226.998047"/>
     <use xlink:href="#DejaVuSans-41" x="258.785156"/>
     <use xlink:href="#DejaVuSans-43" x="325.443359"/>
     <use xlink:href="#DejaVuSans-2d" x="395.267578"/>
     <use xlink:href="#DejaVuSans-61" x="431.351562"/>
     <use xlink:href="#DejaVuSans-77" x="492.630859"/>
     <use xlink:href="#DejaVuSans-61" x="574.417969"/>
     <use xlink:href="#DejaVuSans-72" x="635.697266"/>
     <use xlink:href="#DejaVuSans-65" x="674.560547"/>
     <use xlink:href="#DejaVuSans-6e" x="736.083984"/>
     <use xlink:href="#DejaVuSans-65" x="799.462891"/>
     <use xlink:href="#DejaVuSans-73" x="860.986328"/>
     <use xlink:href="#DejaVuSans-73" x="913.085938"/>
    </g>
    <!--  ($\mathcal{L}_{mae} + \mathcal{L}_{tsm}$) -->
    <g style="fill: #262626" transform="translate(1105.522187 309.626925) scale(0.2 -0.2)">
     <defs>
      <path id="DejaVuSans-2b" d="M 2944 4013 
L 2944 2272 
L 4684 2272 
L 4684 1741 
L 2944 1741 
L 2944 0 
L 2419 0 
L 2419 1741 
L 678 1741 
L 678 2272 
L 2419 2272 
L 2419 4013 
L 2944 4013 
z
" transform="scale(0.015625)"/>
      <path id="DejaVuSans-Oblique-74" d="M 2706 3500 
L 2619 3053 
L 1472 3053 
L 1100 1153 
Q 1081 1047 1072 975 
Q 1063 903 1063 863 
Q 1063 663 1183 572 
Q 1303 481 1569 481 
L 2150 481 
L 2053 0 
L 1503 0 
Q 991 0 739 200 
Q 488 400 488 806 
Q 488 878 497 964 
Q 506 1050 525 1153 
L 897 3053 
L 409 3053 
L 500 3500 
L 978 3500 
L 1172 4494 
L 1747 4494 
L 1556 3500 
L 2706 3500 
z
" transform="scale(0.015625)"/>
      <path id="DejaVuSans-Oblique-73" d="M 3200 3397 
L 3091 2853 
Q 2863 2978 2609 3040 
Q 2356 3103 2088 3103 
Q 1634 3103 1373 2948 
Q 1113 2794 1113 2528 
Q 1113 2219 1719 2053 
Q 1766 2041 1788 2034 
L 1972 1978 
Q 2547 1819 2739 1644 
Q 2931 1469 2931 1166 
Q 2931 609 2489 259 
Q 2047 -91 1331 -91 
Q 1053 -91 747 -37 
Q 441 16 72 128 
L 184 722 
Q 500 559 806 475 
Q 1113 391 1394 391 
Q 1816 391 2080 572 
Q 2344 753 2344 1031 
Q 2344 1331 1650 1516 
L 1591 1531 
L 1394 1581 
Q 956 1697 753 1886 
Q 550 2075 550 2369 
Q 550 2928 970 3256 
Q 1391 3584 2113 3584 
Q 2397 3584 2667 3537 
Q 2938 3491 3200 3397 
z
" transform="scale(0.015625)"/>
     </defs>
     <use xlink:href="#DejaVuSans-20" transform="translate(0 0.125)"/>
     <use xlink:href="#DejaVuSans-28" transform="translate(31.787109 0.125)"/>
     <use xlink:href="#STIXNonUnicode-Italic-e238" transform="translate(70.800781 0.125)"/>
     <use xlink:href="#DejaVuSans-Oblique-6d" transform="translate(141.0578 -16.28125) scale(0.7)"/>
     <use xlink:href="#DejaVuSans-Oblique-61" transform="translate(209.246277 -16.28125) scale(0.7)"/>
     <use xlink:href="#DejaVuSans-Oblique-65" transform="translate(252.141785 -16.28125) scale(0.7)"/>
     <use xlink:href="#DejaVuSans-2b" transform="translate(317.424988 0.125)"/>
     <use xlink:href="#STIXNonUnicode-Italic-e238" transform="translate(420.696472 0.125)"/>
     <use xlink:href="#DejaVuSans-Oblique-74" transform="translate(490.953491 -16.28125) scale(0.7)"/>
     <use xlink:href="#DejaVuSans-Oblique-73" transform="translate(518.39978 -16.28125) scale(0.7)"/>
     <use xlink:href="#DejaVuSans-Oblique-6d" transform="translate(554.869507 -16.28125) scale(0.7)"/>
     <use xlink:href="#DejaVuSans-29" transform="translate(625.792358 0.125)"/>
    </g>
   </g>
  </g>
 </g>
 <defs>
  <clipPath id="pd56a8ee2c6">
   <rect x="75.914375" y="49.0703" width="348.9" height="352.856"/>
  </clipPath>
  <clipPath id="p4055cc4dc1">
   <rect x="613.994375" y="49.0703" width="348.9" height="352.856"/>
  </clipPath>
 </defs>
</svg>
