<?xml version="1.0" encoding="utf-8" standalone="no"?>
<!DOCTYPE svg PUBLIC "-//W3C//DTD SVG 1.1//EN"
  "http://www.w3.org/Graphics/SVG/1.1/DTD/svg11.dtd">
<svg xmlns:xlink="http://www.w3.org/1999/xlink" width="585.314375pt" height="421.775937pt" viewBox="0 0 585.314375 421.775937" xmlns="http://www.w3.org/2000/svg" version="1.1">
 <metadata>
  <rdf:RDF xmlns:dc="http://purl.org/dc/elements/1.1/" xmlns:cc="http://creativecommons.org/ns#" xmlns:rdf="http://www.w3.org/1999/02/22-rdf-syntax-ns#">
   <cc:Work>
    <dc:type rdf:resource="http://purl.org/dc/dcmitype/StillImage"/>
    <dc:date>2024-04-23T14:30:43.757968</dc:date>
    <dc:format>image/svg+xml</dc:format>
    <dc:creator>
     <cc:Agent>
      <dc:title>Matplotlib v3.7.5, https://matplotlib.org/</dc:title>
     </cc:Agent>
    </dc:creator>
   </cc:Work>
  </rdf:RDF>
 </metadata>
 <defs>
  <style type="text/css">*{stroke-linejoin: round; stroke-linecap: butt}</style>
 </defs>
 <g id="figure_1">
  <g id="patch_1">
   <path d="M 0 421.775937 
L 585.314375 421.775937 
L 585.314375 0 
L 0 0 
z
" style="fill: #ffffff"/>
  </g>
  <g id="axes_1">
   <g id="patch_2">
    <path d="M 75.914375 359.556562 
L 578.114375 359.556562 
L 578.114375 26.916562 
L 75.914375 26.916562 
z
" style="fill: #ffffff"/>
   </g>
   <g id="matplotlib.axis_1">
    <g id="xtick_1">
     <g id="line2d_1">
      <defs>
       <path id="mac98cc9650" d="M 0 0 
L 0 6 
" style="stroke: #262626; stroke-width: 1.25"/>
      </defs>
      <g>
       <use xlink:href="#mac98cc9650" x="98.741648" y="359.556562" style="fill: #262626; stroke: #262626; stroke-width: 1.25"/>
      </g>
     </g>
     <g id="text_1">
      <!-- 0 -->
      <g style="fill: #262626" transform="translate(91.742898 382.773125) scale(0.22 -0.22)">
       <defs>
        <path id="DejaVuSans-30" d="M 2034 4250 
Q 1547 4250 1301 3770 
Q 1056 3291 1056 2328 
Q 1056 1369 1301 889 
Q 1547 409 2034 409 
Q 2525 409 2770 889 
Q 3016 1369 3016 2328 
Q 3016 3291 2770 3770 
Q 2525 4250 2034 4250 
z
M 2034 4750 
Q 2819 4750 3233 4129 
Q 3647 3509 3647 2328 
Q 3647 1150 3233 529 
Q 2819 -91 2034 -91 
Q 1250 -91 836 529 
Q 422 1150 422 2328 
Q 422 3509 836 4129 
Q 1250 4750 2034 4750 
z
" transform="scale(0.015625)"/>
       </defs>
       <use xlink:href="#DejaVuSans-30"/>
      </g>
     </g>
    </g>
    <g id="xtick_2">
     <g id="line2d_2">
      <g>
       <use xlink:href="#mac98cc9650" x="213.164067" y="359.556562" style="fill: #262626; stroke: #262626; stroke-width: 1.25"/>
      </g>
     </g>
     <g id="text_2">
      <!-- 200 -->
      <g style="fill: #262626" transform="translate(192.167817 382.773125) scale(0.22 -0.22)">
       <defs>
        <path id="DejaVuSans-32" d="M 1228 531 
L 3431 531 
L 3431 0 
L 469 0 
L 469 531 
Q 828 903 1448 1529 
Q 2069 2156 2228 2338 
Q 2531 2678 2651 2914 
Q 2772 3150 2772 3378 
Q 2772 3750 2511 3984 
Q 2250 4219 1831 4219 
Q 1534 4219 1204 4116 
Q 875 4013 500 3803 
L 500 4441 
Q 881 4594 1212 4672 
Q 1544 4750 1819 4750 
Q 2544 4750 2975 4387 
Q 3406 4025 3406 3419 
Q 3406 3131 3298 2873 
Q 3191 2616 2906 2266 
Q 2828 2175 2409 1742 
Q 1991 1309 1228 531 
z
" transform="scale(0.015625)"/>
       </defs>
       <use xlink:href="#DejaVuSans-32"/>
       <use xlink:href="#DejaVuSans-30" x="63.623047"/>
       <use xlink:href="#DejaVuSans-30" x="127.246094"/>
      </g>
     </g>
    </g>
    <g id="xtick_3">
     <g id="line2d_3">
      <g>
       <use xlink:href="#mac98cc9650" x="327.586487" y="359.556562" style="fill: #262626; stroke: #262626; stroke-width: 1.25"/>
      </g>
     </g>
     <g id="text_3">
      <!-- 400 -->
      <g style="fill: #262626" transform="translate(306.590237 382.773125) scale(0.22 -0.22)">
       <defs>
        <path id="DejaVuSans-34" d="M 2419 4116 
L 825 1625 
L 2419 1625 
L 2419 4116 
z
M 2253 4666 
L 3047 4666 
L 3047 1625 
L 3713 1625 
L 3713 1100 
L 3047 1100 
L 3047 0 
L 2419 0 
L 2419 1100 
L 313 1100 
L 313 1709 
L 2253 4666 
z
" transform="scale(0.015625)"/>
       </defs>
       <use xlink:href="#DejaVuSans-34"/>
       <use xlink:href="#DejaVuSans-30" x="63.623047"/>
       <use xlink:href="#DejaVuSans-30" x="127.246094"/>
      </g>
     </g>
    </g>
    <g id="xtick_4">
     <g id="line2d_4">
      <g>
       <use xlink:href="#mac98cc9650" x="442.008907" y="359.556562" style="fill: #262626; stroke: #262626; stroke-width: 1.25"/>
      </g>
     </g>
     <g id="text_4">
      <!-- 600 -->
      <g style="fill: #262626" transform="translate(421.012657 382.773125) scale(0.22 -0.22)">
       <defs>
        <path id="DejaVuSans-36" d="M 2113 2584 
Q 1688 2584 1439 2293 
Q 1191 2003 1191 1497 
Q 1191 994 1439 701 
Q 1688 409 2113 409 
Q 2538 409 2786 701 
Q 3034 994 3034 1497 
Q 3034 2003 2786 2293 
Q 2538 2584 2113 2584 
z
M 3366 4563 
L 3366 3988 
Q 3128 4100 2886 4159 
Q 2644 4219 2406 4219 
Q 1781 4219 1451 3797 
Q 1122 3375 1075 2522 
Q 1259 2794 1537 2939 
Q 1816 3084 2150 3084 
Q 2853 3084 3261 2657 
Q 3669 2231 3669 1497 
Q 3669 778 3244 343 
Q 2819 -91 2113 -91 
Q 1303 -91 875 529 
Q 447 1150 447 2328 
Q 447 3434 972 4092 
Q 1497 4750 2381 4750 
Q 2619 4750 2861 4703 
Q 3103 4656 3366 4563 
z
" transform="scale(0.015625)"/>
       </defs>
       <use xlink:href="#DejaVuSans-36"/>
       <use xlink:href="#DejaVuSans-30" x="63.623047"/>
       <use xlink:href="#DejaVuSans-30" x="127.246094"/>
      </g>
     </g>
    </g>
    <g id="xtick_5">
     <g id="line2d_5">
      <g>
       <use xlink:href="#mac98cc9650" x="556.431326" y="359.556562" style="fill: #262626; stroke: #262626; stroke-width: 1.25"/>
      </g>
     </g>
     <g id="text_5">
      <!-- 800 -->
      <g style="fill: #262626" transform="translate(535.435076 382.773125) scale(0.22 -0.22)">
       <defs>
        <path id="DejaVuSans-38" d="M 2034 2216 
Q 1584 2216 1326 1975 
Q 1069 1734 1069 1313 
Q 1069 891 1326 650 
Q 1584 409 2034 409 
Q 2484 409 2743 651 
Q 3003 894 3003 1313 
Q 3003 1734 2745 1975 
Q 2488 2216 2034 2216 
z
M 1403 2484 
Q 997 2584 770 2862 
Q 544 3141 544 3541 
Q 544 4100 942 4425 
Q 1341 4750 2034 4750 
Q 2731 4750 3128 4425 
Q 3525 4100 3525 3541 
Q 3525 3141 3298 2862 
Q 3072 2584 2669 2484 
Q 3125 2378 3379 2068 
Q 3634 1759 3634 1313 
Q 3634 634 3220 271 
Q 2806 -91 2034 -91 
Q 1263 -91 848 271 
Q 434 634 434 1313 
Q 434 1759 690 2068 
Q 947 2378 1403 2484 
z
M 1172 3481 
Q 1172 3119 1398 2916 
Q 1625 2713 2034 2713 
Q 2441 2713 2670 2916 
Q 2900 3119 2900 3481 
Q 2900 3844 2670 4047 
Q 2441 4250 2034 4250 
Q 1625 4250 1398 4047 
Q 1172 3844 1172 3481 
z
" transform="scale(0.015625)"/>
       </defs>
       <use xlink:href="#DejaVuSans-38"/>
       <use xlink:href="#DejaVuSans-30" x="63.623047"/>
       <use xlink:href="#DejaVuSans-30" x="127.246094"/>
      </g>
     </g>
    </g>
    <g id="text_6">
     <!-- epochs -->
     <g style="fill: #262626" transform="translate(284.215625 409.584687) scale(0.24 -0.24)">
      <defs>
       <path id="DejaVuSans-65" d="M 3597 1894 
L 3597 1613 
L 953 1613 
Q 991 1019 1311 708 
Q 1631 397 2203 397 
Q 2534 397 2845 478 
Q 3156 559 3463 722 
L 3463 178 
Q 3153 47 2828 -22 
Q 2503 -91 2169 -91 
Q 1331 -91 842 396 
Q 353 884 353 1716 
Q 353 2575 817 3079 
Q 1281 3584 2069 3584 
Q 2775 3584 3186 3129 
Q 3597 2675 3597 1894 
z
M 3022 2063 
Q 3016 2534 2758 2815 
Q 2500 3097 2075 3097 
Q 1594 3097 1305 2825 
Q 1016 2553 972 2059 
L 3022 2063 
z
" transform="scale(0.015625)"/>
       <path id="DejaVuSans-70" d="M 1159 525 
L 1159 -1331 
L 581 -1331 
L 581 3500 
L 1159 3500 
L 1159 2969 
Q 1341 3281 1617 3432 
Q 1894 3584 2278 3584 
Q 2916 3584 3314 3078 
Q 3713 2572 3713 1747 
Q 3713 922 3314 415 
Q 2916 -91 2278 -91 
Q 1894 -91 1617 61 
Q 1341 213 1159 525 
z
M 3116 1747 
Q 3116 2381 2855 2742 
Q 2594 3103 2138 3103 
Q 1681 3103 1420 2742 
Q 1159 2381 1159 1747 
Q 1159 1113 1420 752 
Q 1681 391 2138 391 
Q 2594 391 2855 752 
Q 3116 1113 3116 1747 
z
" transform="scale(0.015625)"/>
       <path id="DejaVuSans-6f" d="M 1959 3097 
Q 1497 3097 1228 2736 
Q 959 2375 959 1747 
Q 959 1119 1226 758 
Q 1494 397 1959 397 
Q 2419 397 2687 759 
Q 2956 1122 2956 1747 
Q 2956 2369 2687 2733 
Q 2419 3097 1959 3097 
z
M 1959 3584 
Q 2709 3584 3137 3096 
Q 3566 2609 3566 1747 
Q 3566 888 3137 398 
Q 2709 -91 1959 -91 
Q 1206 -91 779 398 
Q 353 888 353 1747 
Q 353 2609 779 3096 
Q 1206 3584 1959 3584 
z
" transform="scale(0.015625)"/>
       <path id="DejaVuSans-63" d="M 3122 3366 
L 3122 2828 
Q 2878 2963 2633 3030 
Q 2388 3097 2138 3097 
Q 1578 3097 1268 2742 
Q 959 2388 959 1747 
Q 959 1106 1268 751 
Q 1578 397 2138 397 
Q 2388 397 2633 464 
Q 2878 531 3122 666 
L 3122 134 
Q 2881 22 2623 -34 
Q 2366 -91 2075 -91 
Q 1284 -91 818 406 
Q 353 903 353 1747 
Q 353 2603 823 3093 
Q 1294 3584 2113 3584 
Q 2378 3584 2631 3529 
Q 2884 3475 3122 3366 
z
" transform="scale(0.015625)"/>
       <path id="DejaVuSans-68" d="M 3513 2113 
L 3513 0 
L 2938 0 
L 2938 2094 
Q 2938 2591 2744 2837 
Q 2550 3084 2163 3084 
Q 1697 3084 1428 2787 
Q 1159 2491 1159 1978 
L 1159 0 
L 581 0 
L 581 4863 
L 1159 4863 
L 1159 2956 
Q 1366 3272 1645 3428 
Q 1925 3584 2291 3584 
Q 2894 3584 3203 3211 
Q 3513 2838 3513 2113 
z
" transform="scale(0.015625)"/>
       <path id="DejaVuSans-73" d="M 2834 3397 
L 2834 2853 
Q 2591 2978 2328 3040 
Q 2066 3103 1784 3103 
Q 1356 3103 1142 2972 
Q 928 2841 928 2578 
Q 928 2378 1081 2264 
Q 1234 2150 1697 2047 
L 1894 2003 
Q 2506 1872 2764 1633 
Q 3022 1394 3022 966 
Q 3022 478 2636 193 
Q 2250 -91 1575 -91 
Q 1294 -91 989 -36 
Q 684 19 347 128 
L 347 722 
Q 666 556 975 473 
Q 1284 391 1588 391 
Q 1994 391 2212 530 
Q 2431 669 2431 922 
Q 2431 1156 2273 1281 
Q 2116 1406 1581 1522 
L 1381 1569 
Q 847 1681 609 1914 
Q 372 2147 372 2553 
Q 372 3047 722 3315 
Q 1072 3584 1716 3584 
Q 2034 3584 2315 3537 
Q 2597 3491 2834 3397 
z
" transform="scale(0.015625)"/>
      </defs>
      <use xlink:href="#DejaVuSans-65"/>
      <use xlink:href="#DejaVuSans-70" x="61.523438"/>
      <use xlink:href="#DejaVuSans-6f" x="125"/>
      <use xlink:href="#DejaVuSans-63" x="186.181641"/>
      <use xlink:href="#DejaVuSans-68" x="241.162109"/>
      <use xlink:href="#DejaVuSans-73" x="304.541016"/>
     </g>
    </g>
   </g>
   <g id="matplotlib.axis_2">
    <g id="ytick_1">
     <g id="line2d_6">
      <defs>
       <path id="m58248bedbe" d="M 0 0 
L -6 0 
" style="stroke: #262626; stroke-width: 1.25"/>
      </defs>
      <g>
       <use xlink:href="#m58248bedbe" x="75.914375" y="354.289741" style="fill: #262626; stroke: #262626; stroke-width: 1.25"/>
      </g>
     </g>
     <g id="text_7">
      <!-- 0.0 -->
      <g style="fill: #262626" transform="translate(34.4275 362.648023) scale(0.22 -0.22)">
       <defs>
        <path id="DejaVuSans-2e" d="M 684 794 
L 1344 794 
L 1344 0 
L 684 0 
L 684 794 
z
" transform="scale(0.015625)"/>
       </defs>
       <use xlink:href="#DejaVuSans-30"/>
       <use xlink:href="#DejaVuSans-2e" x="63.623047"/>
       <use xlink:href="#DejaVuSans-30" x="95.410156"/>
      </g>
     </g>
    </g>
    <g id="ytick_2">
     <g id="line2d_7">
      <g>
       <use xlink:href="#m58248bedbe" x="75.914375" y="279.497128" style="fill: #262626; stroke: #262626; stroke-width: 1.25"/>
      </g>
     </g>
     <g id="text_8">
      <!-- 0.5 -->
      <g style="fill: #262626" transform="translate(34.4275 287.855409) scale(0.22 -0.22)">
       <defs>
        <path id="DejaVuSans-35" d="M 691 4666 
L 3169 4666 
L 3169 4134 
L 1269 4134 
L 1269 2991 
Q 1406 3038 1543 3061 
Q 1681 3084 1819 3084 
Q 2600 3084 3056 2656 
Q 3513 2228 3513 1497 
Q 3513 744 3044 326 
Q 2575 -91 1722 -91 
Q 1428 -91 1123 -41 
Q 819 9 494 109 
L 494 744 
Q 775 591 1075 516 
Q 1375 441 1709 441 
Q 2250 441 2565 725 
Q 2881 1009 2881 1497 
Q 2881 1984 2565 2268 
Q 2250 2553 1709 2553 
Q 1456 2553 1204 2497 
Q 953 2441 691 2322 
L 691 4666 
z
" transform="scale(0.015625)"/>
       </defs>
       <use xlink:href="#DejaVuSans-30"/>
       <use xlink:href="#DejaVuSans-2e" x="63.623047"/>
       <use xlink:href="#DejaVuSans-35" x="95.410156"/>
      </g>
     </g>
    </g>
    <g id="ytick_3">
     <g id="line2d_8">
      <g>
       <use xlink:href="#m58248bedbe" x="75.914375" y="204.704514" style="fill: #262626; stroke: #262626; stroke-width: 1.25"/>
      </g>
     </g>
     <g id="text_9">
      <!-- 1.0 -->
      <g style="fill: #262626" transform="translate(34.4275 213.062795) scale(0.22 -0.22)">
       <defs>
        <path id="DejaVuSans-31" d="M 794 531 
L 1825 531 
L 1825 4091 
L 703 3866 
L 703 4441 
L 1819 4666 
L 2450 4666 
L 2450 531 
L 3481 531 
L 3481 0 
L 794 0 
L 794 531 
z
" transform="scale(0.015625)"/>
       </defs>
       <use xlink:href="#DejaVuSans-31"/>
       <use xlink:href="#DejaVuSans-2e" x="63.623047"/>
       <use xlink:href="#DejaVuSans-30" x="95.410156"/>
      </g>
     </g>
    </g>
    <g id="ytick_4">
     <g id="line2d_9">
      <g>
       <use xlink:href="#m58248bedbe" x="75.914375" y="129.9119" style="fill: #262626; stroke: #262626; stroke-width: 1.25"/>
      </g>
     </g>
     <g id="text_10">
      <!-- 1.5 -->
      <g style="fill: #262626" transform="translate(34.4275 138.270181) scale(0.22 -0.22)">
       <use xlink:href="#DejaVuSans-31"/>
       <use xlink:href="#DejaVuSans-2e" x="63.623047"/>
       <use xlink:href="#DejaVuSans-35" x="95.410156"/>
      </g>
     </g>
    </g>
    <g id="ytick_5">
     <g id="line2d_10">
      <g>
       <use xlink:href="#m58248bedbe" x="75.914375" y="55.119286" style="fill: #262626; stroke: #262626; stroke-width: 1.25"/>
      </g>
     </g>
     <g id="text_11">
      <!-- 2.0 -->
      <g style="fill: #262626" transform="translate(34.4275 63.477568) scale(0.22 -0.22)">
       <use xlink:href="#DejaVuSans-32"/>
       <use xlink:href="#DejaVuSans-2e" x="63.623047"/>
       <use xlink:href="#DejaVuSans-30" x="95.410156"/>
      </g>
     </g>
    </g>
    <g id="text_12">
     <!-- No. of mined ACTs -->
     <g style="fill: #262626" transform="translate(25.43625 301.776562) rotate(-90) scale(0.24 -0.24)">
      <defs>
       <path id="DejaVuSans-4e" d="M 628 4666 
L 1478 4666 
L 3547 763 
L 3547 4666 
L 4159 4666 
L 4159 0 
L 3309 0 
L 1241 3903 
L 1241 0 
L 628 0 
L 628 4666 
z
" transform="scale(0.015625)"/>
       <path id="DejaVuSans-20" transform="scale(0.015625)"/>
       <path id="DejaVuSans-66" d="M 2375 4863 
L 2375 4384 
L 1825 4384 
Q 1516 4384 1395 4259 
Q 1275 4134 1275 3809 
L 1275 3500 
L 2222 3500 
L 2222 3053 
L 1275 3053 
L 1275 0 
L 697 0 
L 697 3053 
L 147 3053 
L 147 3500 
L 697 3500 
L 697 3744 
Q 697 4328 969 4595 
Q 1241 4863 1831 4863 
L 2375 4863 
z
" transform="scale(0.015625)"/>
       <path id="DejaVuSans-6d" d="M 3328 2828 
Q 3544 3216 3844 3400 
Q 4144 3584 4550 3584 
Q 5097 3584 5394 3201 
Q 5691 2819 5691 2113 
L 5691 0 
L 5113 0 
L 5113 2094 
Q 5113 2597 4934 2840 
Q 4756 3084 4391 3084 
Q 3944 3084 3684 2787 
Q 3425 2491 3425 1978 
L 3425 0 
L 2847 0 
L 2847 2094 
Q 2847 2600 2669 2842 
Q 2491 3084 2119 3084 
Q 1678 3084 1418 2786 
Q 1159 2488 1159 1978 
L 1159 0 
L 581 0 
L 581 3500 
L 1159 3500 
L 1159 2956 
Q 1356 3278 1631 3431 
Q 1906 3584 2284 3584 
Q 2666 3584 2933 3390 
Q 3200 3197 3328 2828 
z
" transform="scale(0.015625)"/>
       <path id="DejaVuSans-69" d="M 603 3500 
L 1178 3500 
L 1178 0 
L 603 0 
L 603 3500 
z
M 603 4863 
L 1178 4863 
L 1178 4134 
L 603 4134 
L 603 4863 
z
" transform="scale(0.015625)"/>
       <path id="DejaVuSans-6e" d="M 3513 2113 
L 3513 0 
L 2938 0 
L 2938 2094 
Q 2938 2591 2744 2837 
Q 2550 3084 2163 3084 
Q 1697 3084 1428 2787 
Q 1159 2491 1159 1978 
L 1159 0 
L 581 0 
L 581 3500 
L 1159 3500 
L 1159 2956 
Q 1366 3272 1645 3428 
Q 1925 3584 2291 3584 
Q 2894 3584 3203 3211 
Q 3513 2838 3513 2113 
z
" transform="scale(0.015625)"/>
       <path id="DejaVuSans-64" d="M 2906 2969 
L 2906 4863 
L 3481 4863 
L 3481 0 
L 2906 0 
L 2906 525 
Q 2725 213 2448 61 
Q 2172 -91 1784 -91 
Q 1150 -91 751 415 
Q 353 922 353 1747 
Q 353 2572 751 3078 
Q 1150 3584 1784 3584 
Q 2172 3584 2448 3432 
Q 2725 3281 2906 2969 
z
M 947 1747 
Q 947 1113 1208 752 
Q 1469 391 1925 391 
Q 2381 391 2643 752 
Q 2906 1113 2906 1747 
Q 2906 2381 2643 2742 
Q 2381 3103 1925 3103 
Q 1469 3103 1208 2742 
Q 947 2381 947 1747 
z
" transform="scale(0.015625)"/>
       <path id="DejaVuSans-41" d="M 2188 4044 
L 1331 1722 
L 3047 1722 
L 2188 4044 
z
M 1831 4666 
L 2547 4666 
L 4325 0 
L 3669 0 
L 3244 1197 
L 1141 1197 
L 716 0 
L 50 0 
L 1831 4666 
z
" transform="scale(0.015625)"/>
       <path id="DejaVuSans-43" d="M 4122 4306 
L 4122 3641 
Q 3803 3938 3442 4084 
Q 3081 4231 2675 4231 
Q 1875 4231 1450 3742 
Q 1025 3253 1025 2328 
Q 1025 1406 1450 917 
Q 1875 428 2675 428 
Q 3081 428 3442 575 
Q 3803 722 4122 1019 
L 4122 359 
Q 3791 134 3420 21 
Q 3050 -91 2638 -91 
Q 1578 -91 968 557 
Q 359 1206 359 2328 
Q 359 3453 968 4101 
Q 1578 4750 2638 4750 
Q 3056 4750 3426 4639 
Q 3797 4528 4122 4306 
z
" transform="scale(0.015625)"/>
       <path id="DejaVuSans-54" d="M -19 4666 
L 3928 4666 
L 3928 4134 
L 2272 4134 
L 2272 0 
L 1638 0 
L 1638 4134 
L -19 4134 
L -19 4666 
z
" transform="scale(0.015625)"/>
      </defs>
      <use xlink:href="#DejaVuSans-4e"/>
      <use xlink:href="#DejaVuSans-6f" x="74.804688"/>
      <use xlink:href="#DejaVuSans-2e" x="134.236328"/>
      <use xlink:href="#DejaVuSans-20" x="166.023438"/>
      <use xlink:href="#DejaVuSans-6f" x="197.810547"/>
      <use xlink:href="#DejaVuSans-66" x="258.992188"/>
      <use xlink:href="#DejaVuSans-20" x="294.197266"/>
      <use xlink:href="#DejaVuSans-6d" x="325.984375"/>
      <use xlink:href="#DejaVuSans-69" x="423.396484"/>
      <use xlink:href="#DejaVuSans-6e" x="451.179688"/>
      <use xlink:href="#DejaVuSans-65" x="514.558594"/>
      <use xlink:href="#DejaVuSans-64" x="576.082031"/>
      <use xlink:href="#DejaVuSans-20" x="639.558594"/>
      <use xlink:href="#DejaVuSans-41" x="671.345703"/>
      <use xlink:href="#DejaVuSans-43" x="738.003906"/>
      <use xlink:href="#DejaVuSans-54" x="807.828125"/>
      <use xlink:href="#DejaVuSans-73" x="852.412109"/>
     </g>
    </g>
    <g id="text_13">
     <!-- 1e5 -->
     <g style="fill: #262626" transform="translate(75.914375 23.916562) scale(0.22 -0.22)">
      <use xlink:href="#DejaVuSans-31"/>
      <use xlink:href="#DejaVuSans-65" x="63.623047"/>
      <use xlink:href="#DejaVuSans-35" x="125.146484"/>
     </g>
    </g>
   </g>
   <g id="line2d_11">
    <path d="M 98.741648 46.055918 
L 99.31376 49.402139 
L 99.885872 51.611513 
L 100.457984 55.249426 
L 101.030096 62.00619 
L 101.602208 74.735893 
L 102.17432 83.069286 
L 103.318545 94.846131 
L 103.890657 107.369406 
L 104.462769 94.888015 
L 105.034881 103.433819 
L 105.606993 101.351593 
L 106.179105 103.200466 
L 106.751217 111.529372 
L 107.323329 110.085874 
L 107.895441 111.541338 
L 108.467553 101.700126 
L 109.039665 114.084287 
L 109.611778 103.658197 
L 110.18389 111.509926 
L 110.756002 112.319182 
L 111.328114 116.549452 
L 111.900226 101.590929 
L 112.472338 103.164566 
L 113.04445 114.434317 
L 113.616562 115.035649 
L 114.188674 114.929444 
L 114.760786 111.637073 
L 115.332899 104.654435 
L 115.905011 115.270498 
L 116.477123 111.361836 
L 117.049235 111.363332 
L 117.621347 114.296698 
L 118.193459 107.813675 
L 119.337683 113.254089 
L 119.909795 113.126942 
L 120.481907 114.20246 
L 121.05402 110.009586 
L 121.626132 113.022232 
L 122.770356 113.316915 
L 123.342468 113.617581 
L 123.91458 108.494287 
L 124.486692 117.919653 
L 125.058804 108.277389 
L 125.630916 108.299827 
L 126.203028 114.754429 
L 126.775141 110.00809 
L 127.347253 113.801571 
L 128.491477 106.518267 
L 129.063589 106.272947 
L 129.635701 110.163658 
L 130.207813 116.10668 
L 130.779925 111.542834 
L 131.352037 112.932481 
L 131.924149 102.307442 
L 132.496262 114.609331 
L 133.068374 107.483091 
L 133.640486 111.782171 
L 134.212598 119.927086 
L 134.78471 104.305901 
L 135.356822 114.09775 
L 135.928934 111.273581 
L 136.501046 114.990774 
L 137.073158 109.595235 
L 137.64527 110.337177 
L 138.217383 115.461967 
L 138.789495 112.015524 
L 139.361607 112.459792 
L 139.933719 114.069329 
L 140.505831 103.67166 
L 141.077943 115.141855 
L 141.650055 105.513054 
L 142.222167 113.337857 
L 142.794279 102.884841 
L 143.366391 112.190538 
L 143.938504 110.784437 
L 144.510616 114.797809 
L 145.082728 108.302818 
L 145.65484 115.095483 
L 146.226952 113.221181 
L 146.799064 107.773287 
L 147.371176 108.812904 
L 147.943288 109.026811 
L 148.5154 108.476337 
L 149.087512 107.47262 
L 149.659624 108.482321 
L 150.231737 103.857145 
L 150.803849 111.376795 
L 151.375961 110.36859 
L 151.948073 110.591472 
L 152.520185 109.489029 
L 153.092297 105.273717 
L 153.664409 109.59673 
L 154.236521 111.68494 
L 154.808633 107.355944 
L 155.380745 105.155545 
L 155.952858 102.350822 
L 156.52497 108.69174 
L 157.097082 108.928085 
L 157.669194 112.90406 
L 158.241306 108.935564 
L 158.813418 109.865984 
L 159.38553 114.372987 
L 159.957642 103.323126 
L 160.529754 109.483046 
L 161.101866 103.387448 
L 161.673979 113.470988 
L 162.246091 103.592379 
L 162.818203 105.213883 
L 163.390315 104.398644 
L 163.962427 110.521167 
L 164.534539 111.007319 
L 165.106651 106.546688 
L 165.678763 103.067335 
L 166.250875 105.022414 
L 166.822987 100.440619 
L 167.3951 105.444245 
L 167.967212 106.548184 
L 168.539324 112.014028 
L 169.111436 99.130252 
L 170.25566 105.834662 
L 170.827772 98.195344 
L 171.399884 105.545963 
L 171.971996 101.187049 
L 172.544108 101.368047 
L 173.116221 106.634943 
L 173.688333 106.926634 
L 174.260445 97.873736 
L 174.832557 110.084378 
L 175.404669 101.107769 
L 175.976781 107.098657 
L 176.548893 107.8406 
L 177.121005 110.135237 
L 177.693117 102.115973 
L 178.265229 107.578826 
L 178.837342 96.736888 
L 179.409454 105.240809 
L 179.981566 104.157812 
L 180.553678 104.264017 
L 181.12579 104.958093 
L 181.697902 101.541566 
L 182.270014 109.022323 
L 182.842126 99.667263 
L 183.414238 104.998481 
L 183.98635 105.635714 
L 185.130575 103.344068 
L 185.702687 105.951338 
L 186.846911 107.886971 
L 187.419023 106.225079 
L 187.991135 105.93638 
L 188.563247 104.353768 
L 189.135359 103.192987 
L 189.707471 103.48767 
L 190.279583 91.915757 
L 190.851696 110.259393 
L 191.423808 104.711277 
L 191.99592 105.477153 
L 192.568032 108.198109 
L 193.140144 108.748582 
L 193.712256 110.923551 
L 194.284368 103.840691 
L 195.428592 103.173541 
L 196.000704 101.010538 
L 196.572817 104.488395 
L 197.144929 106.673835 
L 197.717041 106.075494 
L 198.289153 104.12939 
L 198.861265 110.299781 
L 199.433377 99.050972 
L 200.005489 107.885475 
L 200.577601 103.653709 
L 201.149713 103.504124 
L 201.721825 104.006731 
L 202.293938 102.941684 
L 202.86605 95.260482 
L 203.438162 106.320814 
L 204.010274 103.33958 
L 204.582386 110.039503 
L 205.154498 94.458705 
L 205.72661 105.14657 
L 206.298722 100.666492 
L 206.870834 105.236321 
L 207.442946 102.467499 
L 208.015059 102.090544 
L 208.587171 107.41877 
L 209.159283 101.044943 
L 209.731395 106.618489 
L 210.303507 95.291895 
L 210.875619 102.138411 
L 211.447731 96.497552 
L 212.019843 101.98733 
L 212.591955 101.598408 
L 213.164067 103.810774 
L 213.73618 94.549952 
L 214.308292 102.457028 
L 214.880404 102.804065 
L 215.452516 107.421761 
L 216.024628 105.200421 
L 216.59674 97.042042 
L 217.168852 106.977493 
L 217.740964 103.931938 
L 218.313076 102.099519 
L 218.885188 98.980667 
L 219.4573 102.567721 
L 220.029413 99.278341 
L 220.601525 104.977539 
L 221.173637 95.680817 
L 221.745749 98.9328 
L 222.317861 100.063664 
L 222.889973 102.424119 
L 223.462085 98.884932 
L 224.034197 105.854108 
L 224.606309 98.636621 
L 225.178421 102.202733 
L 225.750534 104.964076 
L 226.322646 100.509428 
L 227.46687 108.545146 
L 228.038982 101.49669 
L 228.611094 101.181066 
L 229.183206 98.358392 
L 229.755318 99.034518 
L 230.32743 102.967113 
L 230.899542 98.977675 
L 231.471655 96.639658 
L 232.043767 103.188499 
L 232.615879 102.74124 
L 233.187991 101.484724 
L 233.760103 96.570849 
L 234.332215 98.193849 
L 234.904327 101.327659 
L 235.476439 101.541566 
L 236.048551 100.796632 
L 236.620663 96.627691 
L 237.192776 99.252912 
L 237.764888 97.683763 
L 238.337 97.607475 
L 238.909112 100.555799 
L 239.481224 102.358301 
L 240.053336 100.917796 
L 240.625448 95.798989 
L 241.19756 102.645505 
L 241.769672 102.154865 
L 242.341784 102.6111 
L 242.913897 102.810049 
L 243.486009 103.697089 
L 244.058121 90.747496 
L 244.630233 106.605026 
L 245.202345 101.397964 
L 245.774457 97.954512 
L 246.346569 105.729952 
L 246.918681 99.85574 
L 247.490793 97.754068 
L 248.062905 94.91494 
L 248.635018 99.604437 
L 249.20713 96.047301 
L 249.779242 100.22372 
L 250.351354 102.988055 
L 250.923466 96.789243 
L 251.495578 99.614908 
L 252.06769 105.272222 
L 252.639802 98.826594 
L 253.211914 104.036648 
L 253.784026 100.262612 
L 254.356138 102.509382 
L 254.928251 101.966388 
L 255.500363 101.059902 
L 256.072475 98.148973 
L 256.644587 103.281242 
L 257.216699 100.940233 
L 257.788811 99.531141 
L 258.360923 95.119872 
L 258.933035 100.506436 
L 259.505147 101.568491 
L 260.077259 97.206586 
L 260.649372 99.402497 
L 261.221484 102.711322 
L 261.793596 100.721839 
L 262.365708 100.410702 
L 262.93782 103.638751 
L 263.509932 101.212478 
L 264.082044 104.477924 
L 264.654156 110.990865 
L 265.226268 98.576787 
L 265.79838 100.029259 
L 266.370493 98.093626 
L 266.942605 100.835524 
L 267.514717 95.472893 
L 268.086829 99.59995 
L 268.658941 101.602896 
L 269.231053 98.014346 
L 269.803165 103.80479 
L 270.375277 93.965074 
L 270.947389 100.823557 
L 271.519501 97.544649 
L 272.091614 99.921558 
L 272.663726 100.006822 
L 273.235838 98.956733 
L 273.80795 101.665722 
L 274.380062 101.733035 
L 274.952174 98.819115 
L 275.524286 99.809369 
L 276.096398 98.561828 
L 276.66851 101.139182 
L 277.240622 100.500453 
L 277.812735 96.666583 
L 278.384847 98.219278 
L 278.956959 97.65235 
L 279.529071 95.404084 
L 280.101183 98.273129 
L 280.673295 103.192987 
L 281.245407 98.032297 
L 281.817519 97.218553 
L 282.389631 98.545374 
L 282.961743 99.303771 
L 283.533856 94.87904 
L 284.105968 92.594874 
L 284.67808 100.029259 
L 285.250192 97.211074 
L 285.822304 100.04721 
L 286.394416 97.611962 
L 286.966528 100.654526 
L 287.53864 93.603078 
L 288.110752 96.813177 
L 288.682864 102.929717 
L 289.254977 97.610466 
L 289.827089 100.678459 
L 290.399201 96.310571 
L 290.971313 97.758556 
L 291.543425 100.129481 
L 292.115537 98.804156 
L 292.687649 101.667218 
L 293.259761 100.663501 
L 293.831873 100.449594 
L 294.403985 97.033067 
L 294.976097 98.822107 
L 295.54821 97.399551 
L 296.120322 95.439985 
L 296.692434 96.896945 
L 297.264546 102.869883 
L 297.836658 98.81014 
L 298.40877 96.605253 
L 298.980882 100.397239 
L 299.552994 101.816803 
L 300.125106 91.896311 
L 300.697218 97.54764 
L 301.269331 97.526698 
L 301.841443 95.760097 
L 302.413555 98.02033 
L 302.985667 101.72406 
L 303.557779 99.98588 
L 304.129891 99.45186 
L 304.702003 99.748039 
L 305.274115 97.131793 
L 305.846227 95.066021 
L 306.418339 98.187865 
L 306.990452 89.236685 
L 307.562564 96.350959 
L 308.134676 89.574748 
L 308.706788 98.653075 
L 309.2789 93.447509 
L 309.851012 96.656112 
L 310.423124 95.514777 
L 310.995236 93.56269 
L 311.567348 96.000929 
L 312.13946 91.65847 
L 312.711573 93.314378 
L 313.283685 91.966616 
L 313.855797 97.269412 
L 314.427909 97.504261 
L 315.000021 93.061579 
L 315.572133 94.81771 
L 316.144245 90.617357 
L 316.716357 95.007683 
L 317.288469 94.883528 
L 317.860581 100.326934 
L 318.432694 88.289811 
L 319.004806 94.346517 
L 319.576918 96.316554 
L 320.14903 96.796723 
L 320.721142 93.178256 
L 321.293254 95.232061 
L 321.865366 95.055551 
L 322.437478 92.349554 
L 323.00959 96.175944 
L 323.581702 94.472168 
L 324.725927 96.285141 
L 325.298039 96.410793 
L 325.870151 95.944087 
L 326.442263 95.055551 
L 327.014375 96.032342 
L 327.586487 95.083972 
L 328.158599 94.626241 
L 328.730711 97.131793 
L 329.302823 96.784756 
L 329.874935 102.501903 
L 330.447048 96.6965 
L 331.01916 96.421264 
L 331.591272 95.857327 
L 332.163384 102.644009 
L 332.735496 94.864081 
L 333.307608 95.576107 
L 333.87972 99.279837 
L 334.451832 98.826594 
L 335.023944 97.413014 
L 335.596056 98.300054 
L 336.740281 97.10786 
L 337.312393 97.104868 
L 337.884505 98.832578 
L 338.456617 97.772018 
L 339.028729 94.167014 
L 339.600841 98.680001 
L 340.172953 99.013576 
L 340.745065 100.292529 
L 341.317177 99.528149 
L 341.88929 99.122773 
L 342.461402 98.914849 
L 343.033514 94.356988 
L 343.605626 96.965754 
L 344.177738 96.647137 
L 344.74985 98.428697 
L 345.321962 95.460926 
L 345.894074 99.039005 
L 346.466186 95.492339 
L 347.038298 98.446648 
L 347.610411 97.710688 
L 348.182523 99.725601 
L 348.754635 97.466864 
L 349.326747 99.619396 
L 349.898859 97.088414 
L 350.470971 99.689701 
L 351.043083 99.843774 
L 352.187307 99.71513 
L 352.759419 93.024183 
L 353.331532 96.382371 
L 353.903644 97.761547 
L 354.475756 99.991863 
L 355.047868 92.092267 
L 355.61998 98.120552 
L 356.192092 94.508069 
L 356.764204 97.912628 
L 357.336316 94.997212 
L 357.908428 98.678505 
L 358.48054 95.332283 
L 359.052653 98.866982 
L 359.624765 98.24022 
L 360.196877 90.958411 
L 360.768989 97.224536 
L 361.341101 100.225216 
L 361.913213 97.821381 
L 362.485325 97.640383 
L 363.057437 98.057726 
L 363.629549 95.50281 
L 364.201661 96.113118 
L 364.773773 95.664362 
L 365.345886 93.734713 
L 366.49011 97.550632 
L 367.634334 96.027855 
L 368.206446 91.914261 
L 368.778558 96.889465 
L 369.35067 97.368138 
L 369.922782 100.093581 
L 370.494894 95.28292 
L 371.067007 101.762952 
L 371.639119 97.887199 
L 372.211231 97.148248 
L 372.783343 93.953107 
L 373.355455 94.959816 
L 373.927567 96.569353 
L 375.071791 93.40413 
L 375.643903 97.251462 
L 376.216015 94.172998 
L 376.788128 92.991274 
L 377.36024 94.303137 
L 377.932352 97.858778 
L 378.504464 95.40558 
L 379.076576 96.84459 
L 379.648688 99.671751 
L 380.2208 96.171456 
L 380.792912 101.64478 
L 381.365024 96.247745 
L 381.937136 98.220774 
L 382.509249 99.765989 
L 383.081361 97.000158 
L 383.653473 97.559607 
L 384.225585 93.983024 
L 384.797697 98.965708 
L 385.369809 97.427972 
L 385.941921 96.579824 
L 386.514033 96.358438 
L 387.086145 95.040592 
L 387.658257 93.095984 
L 388.23037 92.663683 
L 388.802482 93.275486 
L 389.374594 94.639704 
L 389.946706 94.73843 
L 390.518818 96.252232 
L 391.09093 102.169824 
L 391.663042 96.881986 
L 392.235154 94.801256 
L 392.807266 95.16026 
L 393.379378 95.34425 
L 393.951491 95.719709 
L 394.523603 99.31125 
L 395.667827 92.428834 
L 396.239939 97.338221 
L 396.812051 88.427429 
L 397.384163 93.027175 
L 397.956275 93.701804 
L 398.528387 92.756426 
L 399.100499 93.618036 
L 399.672612 94.051834 
L 400.244724 93.172273 
L 400.816836 93.215652 
L 401.388948 96.763814 
L 401.96106 98.99413 
L 402.533172 96.712955 
L 403.105284 92.176035 
L 403.677396 96.027855 
L 404.82162 93.796043 
L 405.393732 91.725783 
L 405.965845 95.10641 
L 406.537957 89.492476 
L 407.110069 96.633675 
L 407.682181 94.222361 
L 408.254293 94.733942 
L 408.826405 95.508794 
L 409.398517 100.708376 
L 409.970629 97.399551 
L 410.542741 94.84314 
L 411.114853 93.09748 
L 411.686966 89.230702 
L 412.83119 96.789243 
L 413.403302 97.413014 
L 413.975414 97.631408 
L 414.547526 91.920244 
L 415.119638 98.153461 
L 415.69175 95.034609 
L 416.263862 94.005462 
L 417.408087 94.439259 
L 417.980199 96.687525 
L 418.552311 90.780405 
L 419.124423 91.61509 
L 419.696535 93.437038 
L 420.268647 94.473664 
L 420.840759 97.148248 
L 421.412871 87.969698 
L 421.984983 87.782717 
L 422.557095 91.531323 
L 423.129208 91.59714 
L 423.70132 95.637437 
L 424.273432 91.087054 
L 424.845544 98.057726 
L 425.417656 92.716038 
L 425.989768 95.486356 
L 427.133992 91.891823 
L 427.706104 92.654708 
L 428.278216 97.383097 
L 428.850329 92.476701 
L 429.422441 96.636666 
L 429.994553 92.617311 
L 430.566665 96.216332 
L 431.138777 90.796859 
L 431.710889 95.125856 
L 432.283001 95.348738 
L 432.855113 91.814039 
L 433.427225 96.964258 
L 433.999337 93.855877 
L 434.57145 95.849848 
L 435.143562 97.300825 
L 435.715674 92.873102 
L 436.287786 91.247111 
L 436.859898 92.917978 
L 437.43201 96.711459 
L 438.004122 93.824464 
L 438.576234 93.784076 
L 439.148346 91.941186 
L 439.720458 93.857373 
L 440.29257 93.787068 
L 440.864683 97.474344 
L 441.436795 97.130298 
L 442.008907 95.936608 
L 442.581019 98.340442 
L 443.153131 95.176715 
L 443.725243 97.611962 
L 444.297355 98.039776 
L 444.869467 96.650129 
L 445.441579 93.725738 
L 446.013691 95.258986 
L 446.585804 95.9755 
L 447.157916 97.773514 
L 447.730028 96.424255 
L 448.30214 94.240311 
L 448.874252 93.321858 
L 449.446364 93.312883 
L 450.018476 94.476656 
L 450.590588 94.271724 
L 451.1627 95.3622 
L 451.734812 88.572527 
L 452.306925 95.136327 
L 452.879037 91.106501 
L 453.451149 94.318095 
L 454.023261 95.849848 
L 454.595373 99.3292 
L 455.167485 96.093672 
L 455.739597 96.982208 
L 456.311709 95.057046 
L 456.883821 93.576153 
L 457.455933 91.350324 
L 458.028046 97.243982 
L 458.600158 93.885794 
L 459.17227 95.233557 
L 459.744382 91.975591 
L 460.316494 95.456439 
L 460.888606 93.700308 
L 461.460718 96.790739 
L 462.604942 93.15881 
L 463.177054 89.832034 
L 463.749167 97.707697 
L 464.321279 90.50068 
L 464.893391 98.627646 
L 465.465503 90.264336 
L 466.037615 97.682267 
L 466.609727 92.977812 
L 467.181839 91.828997 
L 467.753951 97.903653 
L 468.326063 94.982254 
L 468.898175 93.529781 
L 469.470288 93.318866 
L 470.0424 94.172998 
L 470.614512 95.804973 
L 471.186624 91.731767 
L 471.758736 95.049567 
L 472.330848 97.598499 
L 472.90296 93.468451 
L 473.475072 92.74745 
L 474.047184 91.200739 
L 474.619296 94.859594 
L 475.191408 94.587349 
L 475.763521 93.914215 
L 476.335633 87.987649 
L 476.907745 93.64197 
L 477.479857 92.345066 
L 478.051969 93.006233 
L 478.624081 90.376525 
L 479.196193 96.889465 
L 479.768305 92.111713 
L 480.340417 92.594874 
L 481.484642 92.259803 
L 482.056754 93.407121 
L 482.628866 92.989779 
L 483.200978 91.650991 
L 483.77309 99.80189 
L 484.345202 96.425751 
L 484.917314 98.46759 
L 485.489426 97.401047 
L 486.061538 94.741422 
L 486.63365 94.952337 
L 487.205763 101.196024 
L 487.777875 95.233557 
L 488.349987 96.741376 
L 488.922099 91.78113 
L 489.494211 96.822152 
L 490.066323 97.015117 
L 490.638435 96.347967 
L 491.210547 94.205906 
L 491.782659 96.597774 
L 492.354771 90.747496 
L 492.926884 94.270228 
L 493.498996 94.992725 
L 494.071108 101.053918 
L 494.64322 94.059313 
L 495.215332 91.495422 
L 495.787444 96.626195 
L 496.359556 94.751893 
L 496.931668 96.331513 
L 497.50378 93.891777 
L 498.075892 97.882711 
L 498.648005 96.343479 
L 499.220117 96.539436 
L 499.792229 99.921558 
L 500.364341 92.101242 
L 500.936453 96.756335 
L 501.508565 90.214973 
L 502.080677 93.540252 
L 502.652789 89.930761 
L 503.224901 92.539527 
L 503.797013 91.793097 
L 504.941238 94.795272 
L 505.51335 92.234373 
L 506.085462 93.405625 
L 507.229686 94.868569 
L 507.801798 93.591111 
L 508.37391 93.849894 
L 508.946022 94.367458 
L 509.518134 94.062305 
L 510.090246 96.683038 
L 510.662359 93.917207 
L 511.234471 95.095939 
L 511.806583 91.995037 
L 512.378695 91.440076 
L 512.950807 95.742147 
L 513.522919 95.38015 
L 514.095031 97.474344 
L 514.667143 97.442931 
L 515.239255 93.401138 
L 515.811367 95.935112 
L 516.38348 93.920199 
L 516.955592 91.369771 
L 517.527704 95.454943 
L 518.099816 96.736888 
L 518.671928 93.208173 
L 519.24404 94.83566 
L 519.816152 94.899982 
L 520.388264 96.37938 
L 521.532488 97.54764 
L 522.104601 99.086872 
L 522.676713 93.980033 
L 523.248825 94.415326 
L 523.820937 94.353996 
L 524.393049 93.236594 
L 524.965161 93.700308 
L 525.537273 92.569444 
L 526.109385 94.923916 
L 526.681497 96.639658 
L 527.253609 93.13338 
L 527.825722 90.693645 
L 528.397834 91.923236 
L 528.969946 91.247111 
L 529.542058 91.989053 
L 530.11417 91.461018 
L 530.686282 92.626286 
L 531.258394 91.869385 
L 531.830506 93.911224 
L 532.402618 91.441571 
L 532.97473 95.360704 
L 533.546843 96.656112 
L 534.118955 99.212524 
L 534.691067 92.612824 
L 535.263179 93.472939 
L 535.835291 91.030212 
L 536.407403 94.639704 
L 536.979515 95.465414 
L 537.551627 96.630683 
L 538.123739 92.28224 
L 538.695851 97.190132 
L 539.267964 99.019559 
L 540.412188 89.947215 
L 540.9843 96.047301 
L 542.128524 93.770613 
L 542.700636 93.90524 
L 543.272748 94.324079 
L 543.84486 96.026359 
L 544.416972 96.074226 
L 544.989085 92.7295 
L 545.561197 97.088414 
L 546.133309 97.085422 
L 546.705421 94.663637 
L 547.849645 97.408526 
L 548.421757 93.730225 
L 548.993869 97.676284 
L 549.565981 93.858869 
L 550.138093 95.14231 
L 550.710205 88.445379 
L 551.282318 93.513327 
L 551.85443 92.22091 
L 552.426542 96.388355 
L 552.998654 95.595553 
L 553.570766 95.63295 
L 554.142878 92.976316 
L 554.71499 93.432551 
L 555.287102 93.076538 
L 555.287102 93.076538 
" clip-path="url(#p695219f4d5)" style="fill: none; stroke: #ffe699; stroke-width: 2.5; stroke-linecap: round"/>
   </g>
   <g id="line2d_12">
    <path d="M 98.741648 42.036563 
L 99.31376 47.33188 
L 99.885872 54.386319 
L 100.457984 73.6155 
L 101.030096 76.894408 
L 101.602208 79.316193 
L 102.17432 108.593014 
L 102.746432 119.843319 
L 103.318545 101.290263 
L 103.890657 124.339851 
L 104.462769 120.884432 
L 105.034881 132.10482 
L 105.606993 134.451812 
L 106.179105 143.44338 
L 106.751217 142.284094 
L 107.323329 145.431368 
L 107.895441 147.71703 
L 108.467553 164.153455 
L 109.039665 161.489342 
L 110.18389 173.330508 
L 110.756002 162.563364 
L 111.328114 168.817522 
L 111.900226 162.590289 
L 112.472338 165.727091 
L 113.04445 174.024584 
L 114.188674 183.307843 
L 114.760786 179.708822 
L 115.332899 197.151956 
L 115.905011 183.479866 
L 116.477123 196.822868 
L 117.049235 193.58734 
L 118.193459 206.007401 
L 118.765571 213.604835 
L 119.337683 207.473337 
L 119.909795 215.061795 
L 120.481907 216.612994 
L 121.05402 206.508512 
L 121.626132 216.331774 
L 122.198244 213.298185 
L 122.770356 207.642368 
L 123.342468 221.893352 
L 123.91458 219.793176 
L 124.486692 225.905228 
L 125.058804 217.681032 
L 125.630916 223.344329 
L 126.203028 214.963069 
L 126.775141 228.312055 
L 127.347253 229.957492 
L 127.919365 222.165598 
L 128.491477 227.911166 
L 129.063589 225.719743 
L 129.635701 227.3218 
L 130.207813 223.894803 
L 130.779925 225.390655 
L 131.352037 222.461776 
L 131.924149 223.534302 
L 132.496262 239.113604 
L 133.068374 242.159159 
L 133.640486 248.353483 
L 134.212598 242.112788 
L 134.78471 240.569068 
L 135.356822 237.194425 
L 135.928934 243.943711 
L 136.501046 248.431268 
L 137.073158 245.297457 
L 137.64527 260.661356 
L 138.217383 253.757998 
L 138.789495 258.63298 
L 139.361607 259.24628 
L 139.933719 260.603018 
L 140.505831 260.251492 
L 141.077943 263.917826 
L 141.650055 266.55651 
L 142.222167 264.73157 
L 142.794279 270.429271 
L 143.366391 268.907989 
L 143.938504 272.38435 
L 144.510616 268.682116 
L 145.082728 270.746392 
L 146.226952 276.27207 
L 146.799064 269.130871 
L 147.371176 265.05617 
L 147.943288 268.19746 
L 148.5154 270.640186 
L 149.087512 271.850331 
L 149.659624 278.315404 
L 150.231737 274.809127 
L 150.803849 279.556962 
L 151.375961 278.369255 
L 151.948073 283.233767 
L 152.520185 275.141206 
L 153.092297 282.701243 
L 153.664409 281.859078 
L 154.236521 289.757178 
L 154.808633 283.31903 
L 155.380745 279.069314 
L 155.952858 287.058661 
L 156.52497 281.915921 
L 157.097082 287.600159 
L 157.669194 284.755048 
L 158.241306 288.54853 
L 158.813418 289.845434 
L 159.38553 287.440103 
L 159.957642 289.627039 
L 160.529754 285.254663 
L 161.101866 284.493274 
L 161.673979 288.235897 
L 162.246091 285.289068 
L 162.818203 290.585881 
L 163.390315 289.951639 
L 163.962427 286.933009 
L 164.534539 291.912702 
L 165.106651 289.09302 
L 165.678763 292.325557 
L 166.250875 294.813159 
L 167.3951 294.856539 
L 167.967212 292.264227 
L 168.539324 297.264861 
L 169.111436 294.410775 
L 169.683548 299.426368 
L 170.25566 297.935003 
L 170.827772 299.578944 
L 171.399884 297.976887 
L 171.971996 297.703146 
L 172.544108 297.251398 
L 173.116221 297.395 
L 173.688333 295.510226 
L 174.260445 298.108522 
L 174.832557 299.804818 
L 175.404669 301.945383 
L 175.976781 303.548936 
L 176.548893 307.563804 
L 177.121005 305.255704 
L 177.693117 308.292284 
L 178.265229 308.913063 
L 178.837342 305.877978 
L 179.409454 298.853456 
L 179.981566 297.134722 
L 181.12579 307.729844 
L 181.697902 300.346317 
L 182.270014 298.623095 
L 182.842126 297.743534 
L 183.414238 303.919908 
L 183.98635 300.250582 
L 184.558462 290.940398 
L 185.130575 296.054717 
L 185.702687 295.776488 
L 186.274799 302.603558 
L 186.846911 303.055305 
L 187.419023 304.536199 
L 187.991135 306.962471 
L 188.563247 310.551021 
L 189.707471 308.693172 
L 190.279583 307.079148 
L 190.851696 311.497895 
L 191.423808 311.834462 
L 191.99592 311.043156 
L 193.140144 307.146461 
L 193.712256 306.018589 
L 194.284368 310.5226 
L 194.85648 310.651243 
L 195.428592 316.239747 
L 196.000704 313.889763 
L 196.572817 315.44545 
L 197.144929 314.016911 
L 197.717041 310.293734 
L 198.289153 311.436565 
L 198.861265 313.340785 
L 199.433377 316.939806 
L 200.005489 313.659402 
L 200.577601 314.923397 
L 201.149713 312.492637 
L 201.721825 313.107432 
L 202.293938 314.760349 
L 202.86605 313.502337 
L 203.438162 317.002632 
L 204.010274 316.4372 
L 204.582386 314.24428 
L 205.154498 314.817192 
L 205.72661 317.176151 
L 206.298722 315.94656 
L 206.870834 320.870906 
L 207.442946 316.489554 
L 208.015059 314.094695 
L 208.587171 313.789541 
L 209.159283 315.852321 
L 209.731395 313.391644 
L 210.303507 318.703416 
L 210.875619 318.882918 
L 211.447731 318.496988 
L 212.019843 318.715383 
L 212.591955 320.680933 
L 213.164067 324.828931 
L 213.73618 321.16858 
L 214.308292 322.164818 
L 214.880404 318.25466 
L 215.452516 320.803592 
L 216.024628 319.475276 
L 216.59674 315.671323 
L 217.168852 318.21128 
L 217.740964 318.767737 
L 218.313076 318.025795 
L 218.885188 319.017545 
L 219.4573 315.1747 
L 220.029413 317.511222 
L 220.601525 307.861479 
L 221.173637 320.058658 
L 221.745749 318.102083 
L 222.317861 318.446129 
L 222.889973 320.712345 
L 223.462085 324.069038 
L 224.034197 317.515709 
L 224.606309 318.476046 
L 225.178421 313.966052 
L 226.322646 319.398987 
L 226.894758 320.051179 
L 227.46687 321.401933 
L 228.038982 320.817055 
L 228.611094 315.986948 
L 229.183206 315.50678 
L 229.755318 318.111058 
L 230.32743 316.55238 
L 230.899542 320.128963 
L 231.471655 316.003402 
L 232.615879 319.324195 
L 233.187991 322.478947 
L 233.760103 321.859664 
L 234.332215 321.96587 
L 234.904327 320.661486 
L 235.476439 324.342779 
L 236.048551 323.555961 
L 236.620663 323.370475 
L 237.192776 326.306833 
L 237.764888 324.3712 
L 238.337 326.628441 
L 238.909112 324.507323 
L 239.481224 325.104168 
L 240.053336 322.353295 
L 240.625448 325.808714 
L 241.19756 325.615749 
L 241.769672 324.211144 
L 242.341784 326.806448 
L 242.913897 326.107885 
L 243.486009 322.831968 
L 244.058121 321.164093 
L 244.630233 325.611262 
L 245.202345 324.166268 
L 245.774457 326.046555 
L 246.346569 322.462493 
L 246.918681 323.877569 
L 248.062905 325.189431 
L 248.635018 322.419113 
L 249.20713 326.21409 
L 249.779242 319.801371 
L 250.923466 324.477406 
L 251.495578 326.341238 
L 252.06769 326.626945 
L 252.639802 327.347946 
L 253.211914 326.670325 
L 253.784026 328.071939 
L 254.356138 327.291104 
L 254.928251 324.942616 
L 255.500363 326.909661 
L 256.072475 324.082501 
L 256.644587 322.733242 
L 257.216699 324.167764 
L 257.788811 323.96732 
L 258.933035 327.672546 
L 259.505147 322.879835 
L 260.077259 324.969541 
L 260.649372 322.366758 
L 261.221484 324.206656 
L 261.793596 323.496127 
L 262.365708 326.830381 
L 262.93782 324.39663 
L 263.509932 326.092926 
L 264.082044 325.841623 
L 264.654156 328.185623 
L 265.226268 324.547711 
L 266.370493 328.523686 
L 266.942605 327.193873 
L 267.514717 328.955987 
L 268.086829 327.422739 
L 268.658941 327.211824 
L 269.231053 329.829565 
L 269.803165 325.879019 
L 270.375277 329.37333 
L 270.947389 323.757901 
L 271.519501 326.785506 
L 272.091614 326.13481 
L 272.663726 330.059926 
L 273.235838 327.473598 
L 273.80795 329.626129 
L 274.952174 331.632067 
L 275.524286 332.013509 
L 276.096398 330.558045 
L 276.66851 329.995605 
L 277.240622 332.563983 
L 277.812735 329.693442 
L 278.384847 331.831015 
L 278.956959 330.924529 
L 279.529071 328.260416 
L 280.101183 330.878157 
L 280.673295 329.099589 
L 281.245407 330.68968 
L 282.389631 328.90812 
L 282.961743 331.913287 
L 283.533856 327.560357 
L 284.67808 327.997146 
L 285.250192 325.947828 
L 285.822304 325.454197 
L 286.394416 326.724176 
L 286.966528 323.78333 
L 287.53864 327.691992 
L 288.110752 327.041296 
L 288.682864 329.25067 
L 289.254977 328.290333 
L 289.827089 328.727122 
L 290.399201 331.344863 
L 290.971313 329.732335 
L 291.543425 329.04873 
L 292.115537 329.156432 
L 292.687649 330.318709 
L 293.259761 328.157202 
L 293.831873 332.492182 
L 294.403985 331.294004 
L 294.976097 332.833236 
L 295.54821 330.176603 
L 296.120322 334.933413 
L 296.692434 333.97158 
L 297.264546 335.002222 
L 297.836658 335.721727 
L 298.40877 332.080823 
L 298.980882 332.341101 
L 299.552994 331.857941 
L 300.125106 329.676988 
L 300.697218 328.93355 
L 301.269331 329.754772 
L 301.841443 331.606638 
L 302.413555 330.193057 
L 302.985667 335.479399 
L 303.557779 333.937175 
L 304.129891 332.806311 
L 304.702003 329.857986 
L 305.274115 331.340376 
L 305.846227 332.047914 
L 306.418339 330.940983 
L 306.990452 333.078556 
L 307.562564 331.609629 
L 308.134676 333.546758 
L 308.706788 333.715789 
L 309.2789 334.113686 
L 309.851012 333.724764 
L 310.423124 335.091973 
L 311.567348 332.43534 
L 312.13946 332.801824 
L 312.711573 333.536287 
L 313.283685 333.032185 
L 313.855797 330.721093 
L 314.427909 331.810073 
L 315.000021 332.200491 
L 315.572133 331.316442 
L 316.144245 333.178778 
L 316.716357 334.233354 
L 317.288469 336.107657 
L 317.860581 334.936405 
L 318.432694 335.558679 
L 319.004806 331.825032 
L 319.576918 332.198995 
L 320.14903 333.078556 
L 320.721142 332.750965 
L 321.293254 331.605142 
L 321.865366 331.656001 
L 322.437478 331.31345 
L 323.00959 332.442819 
L 323.581702 330.677713 
L 324.725927 332.824261 
L 325.298039 333.358281 
L 325.870151 332.228912 
L 326.442263 332.14664 
L 327.014375 333.554237 
L 327.586487 331.41816 
L 328.158599 332.822765 
L 328.730711 333.298446 
L 329.302823 333.006755 
L 329.874935 335.038123 
L 330.447048 335.258013 
L 331.01916 333.162324 
L 331.591272 334.553467 
L 332.163384 334.590863 
L 332.735496 335.029148 
L 333.307608 333.660443 
L 333.87972 335.733694 
L 334.451832 335.836908 
L 335.023944 334.186983 
L 335.596056 335.021668 
L 336.168169 334.513079 
L 336.740281 335.434524 
L 337.312393 335.160783 
L 337.884505 336.394861 
L 338.456617 335.195187 
L 339.028729 336.308101 
L 339.600841 336.367935 
L 340.172953 336.225829 
L 340.745065 335.721727 
L 341.317177 332.939442 
L 341.88929 333.424098 
L 342.461402 334.382939 
L 343.033514 336.529487 
L 343.605626 336.638685 
L 344.177738 333.594625 
L 344.74985 334.969313 
L 345.321962 335.404606 
L 345.894074 335.996964 
L 346.466186 335.425548 
L 347.038298 336.68356 
L 347.610411 335.228096 
L 348.182523 334.931917 
L 348.754635 336.403836 
L 349.326747 335.892254 
L 349.898859 335.754636 
L 350.470971 337.471874 
L 351.043083 335.549704 
L 351.615195 336.136078 
L 352.187307 335.663389 
L 352.759419 336.068765 
L 353.331532 337.681294 
L 353.903644 338.305064 
L 354.475756 337.477858 
L 355.047868 337.8234 
L 355.61998 336.574363 
L 356.192092 335.73519 
L 356.764204 335.611034 
L 357.336316 335.261005 
L 357.908428 336.765832 
L 358.48054 333.518337 
L 359.052653 334.680614 
L 359.624765 333.908754 
L 360.196877 334.640226 
L 360.768989 336.565388 
L 361.341101 335.503333 
L 361.913213 331.693397 
L 362.485325 330.019538 
L 363.057437 333.093515 
L 363.629549 335.032139 
L 364.201661 334.783828 
L 364.773773 335.518291 
L 365.345886 336.679073 
L 365.917998 337.144283 
L 366.49011 336.77032 
L 367.062222 337.817416 
L 368.206446 339.263905 
L 368.778558 336.987218 
L 369.35067 336.409819 
L 369.922782 337.047052 
L 370.494894 334.411361 
L 371.067007 336.475637 
L 371.639119 336.48162 
L 372.211231 336.046327 
L 372.783343 334.000001 
L 373.355455 333.415123 
L 373.927567 335.922171 
L 374.499679 334.31413 
L 375.071791 335.869817 
L 375.643903 336.673089 
L 376.788128 337.248992 
L 377.36024 337.304339 
L 377.932352 339.66629 
L 378.504464 334.76139 
L 379.076576 337.862292 
L 379.648688 336.979739 
L 380.2208 335.057569 
L 380.792912 335.905717 
L 381.365024 338.441187 
L 381.937136 336.520512 
L 382.509249 336.76284 
L 383.081361 338.049273 
L 384.225585 335.696298 
L 384.797697 338.421741 
L 385.369809 338.275147 
L 385.941921 339.205567 
L 386.514033 337.87725 
L 387.086145 337.091928 
L 387.658257 338.56983 
L 389.374594 335.684331 
L 389.946706 335.099453 
L 390.518818 338.248222 
L 391.09093 338.845067 
L 391.663042 338.209329 
L 392.235154 338.713432 
L 392.807266 338.035811 
L 393.379378 335.341781 
L 393.951491 337.515254 
L 394.523603 335.479399 
L 395.095715 337.093424 
L 395.667827 338.162958 
L 396.239939 338.176421 
L 396.812051 340.082137 
L 397.384163 339.373103 
L 397.956275 339.432937 
L 398.528387 339.293822 
L 399.100499 339.435928 
L 399.672612 336.833145 
L 400.244724 337.868275 
L 400.816836 338.524954 
L 401.388948 338.210825 
L 401.96106 339.833825 
L 402.533172 337.352206 
L 403.105284 336.982731 
L 403.677396 337.465891 
L 404.249508 338.874984 
L 404.82162 338.327502 
L 405.393732 338.568334 
L 405.965845 337.733648 
L 407.110069 339.452383 
L 407.682181 339.800916 
L 408.254293 339.993881 
L 409.398517 339.060469 
L 409.970629 337.931101 
L 410.542741 338.047777 
L 411.114853 339.672273 
L 411.686966 338.625176 
L 412.259078 336.674585 
L 412.83119 335.835412 
L 413.403302 338.629664 
L 413.975414 339.045511 
L 414.547526 339.977427 
L 415.119638 340.370836 
L 415.69175 339.718644 
L 416.263862 338.501021 
L 416.835974 340.138979 
L 417.408087 340.930285 
L 417.980199 338.682019 
L 418.552311 340.936268 
L 419.124423 340.324465 
L 419.696535 340.858484 
L 420.268647 339.027561 
L 420.840759 338.80767 
L 421.412871 339.570555 
L 421.984983 339.147229 
L 422.557095 338.405286 
L 423.129208 339.192104 
L 423.70132 341.154663 
L 424.273432 339.111328 
L 424.845544 339.088891 
L 425.417656 340.282581 
L 425.989768 338.553376 
L 426.56188 338.098636 
L 427.133992 340.022302 
L 427.706104 338.560855 
L 428.278216 340.435158 
L 428.850329 338.922851 
L 429.422441 339.575043 
L 429.994553 338.029827 
L 430.566665 339.670777 
L 431.138777 340.27211 
L 431.710889 341.557047 
L 432.283001 340.593718 
L 432.855113 340.613164 
L 433.427225 340.942252 
L 433.999337 340.557818 
L 434.57145 341.592947 
L 435.143562 341.60641 
L 436.287786 339.067949 
L 436.859898 340.686461 
L 437.43201 340.342415 
L 438.004122 338.906397 
L 438.576234 341.172613 
L 439.148346 340.020807 
L 439.720458 340.104574 
L 440.29257 339.760528 
L 440.864683 339.917593 
L 441.436795 339.049998 
L 442.008907 340.874938 
L 442.581019 340.602693 
L 443.725243 337.980464 
L 444.297355 339.784462 
L 444.869467 339.081411 
L 445.441579 341.024523 
L 446.013691 338.981189 
L 447.157916 339.184625 
L 447.730028 339.483796 
L 448.30214 340.469562 
L 448.874252 339.386565 
L 449.446364 339.893659 
L 450.018476 340.173384 
L 450.590588 340.275101 
L 451.1627 341.292281 
L 451.734812 339.65881 
L 452.306925 341.259372 
L 452.879037 342.361815 
L 453.451149 340.993111 
L 454.023261 341.998323 
L 454.595373 341.539097 
L 455.739597 339.120304 
L 456.311709 339.907122 
L 456.883821 339.981914 
L 457.455933 339.877205 
L 458.028046 340.209284 
L 458.600158 339.540638 
L 459.17227 340.138979 
L 459.744382 338.680523 
L 460.316494 338.243734 
L 460.888606 337.953539 
L 461.460718 338.568334 
L 462.604942 340.22873 
L 463.749167 340.302027 
L 464.321279 341.54508 
L 464.893391 341.232447 
L 465.465503 340.215267 
L 466.037615 341.533113 
L 466.609727 339.130774 
L 467.181839 338.936314 
L 467.753951 337.250488 
L 468.326063 338.34246 
L 468.898175 337.295364 
L 469.470288 334.842166 
L 470.0424 338.883959 
L 470.614512 339.474821 
L 471.186624 339.874213 
L 471.758736 340.623635 
L 472.330848 341.591451 
L 472.90296 340.981144 
L 473.475072 339.88618 
L 474.047184 340.490504 
L 474.619296 340.815104 
L 475.191408 339.736595 
L 475.763521 340.681973 
L 476.335633 341.186076 
L 476.907745 341.168125 
L 477.479857 340.991615 
L 478.051969 341.398487 
L 478.624081 341.5017 
L 479.196193 339.293822 
L 479.768305 339.274376 
L 480.340417 340.541363 
L 480.912529 340.692444 
L 481.484642 342.689407 
L 482.056754 341.507684 
L 482.628866 342.07162 
L 483.200978 338.773266 
L 483.77309 338.348444 
L 484.345202 338.065728 
L 484.917314 339.782966 
L 485.489426 339.196592 
L 486.061538 338.897422 
L 486.63365 338.936314 
L 487.205763 340.671502 
L 488.349987 341.38652 
L 488.922099 341.510675 
L 489.494211 343.067858 
L 490.066323 342.454558 
L 490.638435 342.420154 
L 491.210547 342.575722 
L 491.782659 339.733603 
L 492.354771 340.800146 
L 492.926884 340.584743 
L 493.498996 339.972939 
L 494.64322 342.294502 
L 495.215332 342.36032 
L 495.787444 343.206972 
L 496.359556 342.978107 
L 496.931668 342.484475 
L 497.50378 343.721545 
L 498.075892 342.836001 
L 498.648005 342.343865 
L 499.220117 342.270568 
L 499.792229 342.550293 
L 500.364341 343.856172 
L 500.936453 341.814333 
L 501.508565 342.37827 
L 502.080677 342.752233 
L 502.652789 340.91383 
L 503.224901 341.248901 
L 503.797013 341.347628 
L 504.369126 341.133721 
L 504.941238 341.856217 
L 505.51335 341.911564 
L 506.085462 342.762704 
L 506.657574 341.380536 
L 507.229686 343.00204 
L 507.801798 342.779158 
L 508.37391 343.195005 
L 508.946022 341.491229 
L 509.518134 342.596664 
L 510.662359 340.740312 
L 511.234471 341.020036 
L 511.806583 342.218214 
L 512.378695 342.037215 
L 513.522919 341.320702 
L 514.095031 340.922806 
L 514.667143 342.638548 
L 515.239255 342.867413 
L 515.811367 341.799375 
L 516.955592 341.784416 
L 517.527704 341.791896 
L 518.099816 343.175559 
L 518.671928 341.573501 
L 519.24404 340.628123 
L 519.816152 341.419428 
L 520.388264 341.296769 
L 520.960376 341.723086 
L 521.532488 341.23843 
L 522.104601 341.723086 
L 522.676713 341.74702 
L 523.820937 339.419474 
L 524.393049 341.727574 
L 524.965161 341.5017 
L 525.537273 342.678936 
L 526.109385 341.708128 
L 526.681497 341.797879 
L 527.253609 342.8001 
L 527.825722 342.328907 
L 528.397834 343.034949 
L 528.969946 342.593672 
L 529.542058 344.436562 
L 530.11417 343.157609 
L 530.686282 341.341644 
L 531.258394 343.524093 
L 531.830506 342.388741 
L 532.402618 342.927248 
L 532.97473 340.438149 
L 533.546843 340.367844 
L 534.118955 340.801641 
L 534.691067 339.639364 
L 535.263179 342.091066 
L 535.835291 342.462037 
L 536.407403 340.493496 
L 536.979515 342.21223 
L 537.551627 341.960927 
L 538.123739 342.117991 
L 538.695851 343.103758 
L 539.267964 343.066362 
L 539.840076 343.166584 
L 540.412188 342.137438 
L 540.9843 342.657994 
L 541.556412 342.586193 
L 542.128524 342.646027 
L 542.700636 342.23018 
L 543.272748 343.34459 
L 543.84486 341.661757 
L 544.989085 342.807579 
L 545.561197 341.40447 
L 546.133309 344.097004 
L 546.705421 344.288473 
L 547.277533 342.379766 
L 547.849645 343.256335 
L 548.421757 341.558543 
L 548.993869 343.202484 
L 550.138093 342.436608 
L 550.710205 343.604869 
L 551.282318 343.907031 
L 551.85443 342.331898 
L 552.426542 343.141154 
L 552.998654 343.018495 
L 553.570766 343.334119 
L 554.142878 341.999819 
L 554.71499 342.542814 
L 555.287102 342.242147 
L 555.287102 342.242147 
" clip-path="url(#p695219f4d5)" style="fill: none; stroke: #00b0f0; stroke-width: 2.5; stroke-linecap: round"/>
   </g>
   <g id="patch_3">
    <path d="M 75.914375 359.556562 
L 75.914375 26.916562 
" style="fill: none; stroke: #262626; stroke-width: 1.25; stroke-linejoin: miter; stroke-linecap: square"/>
   </g>
   <g id="patch_4">
    <path d="M 75.914375 359.556562 
L 578.114375 359.556562 
" style="fill: none; stroke: #262626; stroke-width: 1.25; stroke-linejoin: miter; stroke-linecap: square"/>
   </g>
   <g id="legend_1">
    <g id="patch_5">
     <path d="M 162.754375 228.828438 
L 562.714375 228.828438 
Q 567.114375 228.828438 567.114375 224.428438 
L 567.114375 162.044687 
Q 567.114375 157.644687 562.714375 157.644687 
L 162.754375 157.644687 
Q 158.354375 157.644687 158.354375 162.044687 
L 158.354375 224.428438 
Q 158.354375 228.828438 162.754375 228.828438 
z
" style="fill: #ffffff; opacity: 0.8; stroke: #cccccc; stroke-linejoin: miter"/>
    </g>
    <g id="line2d_13">
     <path d="M 167.154375 175.46125 
L 189.154375 175.46125 
L 211.154375 175.46125 
" style="fill: none; stroke: #ffe699; stroke-width: 2.5; stroke-linecap: round"/>
    </g>
    <g id="text_14">
     <!-- Without AC-awareness ($\alpha = 0 $) -->
     <g style="fill: #262626" transform="translate(228.754375 183.16125) scale(0.22 -0.22)">
      <defs>
       <path id="DejaVuSans-57" d="M 213 4666 
L 850 4666 
L 1831 722 
L 2809 4666 
L 3519 4666 
L 4500 722 
L 5478 4666 
L 6119 4666 
L 4947 0 
L 4153 0 
L 3169 4050 
L 2175 0 
L 1381 0 
L 213 4666 
z
" transform="scale(0.015625)"/>
       <path id="DejaVuSans-74" d="M 1172 4494 
L 1172 3500 
L 2356 3500 
L 2356 3053 
L 1172 3053 
L 1172 1153 
Q 1172 725 1289 603 
Q 1406 481 1766 481 
L 2356 481 
L 2356 0 
L 1766 0 
Q 1100 0 847 248 
Q 594 497 594 1153 
L 594 3053 
L 172 3053 
L 172 3500 
L 594 3500 
L 594 4494 
L 1172 4494 
z
" transform="scale(0.015625)"/>
       <path id="DejaVuSans-75" d="M 544 1381 
L 544 3500 
L 1119 3500 
L 1119 1403 
Q 1119 906 1312 657 
Q 1506 409 1894 409 
Q 2359 409 2629 706 
Q 2900 1003 2900 1516 
L 2900 3500 
L 3475 3500 
L 3475 0 
L 2900 0 
L 2900 538 
Q 2691 219 2414 64 
Q 2138 -91 1772 -91 
Q 1169 -91 856 284 
Q 544 659 544 1381 
z
M 1991 3584 
L 1991 3584 
z
" transform="scale(0.015625)"/>
       <path id="DejaVuSans-2d" d="M 313 2009 
L 1997 2009 
L 1997 1497 
L 313 1497 
L 313 2009 
z
" transform="scale(0.015625)"/>
       <path id="DejaVuSans-61" d="M 2194 1759 
Q 1497 1759 1228 1600 
Q 959 1441 959 1056 
Q 959 750 1161 570 
Q 1363 391 1709 391 
Q 2188 391 2477 730 
Q 2766 1069 2766 1631 
L 2766 1759 
L 2194 1759 
z
M 3341 1997 
L 3341 0 
L 2766 0 
L 2766 531 
Q 2569 213 2275 61 
Q 1981 -91 1556 -91 
Q 1019 -91 701 211 
Q 384 513 384 1019 
Q 384 1609 779 1909 
Q 1175 2209 1959 2209 
L 2766 2209 
L 2766 2266 
Q 2766 2663 2505 2880 
Q 2244 3097 1772 3097 
Q 1472 3097 1187 3025 
Q 903 2953 641 2809 
L 641 3341 
Q 956 3463 1253 3523 
Q 1550 3584 1831 3584 
Q 2591 3584 2966 3190 
Q 3341 2797 3341 1997 
z
" transform="scale(0.015625)"/>
       <path id="DejaVuSans-77" d="M 269 3500 
L 844 3500 
L 1563 769 
L 2278 3500 
L 2956 3500 
L 3675 769 
L 4391 3500 
L 4966 3500 
L 4050 0 
L 3372 0 
L 2619 2869 
L 1863 0 
L 1184 0 
L 269 3500 
z
" transform="scale(0.015625)"/>
       <path id="DejaVuSans-72" d="M 2631 2963 
Q 2534 3019 2420 3045 
Q 2306 3072 2169 3072 
Q 1681 3072 1420 2755 
Q 1159 2438 1159 1844 
L 1159 0 
L 581 0 
L 581 3500 
L 1159 3500 
L 1159 2956 
Q 1341 3275 1631 3429 
Q 1922 3584 2338 3584 
Q 2397 3584 2469 3576 
Q 2541 3569 2628 3553 
L 2631 2963 
z
" transform="scale(0.015625)"/>
       <path id="DejaVuSans-28" d="M 1984 4856 
Q 1566 4138 1362 3434 
Q 1159 2731 1159 2009 
Q 1159 1288 1364 580 
Q 1569 -128 1984 -844 
L 1484 -844 
Q 1016 -109 783 600 
Q 550 1309 550 2009 
Q 550 2706 781 3412 
Q 1013 4119 1484 4856 
L 1984 4856 
z
" transform="scale(0.015625)"/>
       <path id="DejaVuSans-Oblique-3b1" d="M 2619 1628 
L 2622 2350 
Q 2625 3088 2069 3091 
Q 1653 3094 1394 2747 
Q 1069 2319 959 1747 
Q 825 1059 994 731 
Q 1169 397 1547 397 
Q 1966 397 2319 1063 
L 2619 1628 
z
M 2166 3578 
Q 3141 3594 3128 2584 
Q 3128 2584 3616 3500 
L 4128 3500 
L 3119 1603 
L 3109 919 
Q 3109 766 3194 638 
Q 3291 488 3391 488 
L 3669 488 
L 3575 0 
L 3228 0 
Q 2934 0 2722 263 
Q 2622 394 2619 669 
Q 2416 334 2066 50 
Q 1900 -81 1453 -78 
Q 722 -72 456 397 
Q 184 884 353 1747 
Q 534 2675 1009 3097 
Q 1544 3569 2166 3578 
z
" transform="scale(0.015625)"/>
       <path id="DejaVuSans-3d" d="M 678 2906 
L 4684 2906 
L 4684 2381 
L 678 2381 
L 678 2906 
z
M 678 1631 
L 4684 1631 
L 4684 1100 
L 678 1100 
L 678 1631 
z
" transform="scale(0.015625)"/>
       <path id="DejaVuSans-29" d="M 513 4856 
L 1013 4856 
Q 1481 4119 1714 3412 
Q 1947 2706 1947 2009 
Q 1947 1309 1714 600 
Q 1481 -109 1013 -844 
L 513 -844 
Q 928 -128 1133 580 
Q 1338 1288 1338 2009 
Q 1338 2731 1133 3434 
Q 928 4138 513 4856 
z
" transform="scale(0.015625)"/>
      </defs>
      <use xlink:href="#DejaVuSans-57" transform="translate(0 0.015625)"/>
      <use xlink:href="#DejaVuSans-69" transform="translate(98.876953 0.015625)"/>
      <use xlink:href="#DejaVuSans-74" transform="translate(126.660156 0.015625)"/>
      <use xlink:href="#DejaVuSans-68" transform="translate(165.869141 0.015625)"/>
      <use xlink:href="#DejaVuSans-6f" transform="translate(229.248047 0.015625)"/>
      <use xlink:href="#DejaVuSans-75" transform="translate(290.429688 0.015625)"/>
      <use xlink:href="#DejaVuSans-74" transform="translate(353.808594 0.015625)"/>
      <use xlink:href="#DejaVuSans-20" transform="translate(393.017578 0.015625)"/>
      <use xlink:href="#DejaVuSans-41" transform="translate(424.804688 0.015625)"/>
      <use xlink:href="#DejaVuSans-43" transform="translate(493.212891 0.015625)"/>
      <use xlink:href="#DejaVuSans-2d" transform="translate(563.037109 0.015625)"/>
      <use xlink:href="#DejaVuSans-61" transform="translate(599.121094 0.015625)"/>
      <use xlink:href="#DejaVuSans-77" transform="translate(660.400391 0.015625)"/>
      <use xlink:href="#DejaVuSans-61" transform="translate(742.1875 0.015625)"/>
      <use xlink:href="#DejaVuSans-72" transform="translate(803.466797 0.015625)"/>
      <use xlink:href="#DejaVuSans-65" transform="translate(844.580078 0.015625)"/>
      <use xlink:href="#DejaVuSans-6e" transform="translate(906.103516 0.015625)"/>
      <use xlink:href="#DejaVuSans-65" transform="translate(969.482422 0.015625)"/>
      <use xlink:href="#DejaVuSans-73" transform="translate(1031.005859 0.015625)"/>
      <use xlink:href="#DejaVuSans-73" transform="translate(1083.105469 0.015625)"/>
      <use xlink:href="#DejaVuSans-20" transform="translate(1135.205078 0.015625)"/>
      <use xlink:href="#DejaVuSans-28" transform="translate(1166.992188 0.015625)"/>
      <use xlink:href="#DejaVuSans-Oblique-3b1" transform="translate(1206.005859 0.015625)"/>
      <use xlink:href="#DejaVuSans-3d" transform="translate(1291.40625 0.015625)"/>
      <use xlink:href="#DejaVuSans-30" transform="translate(1394.677734 0.015625)"/>
      <use xlink:href="#DejaVuSans-29" transform="translate(1458.300781 0.015625)"/>
     </g>
    </g>
    <g id="line2d_14">
     <path d="M 167.154375 207.753125 
L 189.154375 207.753125 
L 211.154375 207.753125 
" style="fill: none; stroke: #00b0f0; stroke-width: 2.5; stroke-linecap: round"/>
    </g>
    <g id="text_15">
     <!-- With AC-awareness($\alpha=1$) -->
     <g style="fill: #262626" transform="translate(228.754375 215.453125) scale(0.22 -0.22)">
      <use xlink:href="#DejaVuSans-57" transform="translate(0 0.015625)"/>
      <use xlink:href="#DejaVuSans-69" transform="translate(98.876953 0.015625)"/>
      <use xlink:href="#DejaVuSans-74" transform="translate(126.660156 0.015625)"/>
      <use xlink:href="#DejaVuSans-68" transform="translate(165.869141 0.015625)"/>
      <use xlink:href="#DejaVuSans-20" transform="translate(229.248047 0.015625)"/>
      <use xlink:href="#DejaVuSans-41" transform="translate(261.035156 0.015625)"/>
      <use xlink:href="#DejaVuSans-43" transform="translate(329.443359 0.015625)"/>
      <use xlink:href="#DejaVuSans-2d" transform="translate(399.267578 0.015625)"/>
      <use xlink:href="#DejaVuSans-61" transform="translate(435.351562 0.015625)"/>
      <use xlink:href="#DejaVuSans-77" transform="translate(496.630859 0.015625)"/>
      <use xlink:href="#DejaVuSans-61" transform="translate(578.417969 0.015625)"/>
      <use xlink:href="#DejaVuSans-72" transform="translate(639.697266 0.015625)"/>
      <use xlink:href="#DejaVuSans-65" transform="translate(680.810547 0.015625)"/>
      <use xlink:href="#DejaVuSans-6e" transform="translate(742.333984 0.015625)"/>
      <use xlink:href="#DejaVuSans-65" transform="translate(805.712891 0.015625)"/>
      <use xlink:href="#DejaVuSans-73" transform="translate(867.236328 0.015625)"/>
      <use xlink:href="#DejaVuSans-73" transform="translate(919.335938 0.015625)"/>
      <use xlink:href="#DejaVuSans-28" transform="translate(971.435547 0.015625)"/>
      <use xlink:href="#DejaVuSans-Oblique-3b1" transform="translate(1010.449219 0.015625)"/>
      <use xlink:href="#DejaVuSans-3d" transform="translate(1095.849609 0.015625)"/>
      <use xlink:href="#DejaVuSans-31" transform="translate(1199.121094 0.015625)"/>
      <use xlink:href="#DejaVuSans-29" transform="translate(1262.744141 0.015625)"/>
     </g>
    </g>
   </g>
  </g>
 </g>
 <defs>
  <clipPath id="p695219f4d5">
   <rect x="75.914375" y="26.916562" width="502.2" height="332.64"/>
  </clipPath>
 </defs>
</svg>
