<?xml version="1.0" encoding="utf-8" standalone="no"?>
<!DOCTYPE svg PUBLIC "-//W3C//DTD SVG 1.1//EN"
  "http://www.w3.org/Graphics/SVG/1.1/DTD/svg11.dtd">
<svg xmlns:xlink="http://www.w3.org/1999/xlink" width="585.314375pt" height="410.417656pt" viewBox="0 0 585.314375 410.417656" xmlns="http://www.w3.org/2000/svg" version="1.1">
 <metadata>
  <rdf:RDF xmlns:dc="http://purl.org/dc/elements/1.1/" xmlns:cc="http://creativecommons.org/ns#" xmlns:rdf="http://www.w3.org/1999/02/22-rdf-syntax-ns#">
   <cc:Work>
    <dc:type rdf:resource="http://purl.org/dc/dcmitype/StillImage"/>
    <dc:date>2024-04-23T14:34:18.148592</dc:date>
    <dc:format>image/svg+xml</dc:format>
    <dc:creator>
     <cc:Agent>
      <dc:title>Matplotlib v3.7.5, https://matplotlib.org/</dc:title>
     </cc:Agent>
    </dc:creator>
   </cc:Work>
  </rdf:RDF>
 </metadata>
 <defs>
  <style type="text/css">*{stroke-linejoin: round; stroke-linecap: butt}</style>
 </defs>
 <g id="figure_1">
  <g id="patch_1">
   <path d="M 0 410.417656 
L 585.314375 410.417656 
L 585.314375 0 
L 0 0 
z
" style="fill: #ffffff"/>
  </g>
  <g id="axes_1">
   <g id="patch_2">
    <path d="M 75.914375 348.198281 
L 578.114375 348.198281 
L 578.114375 15.558281 
L 75.914375 15.558281 
z
" style="fill: #ffffff"/>
   </g>
   <g id="matplotlib.axis_1">
    <g id="xtick_1">
     <g id="line2d_1">
      <defs>
       <path id="m243d77298d" d="M 0 0 
L 0 6 
" style="stroke: #262626; stroke-width: 1.25"/>
      </defs>
      <g>
       <use xlink:href="#m243d77298d" x="97.594549" y="348.198281" style="fill: #262626; stroke: #262626; stroke-width: 1.25"/>
      </g>
     </g>
     <g id="text_1">
      <!-- 0 -->
      <g style="fill: #262626" transform="translate(90.595799 371.414844) scale(0.22 -0.22)">
       <defs>
        <path id="DejaVuSans-30" d="M 2034 4250 
Q 1547 4250 1301 3770 
Q 1056 3291 1056 2328 
Q 1056 1369 1301 889 
Q 1547 409 2034 409 
Q 2525 409 2770 889 
Q 3016 1369 3016 2328 
Q 3016 3291 2770 3770 
Q 2525 4250 2034 4250 
z
M 2034 4750 
Q 2819 4750 3233 4129 
Q 3647 3509 3647 2328 
Q 3647 1150 3233 529 
Q 2819 -91 2034 -91 
Q 1250 -91 836 529 
Q 422 1150 422 2328 
Q 422 3509 836 4129 
Q 1250 4750 2034 4750 
z
" transform="scale(0.015625)"/>
       </defs>
       <use xlink:href="#DejaVuSans-30"/>
      </g>
     </g>
    </g>
    <g id="xtick_2">
     <g id="line2d_2">
      <g>
       <use xlink:href="#m243d77298d" x="212.304462" y="348.198281" style="fill: #262626; stroke: #262626; stroke-width: 1.25"/>
      </g>
     </g>
     <g id="text_2">
      <!-- 200 -->
      <g style="fill: #262626" transform="translate(191.308212 371.414844) scale(0.22 -0.22)">
       <defs>
        <path id="DejaVuSans-32" d="M 1228 531 
L 3431 531 
L 3431 0 
L 469 0 
L 469 531 
Q 828 903 1448 1529 
Q 2069 2156 2228 2338 
Q 2531 2678 2651 2914 
Q 2772 3150 2772 3378 
Q 2772 3750 2511 3984 
Q 2250 4219 1831 4219 
Q 1534 4219 1204 4116 
Q 875 4013 500 3803 
L 500 4441 
Q 881 4594 1212 4672 
Q 1544 4750 1819 4750 
Q 2544 4750 2975 4387 
Q 3406 4025 3406 3419 
Q 3406 3131 3298 2873 
Q 3191 2616 2906 2266 
Q 2828 2175 2409 1742 
Q 1991 1309 1228 531 
z
" transform="scale(0.015625)"/>
       </defs>
       <use xlink:href="#DejaVuSans-32"/>
       <use xlink:href="#DejaVuSans-30" x="63.623047"/>
       <use xlink:href="#DejaVuSans-30" x="127.246094"/>
      </g>
     </g>
    </g>
    <g id="xtick_3">
     <g id="line2d_3">
      <g>
       <use xlink:href="#m243d77298d" x="327.014375" y="348.198281" style="fill: #262626; stroke: #262626; stroke-width: 1.25"/>
      </g>
     </g>
     <g id="text_3">
      <!-- 400 -->
      <g style="fill: #262626" transform="translate(306.018125 371.414844) scale(0.22 -0.22)">
       <defs>
        <path id="DejaVuSans-34" d="M 2419 4116 
L 825 1625 
L 2419 1625 
L 2419 4116 
z
M 2253 4666 
L 3047 4666 
L 3047 1625 
L 3713 1625 
L 3713 1100 
L 3047 1100 
L 3047 0 
L 2419 0 
L 2419 1100 
L 313 1100 
L 313 1709 
L 2253 4666 
z
" transform="scale(0.015625)"/>
       </defs>
       <use xlink:href="#DejaVuSans-34"/>
       <use xlink:href="#DejaVuSans-30" x="63.623047"/>
       <use xlink:href="#DejaVuSans-30" x="127.246094"/>
      </g>
     </g>
    </g>
    <g id="xtick_4">
     <g id="line2d_4">
      <g>
       <use xlink:href="#m243d77298d" x="441.724288" y="348.198281" style="fill: #262626; stroke: #262626; stroke-width: 1.25"/>
      </g>
     </g>
     <g id="text_4">
      <!-- 600 -->
      <g style="fill: #262626" transform="translate(420.728038 371.414844) scale(0.22 -0.22)">
       <defs>
        <path id="DejaVuSans-36" d="M 2113 2584 
Q 1688 2584 1439 2293 
Q 1191 2003 1191 1497 
Q 1191 994 1439 701 
Q 1688 409 2113 409 
Q 2538 409 2786 701 
Q 3034 994 3034 1497 
Q 3034 2003 2786 2293 
Q 2538 2584 2113 2584 
z
M 3366 4563 
L 3366 3988 
Q 3128 4100 2886 4159 
Q 2644 4219 2406 4219 
Q 1781 4219 1451 3797 
Q 1122 3375 1075 2522 
Q 1259 2794 1537 2939 
Q 1816 3084 2150 3084 
Q 2853 3084 3261 2657 
Q 3669 2231 3669 1497 
Q 3669 778 3244 343 
Q 2819 -91 2113 -91 
Q 1303 -91 875 529 
Q 447 1150 447 2328 
Q 447 3434 972 4092 
Q 1497 4750 2381 4750 
Q 2619 4750 2861 4703 
Q 3103 4656 3366 4563 
z
" transform="scale(0.015625)"/>
       </defs>
       <use xlink:href="#DejaVuSans-36"/>
       <use xlink:href="#DejaVuSans-30" x="63.623047"/>
       <use xlink:href="#DejaVuSans-30" x="127.246094"/>
      </g>
     </g>
    </g>
    <g id="xtick_5">
     <g id="line2d_5">
      <g>
       <use xlink:href="#m243d77298d" x="556.434201" y="348.198281" style="fill: #262626; stroke: #262626; stroke-width: 1.25"/>
      </g>
     </g>
     <g id="text_5">
      <!-- 800 -->
      <g style="fill: #262626" transform="translate(535.437951 371.414844) scale(0.22 -0.22)">
       <defs>
        <path id="DejaVuSans-38" d="M 2034 2216 
Q 1584 2216 1326 1975 
Q 1069 1734 1069 1313 
Q 1069 891 1326 650 
Q 1584 409 2034 409 
Q 2484 409 2743 651 
Q 3003 894 3003 1313 
Q 3003 1734 2745 1975 
Q 2488 2216 2034 2216 
z
M 1403 2484 
Q 997 2584 770 2862 
Q 544 3141 544 3541 
Q 544 4100 942 4425 
Q 1341 4750 2034 4750 
Q 2731 4750 3128 4425 
Q 3525 4100 3525 3541 
Q 3525 3141 3298 2862 
Q 3072 2584 2669 2484 
Q 3125 2378 3379 2068 
Q 3634 1759 3634 1313 
Q 3634 634 3220 271 
Q 2806 -91 2034 -91 
Q 1263 -91 848 271 
Q 434 634 434 1313 
Q 434 1759 690 2068 
Q 947 2378 1403 2484 
z
M 1172 3481 
Q 1172 3119 1398 2916 
Q 1625 2713 2034 2713 
Q 2441 2713 2670 2916 
Q 2900 3119 2900 3481 
Q 2900 3844 2670 4047 
Q 2441 4250 2034 4250 
Q 1625 4250 1398 4047 
Q 1172 3844 1172 3481 
z
" transform="scale(0.015625)"/>
       </defs>
       <use xlink:href="#DejaVuSans-38"/>
       <use xlink:href="#DejaVuSans-30" x="63.623047"/>
       <use xlink:href="#DejaVuSans-30" x="127.246094"/>
      </g>
     </g>
    </g>
    <g id="text_6">
     <!-- epochs -->
     <g style="fill: #262626" transform="translate(284.215625 398.226406) scale(0.24 -0.24)">
      <defs>
       <path id="DejaVuSans-65" d="M 3597 1894 
L 3597 1613 
L 953 1613 
Q 991 1019 1311 708 
Q 1631 397 2203 397 
Q 2534 397 2845 478 
Q 3156 559 3463 722 
L 3463 178 
Q 3153 47 2828 -22 
Q 2503 -91 2169 -91 
Q 1331 -91 842 396 
Q 353 884 353 1716 
Q 353 2575 817 3079 
Q 1281 3584 2069 3584 
Q 2775 3584 3186 3129 
Q 3597 2675 3597 1894 
z
M 3022 2063 
Q 3016 2534 2758 2815 
Q 2500 3097 2075 3097 
Q 1594 3097 1305 2825 
Q 1016 2553 972 2059 
L 3022 2063 
z
" transform="scale(0.015625)"/>
       <path id="DejaVuSans-70" d="M 1159 525 
L 1159 -1331 
L 581 -1331 
L 581 3500 
L 1159 3500 
L 1159 2969 
Q 1341 3281 1617 3432 
Q 1894 3584 2278 3584 
Q 2916 3584 3314 3078 
Q 3713 2572 3713 1747 
Q 3713 922 3314 415 
Q 2916 -91 2278 -91 
Q 1894 -91 1617 61 
Q 1341 213 1159 525 
z
M 3116 1747 
Q 3116 2381 2855 2742 
Q 2594 3103 2138 3103 
Q 1681 3103 1420 2742 
Q 1159 2381 1159 1747 
Q 1159 1113 1420 752 
Q 1681 391 2138 391 
Q 2594 391 2855 752 
Q 3116 1113 3116 1747 
z
" transform="scale(0.015625)"/>
       <path id="DejaVuSans-6f" d="M 1959 3097 
Q 1497 3097 1228 2736 
Q 959 2375 959 1747 
Q 959 1119 1226 758 
Q 1494 397 1959 397 
Q 2419 397 2687 759 
Q 2956 1122 2956 1747 
Q 2956 2369 2687 2733 
Q 2419 3097 1959 3097 
z
M 1959 3584 
Q 2709 3584 3137 3096 
Q 3566 2609 3566 1747 
Q 3566 888 3137 398 
Q 2709 -91 1959 -91 
Q 1206 -91 779 398 
Q 353 888 353 1747 
Q 353 2609 779 3096 
Q 1206 3584 1959 3584 
z
" transform="scale(0.015625)"/>
       <path id="DejaVuSans-63" d="M 3122 3366 
L 3122 2828 
Q 2878 2963 2633 3030 
Q 2388 3097 2138 3097 
Q 1578 3097 1268 2742 
Q 959 2388 959 1747 
Q 959 1106 1268 751 
Q 1578 397 2138 397 
Q 2388 397 2633 464 
Q 2878 531 3122 666 
L 3122 134 
Q 2881 22 2623 -34 
Q 2366 -91 2075 -91 
Q 1284 -91 818 406 
Q 353 903 353 1747 
Q 353 2603 823 3093 
Q 1294 3584 2113 3584 
Q 2378 3584 2631 3529 
Q 2884 3475 3122 3366 
z
" transform="scale(0.015625)"/>
       <path id="DejaVuSans-68" d="M 3513 2113 
L 3513 0 
L 2938 0 
L 2938 2094 
Q 2938 2591 2744 2837 
Q 2550 3084 2163 3084 
Q 1697 3084 1428 2787 
Q 1159 2491 1159 1978 
L 1159 0 
L 581 0 
L 581 4863 
L 1159 4863 
L 1159 2956 
Q 1366 3272 1645 3428 
Q 1925 3584 2291 3584 
Q 2894 3584 3203 3211 
Q 3513 2838 3513 2113 
z
" transform="scale(0.015625)"/>
       <path id="DejaVuSans-73" d="M 2834 3397 
L 2834 2853 
Q 2591 2978 2328 3040 
Q 2066 3103 1784 3103 
Q 1356 3103 1142 2972 
Q 928 2841 928 2578 
Q 928 2378 1081 2264 
Q 1234 2150 1697 2047 
L 1894 2003 
Q 2506 1872 2764 1633 
Q 3022 1394 3022 966 
Q 3022 478 2636 193 
Q 2250 -91 1575 -91 
Q 1294 -91 989 -36 
Q 684 19 347 128 
L 347 722 
Q 666 556 975 473 
Q 1284 391 1588 391 
Q 1994 391 2212 530 
Q 2431 669 2431 922 
Q 2431 1156 2273 1281 
Q 2116 1406 1581 1522 
L 1381 1569 
Q 847 1681 609 1914 
Q 372 2147 372 2553 
Q 372 3047 722 3315 
Q 1072 3584 1716 3584 
Q 2034 3584 2315 3537 
Q 2597 3491 2834 3397 
z
" transform="scale(0.015625)"/>
      </defs>
      <use xlink:href="#DejaVuSans-65"/>
      <use xlink:href="#DejaVuSans-70" x="61.523438"/>
      <use xlink:href="#DejaVuSans-6f" x="125"/>
      <use xlink:href="#DejaVuSans-63" x="186.181641"/>
      <use xlink:href="#DejaVuSans-68" x="241.162109"/>
      <use xlink:href="#DejaVuSans-73" x="304.541016"/>
     </g>
    </g>
   </g>
   <g id="matplotlib.axis_2">
    <g id="ytick_1">
     <g id="line2d_6">
      <defs>
       <path id="m14aa660a04" d="M 0 0 
L -6 0 
" style="stroke: #262626; stroke-width: 1.25"/>
      </defs>
      <g>
       <use xlink:href="#m14aa660a04" x="75.914375" y="348.198281" style="fill: #262626; stroke: #262626; stroke-width: 1.25"/>
      </g>
     </g>
     <g id="text_7">
      <!-- 0.0 -->
      <g style="fill: #262626" transform="translate(34.4275 356.556563) scale(0.22 -0.22)">
       <defs>
        <path id="DejaVuSans-2e" d="M 684 794 
L 1344 794 
L 1344 0 
L 684 0 
L 684 794 
z
" transform="scale(0.015625)"/>
       </defs>
       <use xlink:href="#DejaVuSans-30"/>
       <use xlink:href="#DejaVuSans-2e" x="63.623047"/>
       <use xlink:href="#DejaVuSans-30" x="95.410156"/>
      </g>
     </g>
    </g>
    <g id="ytick_2">
     <g id="line2d_7">
      <g>
       <use xlink:href="#m14aa660a04" x="75.914375" y="265.038281" style="fill: #262626; stroke: #262626; stroke-width: 1.25"/>
      </g>
     </g>
     <g id="text_8">
      <!-- 0.2 -->
      <g style="fill: #262626" transform="translate(34.4275 273.396563) scale(0.22 -0.22)">
       <use xlink:href="#DejaVuSans-30"/>
       <use xlink:href="#DejaVuSans-2e" x="63.623047"/>
       <use xlink:href="#DejaVuSans-32" x="95.410156"/>
      </g>
     </g>
    </g>
    <g id="ytick_3">
     <g id="line2d_8">
      <g>
       <use xlink:href="#m14aa660a04" x="75.914375" y="181.878281" style="fill: #262626; stroke: #262626; stroke-width: 1.25"/>
      </g>
     </g>
     <g id="text_9">
      <!-- 0.4 -->
      <g style="fill: #262626" transform="translate(34.4275 190.236563) scale(0.22 -0.22)">
       <use xlink:href="#DejaVuSans-30"/>
       <use xlink:href="#DejaVuSans-2e" x="63.623047"/>
       <use xlink:href="#DejaVuSans-34" x="95.410156"/>
      </g>
     </g>
    </g>
    <g id="ytick_4">
     <g id="line2d_9">
      <g>
       <use xlink:href="#m14aa660a04" x="75.914375" y="98.718281" style="fill: #262626; stroke: #262626; stroke-width: 1.25"/>
      </g>
     </g>
     <g id="text_10">
      <!-- 0.6 -->
      <g style="fill: #262626" transform="translate(34.4275 107.076563) scale(0.22 -0.22)">
       <use xlink:href="#DejaVuSans-30"/>
       <use xlink:href="#DejaVuSans-2e" x="63.623047"/>
       <use xlink:href="#DejaVuSans-36" x="95.410156"/>
      </g>
     </g>
    </g>
    <g id="ytick_5">
     <g id="line2d_10">
      <g>
       <use xlink:href="#m14aa660a04" x="75.914375" y="15.558281" style="fill: #262626; stroke: #262626; stroke-width: 1.25"/>
      </g>
     </g>
     <g id="text_11">
      <!-- 0.8 -->
      <g style="fill: #262626" transform="translate(34.4275 23.916563) scale(0.22 -0.22)">
       <use xlink:href="#DejaVuSans-30"/>
       <use xlink:href="#DejaVuSans-2e" x="63.623047"/>
       <use xlink:href="#DejaVuSans-38" x="95.410156"/>
      </g>
     </g>
    </g>
    <g id="text_12">
     <!-- Training MAE loss -->
     <g style="fill: #262626" transform="translate(25.43625 286.171406) rotate(-90) scale(0.24 -0.24)">
      <defs>
       <path id="DejaVuSans-54" d="M -19 4666 
L 3928 4666 
L 3928 4134 
L 2272 4134 
L 2272 0 
L 1638 0 
L 1638 4134 
L -19 4134 
L -19 4666 
z
" transform="scale(0.015625)"/>
       <path id="DejaVuSans-72" d="M 2631 2963 
Q 2534 3019 2420 3045 
Q 2306 3072 2169 3072 
Q 1681 3072 1420 2755 
Q 1159 2438 1159 1844 
L 1159 0 
L 581 0 
L 581 3500 
L 1159 3500 
L 1159 2956 
Q 1341 3275 1631 3429 
Q 1922 3584 2338 3584 
Q 2397 3584 2469 3576 
Q 2541 3569 2628 3553 
L 2631 2963 
z
" transform="scale(0.015625)"/>
       <path id="DejaVuSans-61" d="M 2194 1759 
Q 1497 1759 1228 1600 
Q 959 1441 959 1056 
Q 959 750 1161 570 
Q 1363 391 1709 391 
Q 2188 391 2477 730 
Q 2766 1069 2766 1631 
L 2766 1759 
L 2194 1759 
z
M 3341 1997 
L 3341 0 
L 2766 0 
L 2766 531 
Q 2569 213 2275 61 
Q 1981 -91 1556 -91 
Q 1019 -91 701 211 
Q 384 513 384 1019 
Q 384 1609 779 1909 
Q 1175 2209 1959 2209 
L 2766 2209 
L 2766 2266 
Q 2766 2663 2505 2880 
Q 2244 3097 1772 3097 
Q 1472 3097 1187 3025 
Q 903 2953 641 2809 
L 641 3341 
Q 956 3463 1253 3523 
Q 1550 3584 1831 3584 
Q 2591 3584 2966 3190 
Q 3341 2797 3341 1997 
z
" transform="scale(0.015625)"/>
       <path id="DejaVuSans-69" d="M 603 3500 
L 1178 3500 
L 1178 0 
L 603 0 
L 603 3500 
z
M 603 4863 
L 1178 4863 
L 1178 4134 
L 603 4134 
L 603 4863 
z
" transform="scale(0.015625)"/>
       <path id="DejaVuSans-6e" d="M 3513 2113 
L 3513 0 
L 2938 0 
L 2938 2094 
Q 2938 2591 2744 2837 
Q 2550 3084 2163 3084 
Q 1697 3084 1428 2787 
Q 1159 2491 1159 1978 
L 1159 0 
L 581 0 
L 581 3500 
L 1159 3500 
L 1159 2956 
Q 1366 3272 1645 3428 
Q 1925 3584 2291 3584 
Q 2894 3584 3203 3211 
Q 3513 2838 3513 2113 
z
" transform="scale(0.015625)"/>
       <path id="DejaVuSans-67" d="M 2906 1791 
Q 2906 2416 2648 2759 
Q 2391 3103 1925 3103 
Q 1463 3103 1205 2759 
Q 947 2416 947 1791 
Q 947 1169 1205 825 
Q 1463 481 1925 481 
Q 2391 481 2648 825 
Q 2906 1169 2906 1791 
z
M 3481 434 
Q 3481 -459 3084 -895 
Q 2688 -1331 1869 -1331 
Q 1566 -1331 1297 -1286 
Q 1028 -1241 775 -1147 
L 775 -588 
Q 1028 -725 1275 -790 
Q 1522 -856 1778 -856 
Q 2344 -856 2625 -561 
Q 2906 -266 2906 331 
L 2906 616 
Q 2728 306 2450 153 
Q 2172 0 1784 0 
Q 1141 0 747 490 
Q 353 981 353 1791 
Q 353 2603 747 3093 
Q 1141 3584 1784 3584 
Q 2172 3584 2450 3431 
Q 2728 3278 2906 2969 
L 2906 3500 
L 3481 3500 
L 3481 434 
z
" transform="scale(0.015625)"/>
       <path id="DejaVuSans-20" transform="scale(0.015625)"/>
       <path id="DejaVuSans-4d" d="M 628 4666 
L 1569 4666 
L 2759 1491 
L 3956 4666 
L 4897 4666 
L 4897 0 
L 4281 0 
L 4281 4097 
L 3078 897 
L 2444 897 
L 1241 4097 
L 1241 0 
L 628 0 
L 628 4666 
z
" transform="scale(0.015625)"/>
       <path id="DejaVuSans-41" d="M 2188 4044 
L 1331 1722 
L 3047 1722 
L 2188 4044 
z
M 1831 4666 
L 2547 4666 
L 4325 0 
L 3669 0 
L 3244 1197 
L 1141 1197 
L 716 0 
L 50 0 
L 1831 4666 
z
" transform="scale(0.015625)"/>
       <path id="DejaVuSans-45" d="M 628 4666 
L 3578 4666 
L 3578 4134 
L 1259 4134 
L 1259 2753 
L 3481 2753 
L 3481 2222 
L 1259 2222 
L 1259 531 
L 3634 531 
L 3634 0 
L 628 0 
L 628 4666 
z
" transform="scale(0.015625)"/>
       <path id="DejaVuSans-6c" d="M 603 4863 
L 1178 4863 
L 1178 0 
L 603 0 
L 603 4863 
z
" transform="scale(0.015625)"/>
      </defs>
      <use xlink:href="#DejaVuSans-54"/>
      <use xlink:href="#DejaVuSans-72" x="46.333984"/>
      <use xlink:href="#DejaVuSans-61" x="87.447266"/>
      <use xlink:href="#DejaVuSans-69" x="148.726562"/>
      <use xlink:href="#DejaVuSans-6e" x="176.509766"/>
      <use xlink:href="#DejaVuSans-69" x="239.888672"/>
      <use xlink:href="#DejaVuSans-6e" x="267.671875"/>
      <use xlink:href="#DejaVuSans-67" x="331.050781"/>
      <use xlink:href="#DejaVuSans-20" x="394.527344"/>
      <use xlink:href="#DejaVuSans-4d" x="426.314453"/>
      <use xlink:href="#DejaVuSans-41" x="512.59375"/>
      <use xlink:href="#DejaVuSans-45" x="581.001953"/>
      <use xlink:href="#DejaVuSans-20" x="644.185547"/>
      <use xlink:href="#DejaVuSans-6c" x="675.972656"/>
      <use xlink:href="#DejaVuSans-6f" x="703.755859"/>
      <use xlink:href="#DejaVuSans-73" x="764.9375"/>
      <use xlink:href="#DejaVuSans-73" x="817.037109"/>
     </g>
    </g>
   </g>
   <g id="line2d_11">
    <path d="M 101.029055 -1 
L 101.035846 2.053043 
L 101.609396 57.117959 
L 102.182945 76.616175 
L 103.330044 102.616033 
L 103.903594 108.493871 
L 104.477143 111.603523 
L 105.050693 113.754531 
L 105.624243 120.884199 
L 106.771342 139.20351 
L 107.344891 140.741768 
L 107.918441 143.726877 
L 108.49199 145.712078 
L 109.06554 153.120026 
L 109.639089 154.176326 
L 110.786189 146.611928 
L 111.359738 144.152089 
L 113.080387 168.314246 
L 113.653936 169.672732 
L 114.801036 158.913365 
L 115.374585 156.882916 
L 115.948135 161.503386 
L 116.521684 163.023737 
L 117.095234 167.192096 
L 117.668783 166.320863 
L 118.242333 171.580693 
L 119.389432 177.101887 
L 119.962982 178.894944 
L 120.536531 179.630929 
L 121.110081 178.55861 
L 121.68363 178.771111 
L 122.25718 174.83722 
L 122.830729 181.046835 
L 123.404279 184.16494 
L 123.977829 188.554018 
L 125.124928 194.556 
L 125.698477 198.028363 
L 126.272027 198.217476 
L 126.845576 199.861291 
L 127.419126 201.954396 
L 127.992676 203.350076 
L 128.566225 204.262497 
L 129.139775 204.883111 
L 129.713324 201.184929 
L 130.286874 194.02861 
L 130.860423 189.376703 
L 131.433973 193.981691 
L 132.581072 206.894924 
L 133.154622 197.053974 
L 133.728171 192.445149 
L 134.301721 190.598662 
L 134.87527 199.694555 
L 135.44882 201.857374 
L 136.02237 202.659462 
L 136.595919 207.606384 
L 137.169469 214.175301 
L 137.743018 217.382047 
L 138.890117 215.389005 
L 139.463667 216.799322 
L 140.037216 217.534576 
L 140.610766 217.901691 
L 141.184316 220.005376 
L 141.757865 217.712619 
L 142.331415 217.154716 
L 142.904964 215.576248 
L 143.478514 219.738874 
L 144.052063 219.435012 
L 144.625613 221.919596 
L 145.199163 219.089597 
L 145.772712 221.502809 
L 146.346262 219.943591 
L 146.919811 222.071594 
L 147.493361 222.13764 
L 148.06691 223.457766 
L 149.21401 227.452152 
L 149.787559 225.079868 
L 150.361109 224.854501 
L 150.934658 221.900386 
L 151.508208 224.667781 
L 152.081757 221.381821 
L 152.655307 220.26788 
L 153.228856 214.561212 
L 153.802406 213.519248 
L 154.375956 217.879218 
L 154.949505 220.829148 
L 155.523055 216.865746 
L 156.096604 206.36664 
L 156.670154 198.150308 
L 157.243703 200.423948 
L 157.817253 207.727922 
L 158.390803 218.479303 
L 159.537902 233.482775 
L 160.111451 236.791066 
L 160.685001 236.488498 
L 161.25855 235.314382 
L 161.8321 237.480876 
L 162.40565 237.549765 
L 162.979199 242.799613 
L 163.552749 241.772336 
L 164.126298 244.566744 
L 164.699848 240.935395 
L 165.273397 238.745521 
L 165.846947 233.233554 
L 166.420497 231.807834 
L 167.567596 237.731769 
L 168.141145 237.48312 
L 168.714695 238.459366 
L 169.288244 240.347466 
L 169.861794 240.22573 
L 170.435343 236.858255 
L 171.008893 231.260177 
L 171.582443 231.289084 
L 172.155992 233.646691 
L 172.729542 240.322926 
L 173.303091 243.386617 
L 173.876641 245.171506 
L 174.45019 241.660575 
L 175.02374 241.609277 
L 175.59729 239.123235 
L 176.170839 244.119158 
L 176.744389 246.136994 
L 177.317938 247.216283 
L 177.891488 246.460329 
L 178.465037 248.527403 
L 179.612137 253.522377 
L 180.185686 253.13873 
L 180.759236 252.1985 
L 181.332785 250.027318 
L 182.479884 228.353828 
L 183.053434 225.225118 
L 183.626983 234.920654 
L 184.200533 247.889197 
L 184.774083 256.118489 
L 185.347632 257.891216 
L 185.921182 258.25584 
L 186.494731 257.094197 
L 187.068281 256.442165 
L 188.21538 247.323747 
L 188.78893 236.641267 
L 189.936029 223.936916 
L 190.509578 230.872782 
L 191.083128 243.041427 
L 191.656677 247.205338 
L 192.230227 247.99432 
L 192.803777 238.839801 
L 193.377326 238.353413 
L 193.950876 236.536368 
L 194.524425 248.255454 
L 195.671524 261.205941 
L 196.245074 257.517244 
L 196.818624 260.087224 
L 197.392173 259.786238 
L 197.965723 263.029473 
L 198.539272 258.98357 
L 199.112822 251.965811 
L 199.686371 249.894212 
L 200.259921 252.765703 
L 200.83347 256.761746 
L 201.40702 257.820184 
L 201.98057 253.210478 
L 202.554119 254.280796 
L 203.127669 255.918534 
L 203.701218 258.036467 
L 204.274768 259.541476 
L 204.848317 261.549488 
L 205.421867 266.250319 
L 205.995417 267.275628 
L 206.568966 260.688745 
L 207.142516 257.765244 
L 207.716065 259.38398 
L 208.289615 267.316602 
L 208.863164 268.236368 
L 209.436714 266.779476 
L 210.010264 261.52828 
L 210.583813 257.401446 
L 211.157363 256.974534 
L 211.730912 259.797104 
L 212.304462 266.438742 
L 212.878011 267.585507 
L 213.451561 270.274651 
L 214.02511 270.693599 
L 214.59866 270.425365 
L 215.17221 267.250571 
L 215.745759 265.812582 
L 216.319309 267.806298 
L 216.892858 266.45053 
L 217.466408 265.755653 
L 218.039957 267.464537 
L 218.613507 269.912739 
L 219.187057 267.668982 
L 219.760606 262.806608 
L 220.334156 260.954809 
L 220.907705 265.682642 
L 221.481255 267.352946 
L 222.054804 270.870882 
L 222.628354 269.094292 
L 223.201904 269.289567 
L 223.775453 266.955356 
L 224.349003 272.76138 
L 224.922552 275.716805 
L 225.496102 273.10503 
L 226.069651 269.026857 
L 226.643201 266.117596 
L 227.216751 270.257706 
L 227.7903 270.756717 
L 228.36385 273.92864 
L 228.937399 275.330581 
L 229.510949 271.190043 
L 230.084498 264.14103 
L 230.658048 263.821296 
L 231.231597 268.08047 
L 231.805147 270.800723 
L 232.952246 263.351537 
L 233.525796 266.983764 
L 234.672895 275.384977 
L 235.246444 275.193133 
L 235.819994 275.632793 
L 236.393544 275.402364 
L 236.967093 269.010404 
L 238.114192 261.78036 
L 238.687742 264.425602 
L 239.261291 263.84159 
L 239.834841 264.91912 
L 240.408391 271.117626 
L 240.98194 273.450112 
L 241.55549 278.00391 
L 242.129039 276.058745 
L 242.702589 279.176323 
L 243.849688 263.504465 
L 244.423237 260.602029 
L 244.996787 264.648451 
L 245.570337 270.301075 
L 246.143886 265.855165 
L 246.717436 267.143739 
L 247.864535 278.194639 
L 248.438084 280.541981 
L 249.011634 278.33087 
L 249.585184 279.233789 
L 250.158733 276.75738 
L 250.732283 278.447327 
L 251.305832 278.57964 
L 251.879382 283.112543 
L 252.452931 283.110658 
L 253.026481 284.766403 
L 253.600031 282.734049 
L 254.17358 278.365273 
L 254.74713 278.691889 
L 255.320679 277.010574 
L 255.894229 279.554949 
L 256.467778 278.488645 
L 257.041328 281.506497 
L 257.614878 278.774393 
L 258.188427 272.733634 
L 258.761977 272.588837 
L 259.335526 274.756678 
L 259.909076 275.751999 
L 260.482625 272.456003 
L 261.056175 274.66362 
L 262.203274 285.922823 
L 262.776824 286.390994 
L 263.923923 281.362411 
L 264.497472 277.569295 
L 265.071022 281.160509 
L 265.644571 282.336239 
L 266.218121 284.477762 
L 266.791671 279.352207 
L 267.36522 275.710397 
L 267.93877 275.211985 
L 268.512319 278.952419 
L 269.085869 281.850185 
L 269.659418 283.797166 
L 270.232968 282.399644 
L 271.380067 286.933247 
L 271.953617 287.955743 
L 272.527166 284.310943 
L 273.100716 283.891548 
L 273.674265 285.638014 
L 274.247815 284.642177 
L 274.821364 282.247526 
L 275.394914 275.385396 
L 276.542013 270.655356 
L 277.115563 275.940688 
L 278.262662 283.871453 
L 278.836211 284.613705 
L 279.409761 285.018108 
L 279.983311 285.985665 
L 280.55686 288.765847 
L 281.13041 286.237072 
L 281.703959 287.06985 
L 282.277509 286.004777 
L 282.851058 290.422624 
L 283.424608 288.287332 
L 284.571707 291.932803 
L 285.145257 293.001478 
L 285.718806 293.038758 
L 286.292356 285.788371 
L 286.865905 273.819908 
L 287.439455 269.7121 
L 288.586554 281.079184 
L 289.160104 281.830815 
L 289.733653 282.85565 
L 290.307203 288.548952 
L 290.880752 292.15768 
L 292.027851 296.404223 
L 292.601401 295.856591 
L 293.7485 287.698303 
L 295.469149 272.461995 
L 297.189798 281.616359 
L 297.763347 275.506412 
L 298.336897 274.820445 
L 298.910446 275.128318 
L 300.057545 280.53134 
L 300.631095 281.542651 
L 301.204645 285.406899 
L 301.778194 285.455583 
L 302.351744 291.051479 
L 302.925293 290.168034 
L 303.498843 292.992179 
L 304.072392 294.186778 
L 304.645942 296.596632 
L 305.219491 292.931637 
L 305.793041 290.931235 
L 306.366591 291.116238 
L 306.94014 291.162628 
L 307.51369 288.760149 
L 308.087239 288.30054 
L 308.660789 292.305336 
L 309.234338 292.596457 
L 310.381438 289.135877 
L 310.954987 282.424544 
L 312.675636 257.06768 
L 313.822735 270.124719 
L 314.396285 284.627322 
L 314.969834 286.566388 
L 315.543384 289.959761 
L 316.116933 284.752054 
L 316.690483 277.992701 
L 317.264032 277.081919 
L 317.837582 285.618468 
L 318.411132 297.127347 
L 318.984681 299.19244 
L 319.558231 299.104541 
L 320.13178 297.20182 
L 321.278879 294.46209 
L 321.852429 290.612952 
L 322.425978 283.820479 
L 322.999528 283.21455 
L 323.573078 286.073083 
L 324.146627 293.385625 
L 324.720177 294.882976 
L 325.293726 294.613784 
L 326.440825 284.823928 
L 327.014375 283.643247 
L 327.587925 284.743467 
L 328.161474 289.587963 
L 328.735024 290.119252 
L 329.308573 293.099348 
L 329.882123 290.239381 
L 331.029222 293.279602 
L 331.602772 296.980468 
L 332.176321 297.46154 
L 332.749871 296.952323 
L 333.32342 298.240146 
L 333.89697 297.427055 
L 334.470519 298.916606 
L 335.044069 290.320982 
L 335.617618 286.208756 
L 336.191168 276.795916 
L 336.764718 280.304851 
L 337.338267 286.057675 
L 337.911817 295.934425 
L 338.485366 300.094985 
L 339.058916 291.842763 
L 339.632465 286.962792 
L 340.206015 287.394016 
L 341.353114 294.960036 
L 341.926664 294.273418 
L 342.500213 296.738127 
L 343.073763 296.565198 
L 344.220862 298.562221 
L 344.794412 298.180341 
L 345.367961 297.521509 
L 345.941511 299.136339 
L 346.51506 298.613042 
L 347.08861 297.652453 
L 347.662159 297.036279 
L 348.235709 298.086493 
L 348.809259 295.961197 
L 349.382808 297.390644 
L 349.956358 295.731194 
L 350.529907 295.581425 
L 351.103457 293.597479 
L 351.677006 292.854896 
L 352.824105 287.592486 
L 353.397655 288.630693 
L 354.544754 293.553286 
L 355.118304 294.055623 
L 355.691853 291.001905 
L 356.838952 292.512104 
L 357.412502 293.390576 
L 357.986052 291.289224 
L 358.559601 291.269703 
L 359.133151 297.294885 
L 359.7067 297.575293 
L 360.28025 299.129257 
L 360.853799 299.480126 
L 361.427349 303.307711 
L 362.000899 303.900799 
L 362.574448 303.934402 
L 363.147998 301.822251 
L 363.721547 297.05688 
L 364.295097 294.685818 
L 365.442196 288.506333 
L 366.015745 288.044695 
L 366.589295 287.763956 
L 367.162845 292.468827 
L 367.736394 295.149254 
L 368.309944 298.699861 
L 368.883493 300.391155 
L 369.457043 297.752108 
L 370.030592 291.983611 
L 370.604142 290.058783 
L 371.177692 294.445376 
L 371.751241 300.465222 
L 372.324791 303.650941 
L 372.89834 304.063453 
L 373.47189 300.707052 
L 374.618989 295.300053 
L 375.192539 297.780689 
L 375.766088 300.768848 
L 376.339638 303.027921 
L 376.913187 305.756918 
L 377.486737 302.743592 
L 378.060286 302.321659 
L 378.633836 298.554214 
L 379.207386 300.384969 
L 379.780935 294.277801 
L 380.354485 296.03625 
L 380.928034 297.391946 
L 381.501584 304.034297 
L 382.075133 304.202372 
L 382.648683 304.946425 
L 383.222232 303.231519 
L 383.795782 300.895876 
L 384.369332 297.817235 
L 384.942881 299.351946 
L 385.516431 299.604855 
L 386.66353 279.533716 
L 387.237079 281.104782 
L 388.384179 295.595489 
L 388.957728 296.119036 
L 389.531278 300.346542 
L 390.104827 302.122747 
L 390.678377 302.653689 
L 391.251926 301.651723 
L 391.825476 305.314813 
L 392.399026 305.065151 
L 393.546125 276.298568 
L 394.119674 271.808496 
L 394.693224 287.26997 
L 395.266773 296.845644 
L 395.840323 302.54126 
L 396.413872 299.79409 
L 396.987422 301.165532 
L 397.560972 300.475665 
L 398.134521 302.239487 
L 399.28162 293.45544 
L 399.85517 291.126721 
L 401.575819 298.156279 
L 402.149368 296.30062 
L 402.722918 298.561961 
L 403.296467 298.952624 
L 403.870017 302.266134 
L 404.443566 302.203584 
L 405.017116 299.411765 
L 405.590666 295.610749 
L 406.164215 294.851954 
L 406.737765 296.377339 
L 407.311314 298.300346 
L 407.884864 292.127282 
L 408.458413 291.148242 
L 409.031963 289.104464 
L 409.605513 294.996816 
L 410.179062 292.291125 
L 410.752612 291.813196 
L 411.326161 292.668705 
L 411.899711 292.114807 
L 412.47326 293.830178 
L 413.04681 287.950129 
L 413.620359 287.638222 
L 414.193909 286.857895 
L 415.341008 299.536483 
L 415.914558 299.668664 
L 416.488107 299.942057 
L 417.061657 301.870341 
L 417.635206 307.792345 
L 418.208756 309.447198 
L 418.782306 307.793948 
L 419.355855 307.323387 
L 419.929405 308.114601 
L 420.502954 308.116609 
L 421.076504 302.124644 
L 421.650053 292.065847 
L 422.223603 289.971967 
L 422.797153 293.003809 
L 423.370702 300.808869 
L 424.517801 307.559281 
L 425.091351 306.588426 
L 426.23845 291.195021 
L 426.811999 278.968294 
L 427.385549 282.416407 
L 427.959099 287.896573 
L 428.532648 298.623968 
L 429.106198 298.22951 
L 429.679747 291.3028 
L 430.253297 288.405194 
L 430.826846 289.562741 
L 431.400396 298.41955 
L 431.973946 302.7058 
L 432.547495 305.772117 
L 433.121045 306.417615 
L 433.694594 308.77949 
L 434.268144 307.596079 
L 434.841693 306.700064 
L 435.415243 303.604055 
L 435.988793 303.905408 
L 436.562342 304.563265 
L 437.135892 306.11403 
L 437.709441 304.625973 
L 438.282991 303.801579 
L 438.85654 306.244506 
L 439.43009 302.874064 
L 440.00364 300.248056 
L 440.577189 294.452032 
L 441.150739 292.375049 
L 441.724288 292.379756 
L 442.297838 294.129134 
L 442.871387 293.795724 
L 443.444937 295.868377 
L 444.018486 296.849307 
L 444.592036 302.095569 
L 445.165586 301.862176 
L 445.739135 303.487228 
L 446.312685 306.151101 
L 446.886234 309.833827 
L 447.459784 310.415664 
L 448.033333 308.516778 
L 449.180433 303.928502 
L 449.753982 305.244854 
L 450.327532 305.51516 
L 450.901081 304.024409 
L 451.474631 304.531169 
L 452.04818 305.599593 
L 453.19528 308.98953 
L 453.768829 307.792202 
L 454.342379 308.467782 
L 454.915928 302.719506 
L 455.489478 304.262906 
L 456.063027 300.624996 
L 456.636577 302.586392 
L 457.210126 297.881521 
L 457.783676 297.793035 
L 458.357226 298.069806 
L 458.930775 299.537279 
L 459.504325 299.161405 
L 460.651424 297.821879 
L 461.224973 301.893505 
L 461.798523 301.981152 
L 462.372073 302.866529 
L 463.519172 307.25968 
L 464.092721 310.046485 
L 465.23982 304.093398 
L 465.81337 305.706799 
L 466.38692 305.775111 
L 466.960469 308.065831 
L 467.534019 302.462996 
L 468.107568 303.371523 
L 468.681118 295.869675 
L 469.828217 286.876385 
L 470.401767 292.509042 
L 470.975316 301.039468 
L 471.548866 305.814113 
L 472.122415 305.29548 
L 472.695965 305.90666 
L 473.269514 304.565869 
L 473.843064 304.797609 
L 474.416613 300.537864 
L 474.990163 300.692183 
L 475.563713 303.512663 
L 476.137262 304.871017 
L 476.710812 305.66906 
L 477.284361 305.707861 
L 477.857911 307.337248 
L 478.43146 305.223769 
L 479.57856 304.044667 
L 480.152109 307.168373 
L 480.725659 301.596957 
L 481.299208 298.134781 
L 481.872758 296.048925 
L 482.446307 292.062447 
L 483.019857 289.640187 
L 483.593407 284.135134 
L 484.166956 288.661955 
L 485.887605 308.554384 
L 486.461154 309.106279 
L 487.034704 307.230953 
L 487.608253 306.44234 
L 488.181803 306.284202 
L 488.755353 310.869579 
L 489.902452 313.809596 
L 490.476001 311.048453 
L 491.049551 310.888542 
L 491.6231 309.356257 
L 492.19665 308.640517 
L 492.7702 307.574788 
L 493.343749 303.385521 
L 494.490848 300.535539 
L 495.064398 304.185878 
L 495.637947 300.8574 
L 496.211497 295.919243 
L 496.785047 292.298476 
L 497.358596 286.942414 
L 497.932146 284.380369 
L 498.505695 285.021101 
L 499.652794 298.583574 
L 500.226344 302.922842 
L 501.373443 309.316057 
L 501.946993 308.713047 
L 502.520542 311.214279 
L 503.094092 310.979113 
L 504.241191 307.376713 
L 504.81474 306.720208 
L 505.38829 308.819427 
L 505.96184 304.417643 
L 506.535389 304.784206 
L 507.108939 306.517366 
L 507.682488 313.124562 
L 508.256038 311.344737 
L 508.829587 308.888801 
L 509.403137 310.170747 
L 509.976687 312.686674 
L 510.550236 314.641804 
L 511.123786 313.120496 
L 511.697335 312.401561 
L 512.270885 311.160343 
L 513.417984 311.706885 
L 513.991534 308.569403 
L 514.565083 307.701731 
L 515.138633 307.587511 
L 515.712182 311.306306 
L 516.859281 301.802252 
L 517.432831 298.520284 
L 518.00638 304.598127 
L 518.57993 309.269545 
L 519.15348 309.939795 
L 519.727029 309.773782 
L 520.300579 306.663618 
L 520.874128 305.717327 
L 521.447678 305.165089 
L 522.021227 307.490224 
L 522.594777 307.982031 
L 523.168327 305.098993 
L 523.741876 307.275033 
L 524.888975 315.883069 
L 525.462525 306.354116 
L 526.036074 303.677126 
L 526.609624 291.871419 
L 527.183174 298.622297 
L 527.756723 300.297508 
L 528.330273 309.085688 
L 528.903822 309.19689 
L 529.477372 307.329583 
L 530.050921 309.34826 
L 530.624471 308.456943 
L 531.198021 309.472761 
L 531.77157 307.895319 
L 532.34512 307.852298 
L 532.918669 305.281666 
L 533.492219 304.824465 
L 534.065768 305.526633 
L 534.639318 301.557342 
L 535.212867 301.278249 
L 535.786417 302.761676 
L 536.359967 309.040592 
L 537.507066 297.772174 
L 538.080615 296.628623 
L 538.654165 304.66833 
L 539.227714 310.070722 
L 539.801264 310.019019 
L 540.374814 306.455097 
L 540.948363 299.592281 
L 541.521913 297.612954 
L 542.095462 300.515342 
L 542.669012 306.195227 
L 543.242561 309.088363 
L 543.816111 307.211984 
L 544.389661 309.612285 
L 544.96321 311.163947 
L 545.53676 315.102117 
L 546.110309 314.669644 
L 547.257408 311.86401 
L 547.830958 312.363726 
L 548.404507 311.662727 
L 548.978057 309.960834 
L 549.551607 309.942933 
L 550.125156 310.454165 
L 550.698706 307.376585 
L 551.272255 305.817664 
L 551.845805 308.491912 
L 552.419354 313.767373 
L 552.992904 312.225543 
L 553.566454 307.032643 
L 554.140003 305.383599 
L 554.713553 307.508999 
L 555.287102 304.659461 
L 555.287102 304.659461 
" clip-path="url(#p73cb82c25b)" style="fill: none; stroke: #ffe699; stroke-width: 2; stroke-linecap: round"/>
   </g>
   <g id="line2d_12">
    <path d="M 102.227907 -1 
L 102.756495 45.290768 
L 103.330044 79.85556 
L 103.903594 95.830844 
L 105.050693 113.208776 
L 106.197792 125.273242 
L 106.771342 127.530758 
L 107.344891 133.770102 
L 107.918441 141.23637 
L 108.49199 150.434315 
L 109.06554 156.280403 
L 109.639089 159.366846 
L 110.212639 160.195112 
L 111.359738 160.10269 
L 112.506837 166.83501 
L 113.080387 169.580662 
L 113.653936 171.262153 
L 114.227486 174.057047 
L 115.374585 177.955241 
L 115.948135 179.716426 
L 116.521684 185.41317 
L 117.095234 189.202765 
L 117.668783 194.982964 
L 118.242333 198.691133 
L 118.815883 203.364692 
L 119.389432 204.736802 
L 119.962982 202.566773 
L 120.536531 201.985956 
L 121.110081 203.18366 
L 121.68363 205.426675 
L 122.25718 206.81075 
L 122.830729 206.61017 
L 123.404279 210.837581 
L 123.977829 212.131904 
L 124.551378 211.793253 
L 125.698477 206.84403 
L 126.272027 208.654823 
L 126.845576 209.488853 
L 127.419126 211.784396 
L 129.139775 220.627475 
L 130.286874 206.889129 
L 130.860423 204.855803 
L 131.433973 211.716525 
L 132.007523 220.203333 
L 132.581072 224.561937 
L 133.728171 228.957066 
L 134.301721 230.389331 
L 134.87527 232.73561 
L 135.44882 234.502954 
L 136.02237 233.606305 
L 136.595919 234.331846 
L 137.169469 235.517344 
L 137.743018 232.196119 
L 138.316568 229.698394 
L 138.890117 230.357989 
L 139.463667 236.097335 
L 140.610766 242.300255 
L 141.184316 244.706274 
L 141.757865 245.115109 
L 142.331415 240.572059 
L 142.904964 234.44465 
L 143.478514 230.049903 
L 144.052063 233.127444 
L 145.199163 245.766192 
L 145.772712 245.988345 
L 146.919811 247.603532 
L 147.493361 250.270695 
L 148.06691 254.794372 
L 149.21401 258.9292 
L 149.787559 257.843773 
L 150.361109 251.980184 
L 150.934658 251.633755 
L 151.508208 251.522039 
L 152.081757 256.208336 
L 152.655307 257.584312 
L 153.228856 259.54988 
L 153.802406 256.929103 
L 154.375956 248.681112 
L 154.949505 248.77544 
L 155.523055 250.287144 
L 156.096604 258.893741 
L 156.670154 261.182763 
L 157.243703 268.002409 
L 157.817253 266.614239 
L 158.390803 266.847079 
L 158.964352 268.414004 
L 159.537902 268.884503 
L 160.111451 268.100434 
L 160.685001 265.851813 
L 161.25855 261.212393 
L 161.8321 259.598253 
L 162.40565 259.334849 
L 162.979199 261.382838 
L 163.552749 262.487484 
L 164.126298 262.73481 
L 164.699848 266.483962 
L 165.273397 264.827725 
L 165.846947 265.568516 
L 166.420497 267.578485 
L 166.994046 270.058658 
L 168.141145 265.889549 
L 168.714695 263.222362 
L 169.861794 268.428394 
L 170.435343 270.574668 
L 171.008893 271.24172 
L 171.582443 270.67387 
L 172.155992 272.323306 
L 172.729542 269.41258 
L 173.303091 272.433251 
L 173.876641 271.865538 
L 174.45019 275.255072 
L 175.02374 276.462419 
L 175.59729 280.463908 
L 176.170839 278.824149 
L 176.744389 277.64592 
L 177.317938 273.735043 
L 177.891488 264.934892 
L 178.465037 259.460108 
L 179.038587 260.476135 
L 179.612137 271.641815 
L 180.185686 279.330467 
L 180.759236 280.514463 
L 181.332785 279.350771 
L 181.906335 276.149127 
L 182.479884 276.672913 
L 183.053434 274.567487 
L 183.626983 274.459654 
L 184.200533 270.434275 
L 184.774083 260.170272 
L 185.347632 252.50479 
L 185.921182 256.431672 
L 186.494731 269.961862 
L 187.068281 269.592823 
L 187.64183 268.155286 
L 188.21538 261.851765 
L 188.78893 264.199312 
L 189.362479 264.583105 
L 189.936029 274.084274 
L 190.509578 280.61117 
L 191.083128 283.008442 
L 191.656677 281.717753 
L 192.230227 278.66744 
L 192.803777 277.923886 
L 193.377326 279.386571 
L 193.950876 284.000976 
L 194.524425 286.78266 
L 195.097975 285.748405 
L 195.671524 287.838186 
L 196.245074 280.852239 
L 197.392173 276.14601 
L 197.965723 281.598528 
L 198.539272 282.989867 
L 199.112822 285.596095 
L 199.686371 282.318392 
L 200.259921 284.268528 
L 200.83347 279.348755 
L 201.40702 284.040212 
L 201.98057 284.680093 
L 202.554119 287.09327 
L 203.127669 287.351383 
L 203.701218 280.216662 
L 204.274768 278.041157 
L 204.848317 274.237765 
L 205.995417 287.249315 
L 206.568966 289.123868 
L 207.142516 289.748358 
L 207.716065 278.852401 
L 208.289615 278.154995 
L 208.863164 276.110288 
L 209.436714 283.608818 
L 210.010264 286.641741 
L 211.157363 283.054687 
L 211.730912 285.415082 
L 212.304462 294.087617 
L 212.878011 298.410449 
L 214.59866 287.62118 
L 215.17221 282.938484 
L 215.745759 275.405633 
L 216.319309 277.890565 
L 216.892858 283.244789 
L 217.466408 283.46814 
L 218.039957 282.057202 
L 218.613507 278.784647 
L 219.187057 285.726984 
L 219.760606 283.743377 
L 220.334156 287.245994 
L 220.907705 286.891208 
L 221.481255 286.135289 
L 222.054804 283.469689 
L 222.628354 279.970466 
L 223.201904 278.364422 
L 223.775453 281.574273 
L 224.922552 290.764486 
L 225.496102 288.671658 
L 226.643201 291.900284 
L 227.216751 292.713318 
L 227.7903 289.311664 
L 228.36385 285.205547 
L 229.510949 289.895801 
L 230.084498 288.791835 
L 230.658048 284.163379 
L 231.231597 281.130789 
L 231.805147 281.516778 
L 232.378697 285.476539 
L 232.952246 287.007381 
L 233.525796 290.042815 
L 234.099345 289.061184 
L 235.819994 298.586877 
L 236.393544 299.449107 
L 236.967093 300.834438 
L 237.540643 299.8651 
L 238.114192 297.399723 
L 238.687742 289.518035 
L 239.261291 283.866885 
L 239.834841 286.382825 
L 240.408391 294.233274 
L 240.98194 294.889285 
L 241.55549 293.764338 
L 242.129039 289.462045 
L 242.702589 289.857061 
L 243.276138 276.733371 
L 243.849688 277.122607 
L 244.423237 279.941952 
L 244.996787 291.253569 
L 245.570337 292.4901 
L 246.143886 293.226739 
L 246.717436 292.750868 
L 247.290985 292.9961 
L 247.864535 284.846381 
L 249.011634 261.948287 
L 249.585184 262.737326 
L 250.158733 265.907884 
L 251.879382 292.096073 
L 252.452931 292.45441 
L 253.600031 293.960235 
L 254.17358 296.593646 
L 254.74713 295.730059 
L 255.320679 295.1814 
L 255.894229 292.929024 
L 256.467778 293.133838 
L 257.041328 290.321915 
L 257.614878 292.137535 
L 258.188427 291.461132 
L 258.761977 293.780379 
L 259.335526 287.576134 
L 260.482625 272.717605 
L 261.056175 279.699406 
L 261.629724 289.457904 
L 262.203274 296.237065 
L 262.776824 296.226621 
L 263.350373 292.40198 
L 263.923923 286.145543 
L 264.497472 269.389219 
L 265.071022 265.993937 
L 265.644571 271.023639 
L 266.218121 284.33595 
L 266.791671 293.265377 
L 267.36522 292.732457 
L 268.512319 280.875546 
L 269.085869 279.001084 
L 269.659418 284.340597 
L 270.232968 287.722596 
L 270.806518 289.098194 
L 271.380067 292.691992 
L 271.953617 291.782644 
L 272.527166 294.943311 
L 273.100716 297.218212 
L 273.674265 302.911729 
L 274.247815 301.959519 
L 274.821364 303.057503 
L 275.394914 300.10316 
L 275.968464 299.864571 
L 276.542013 300.86733 
L 277.115563 299.600795 
L 277.689112 301.762507 
L 278.262662 299.065478 
L 278.836211 299.575223 
L 279.409761 299.279204 
L 279.983311 301.826982 
L 280.55686 301.495802 
L 281.13041 303.029888 
L 281.703959 292.625654 
L 282.277509 290.803891 
L 282.851058 287.117934 
L 283.424608 294.345154 
L 283.998158 293.88348 
L 284.571707 289.997748 
L 285.145257 285.080755 
L 285.718806 275.964638 
L 286.292356 278.703402 
L 286.865905 284.163279 
L 287.439455 297.287867 
L 288.013005 301.768982 
L 288.586554 303.569283 
L 289.160104 302.714618 
L 289.733653 304.774195 
L 290.307203 302.248667 
L 290.880752 301.213835 
L 291.454302 298.604022 
L 292.027851 300.850934 
L 292.601401 300.551892 
L 293.174951 298.3733 
L 293.7485 285.58707 
L 294.32205 283.81446 
L 294.895599 285.592607 
L 295.469149 298.44725 
L 296.042698 304.938449 
L 296.616248 307.650869 
L 297.189798 308.28552 
L 298.336897 296.666055 
L 298.910446 295.019616 
L 299.483996 289.85094 
L 300.057545 290.030745 
L 300.631095 282.326952 
L 301.204645 285.806698 
L 301.778194 283.678735 
L 302.351744 294.876825 
L 302.925293 302.057565 
L 303.498843 303.466231 
L 304.072392 287.19628 
L 304.645942 280.009782 
L 305.219491 280.629438 
L 305.793041 295.13085 
L 306.366591 301.048008 
L 306.94014 301.221265 
L 307.51369 301.511918 
L 308.660789 304.842691 
L 309.234338 303.955885 
L 309.807888 304.357126 
L 310.381438 301.516178 
L 310.954987 300.979163 
L 311.528537 297.217701 
L 312.102086 300.554438 
L 312.675636 296.248416 
L 313.249185 297.646666 
L 313.822735 298.388343 
L 314.396285 304.431346 
L 315.543384 304.429193 
L 316.116933 305.431074 
L 316.690483 307.891817 
L 317.264032 306.211377 
L 317.837582 302.585494 
L 318.411132 301.057325 
L 318.984681 302.498619 
L 319.558231 303.606773 
L 320.13178 298.232572 
L 320.70533 296.275907 
L 321.278879 290.645035 
L 321.852429 291.224498 
L 322.425978 289.976834 
L 322.999528 294.285234 
L 323.573078 297.012484 
L 324.146627 302.728888 
L 324.720177 304.730741 
L 325.293726 305.664072 
L 325.867276 305.535555 
L 326.440825 304.337368 
L 327.587925 294.37789 
L 328.161474 291.369449 
L 328.735024 292.612565 
L 329.308573 290.182446 
L 330.455672 298.713143 
L 331.029222 304.367671 
L 331.602772 304.496882 
L 332.176321 305.819005 
L 332.749871 305.412874 
L 333.32342 302.012469 
L 333.89697 300.026451 
L 334.470519 295.922903 
L 335.044069 295.293996 
L 335.617618 293.511138 
L 336.191168 296.367089 
L 336.764718 300.841786 
L 337.338267 304.059522 
L 337.911817 301.951913 
L 338.485366 302.088206 
L 339.058916 301.812632 
L 339.632465 308.200832 
L 340.206015 307.173552 
L 340.779565 307.537676 
L 341.353114 305.207436 
L 342.500213 304.893007 
L 343.073763 302.958762 
L 343.647312 302.020983 
L 344.220862 297.830613 
L 344.794412 295.359904 
L 345.367961 293.976564 
L 345.941511 299.471237 
L 346.51506 302.586803 
L 347.08861 302.066109 
L 347.662159 299.741442 
L 348.235709 299.875708 
L 348.809259 299.60681 
L 349.382808 296.230243 
L 349.956358 294.670156 
L 350.529907 297.622313 
L 351.103457 299.633474 
L 351.677006 300.938725 
L 352.250556 302.725768 
L 352.824105 306.518455 
L 353.397655 311.376189 
L 353.971205 309.883718 
L 354.544754 304.647651 
L 355.118304 294.951061 
L 355.691853 292.511047 
L 356.265403 297.854151 
L 356.838952 304.895722 
L 357.412502 307.009655 
L 357.986052 294.94259 
L 358.559601 291.323711 
L 359.133151 290.707204 
L 359.7067 302.988979 
L 360.28025 307.346239 
L 360.853799 303.777516 
L 361.427349 290.132314 
L 362.000899 282.659835 
L 362.574448 285.524165 
L 363.147998 296.843349 
L 363.721547 304.952907 
L 364.868646 308.156494 
L 365.442196 308.380055 
L 366.015745 310.895223 
L 366.589295 310.583579 
L 367.162845 310.787545 
L 367.736394 308.616836 
L 368.309944 308.065801 
L 368.883493 305.598998 
L 369.457043 306.339908 
L 370.030592 305.191932 
L 370.604142 306.567349 
L 371.177692 304.095329 
L 371.751241 303.147449 
L 372.324791 301.116097 
L 372.89834 301.505052 
L 373.47189 299.132292 
L 374.045439 294.958816 
L 374.618989 299.123598 
L 375.766088 310.529665 
L 376.339638 307.562234 
L 376.913187 307.634957 
L 377.486737 307.90155 
L 378.633836 304.261774 
L 379.207386 304.562374 
L 379.780935 306.018158 
L 380.354485 306.812626 
L 381.501584 309.568221 
L 382.075133 308.098367 
L 382.648683 305.563777 
L 383.222232 305.094686 
L 383.795782 304.132688 
L 384.369332 305.369062 
L 384.942881 307.39989 
L 385.516431 312.095358 
L 386.08998 311.794161 
L 386.66353 306.973388 
L 387.237079 303.189491 
L 387.810629 304.101671 
L 388.384179 306.93279 
L 388.957728 308.178165 
L 389.531278 306.483284 
L 390.104827 306.460672 
L 390.678377 307.160586 
L 391.251926 303.429833 
L 391.825476 298.737692 
L 392.399026 297.076574 
L 392.972575 298.096713 
L 393.546125 298.737224 
L 394.119674 297.921977 
L 394.693224 300.687822 
L 395.266773 306.901031 
L 395.840323 309.803929 
L 396.413872 311.168921 
L 396.987422 311.017113 
L 397.560972 311.892849 
L 398.134521 306.236444 
L 398.708071 296.990947 
L 399.28162 292.622312 
L 399.85517 293.192032 
L 400.428719 299.365685 
L 401.002269 303.113933 
L 401.575819 301.576693 
L 402.149368 297.57808 
L 402.722918 292.347778 
L 403.870017 301.981241 
L 404.443566 302.756067 
L 405.017116 303.244105 
L 405.590666 300.804144 
L 406.737765 303.321115 
L 407.311314 306.8109 
L 407.884864 307.450509 
L 408.458413 304.664244 
L 409.031963 299.469741 
L 409.605513 297.173422 
L 410.179062 296.82293 
L 410.752612 297.866264 
L 411.326161 300.129889 
L 411.899711 304.067256 
L 412.47326 306.944468 
L 413.04681 307.925597 
L 413.620359 304.510072 
L 414.193909 304.36648 
L 414.767459 303.147267 
L 415.341008 305.45456 
L 415.914558 302.828455 
L 416.488107 305.279059 
L 417.061657 303.404872 
L 417.635206 307.027434 
L 418.208756 307.399902 
L 418.782306 310.531833 
L 420.502954 306.155015 
L 421.076504 306.227583 
L 421.650053 305.969205 
L 422.223603 302.454065 
L 422.797153 305.700334 
L 423.370702 306.343894 
L 423.944252 309.219202 
L 425.091351 306.714589 
L 425.6649 306.679714 
L 426.23845 307.706763 
L 426.811999 310.915403 
L 427.385549 309.568488 
L 427.959099 307.206112 
L 428.532648 299.628919 
L 429.106198 300.608886 
L 429.679747 297.634223 
L 430.253297 304.535249 
L 430.826846 306.292103 
L 431.400396 311.493737 
L 431.973946 309.580452 
L 432.547495 308.496851 
L 433.121045 309.177123 
L 433.694594 311.95128 
L 434.841693 309.893615 
L 435.415243 310.53625 
L 435.988793 308.925223 
L 436.562342 309.419274 
L 437.135892 305.683018 
L 438.282991 293.75093 
L 438.85654 294.565182 
L 439.43009 301.433894 
L 440.00364 299.056316 
L 440.577189 300.599367 
L 441.150739 303.225771 
L 441.724288 311.243128 
L 442.297838 311.493513 
L 442.871387 300.950503 
L 443.444937 298.08692 
L 444.018486 298.886656 
L 444.592036 310.033492 
L 445.165586 307.219365 
L 445.739135 299.873383 
L 446.312685 296.904646 
L 446.886234 300.129127 
L 447.459784 306.822969 
L 448.033333 307.951047 
L 448.606883 309.412186 
L 449.180433 309.740969 
L 449.753982 311.028114 
L 450.327532 310.981595 
L 450.901081 308.620643 
L 451.474631 306.907515 
L 452.04818 307.749625 
L 452.62173 310.854704 
L 453.768829 314.140236 
L 454.342379 312.650662 
L 454.915928 311.53052 
L 455.489478 307.60298 
L 456.636577 303.744416 
L 457.210126 305.016529 
L 457.783676 305.68852 
L 458.357226 307.035749 
L 458.930775 306.419396 
L 459.504325 302.07281 
L 460.077874 300.147958 
L 460.651424 302.666796 
L 461.224973 309.281545 
L 461.798523 312.633524 
L 462.372073 311.950061 
L 462.945622 312.553942 
L 464.092721 308.278083 
L 464.666271 301.107337 
L 465.81337 302.167495 
L 466.38692 307.253751 
L 466.960469 307.404584 
L 467.534019 305.047654 
L 468.107568 297.222222 
L 468.681118 295.474677 
L 469.254667 297.502089 
L 469.828217 304.930602 
L 470.401767 307.677916 
L 470.975316 308.548568 
L 471.548866 306.608285 
L 472.122415 306.206626 
L 472.695965 308.170001 
L 473.269514 311.025813 
L 473.843064 309.946233 
L 474.416613 307.704638 
L 474.990163 306.77357 
L 475.563713 309.247844 
L 476.137262 310.14801 
L 476.710812 311.5305 
L 477.284361 312.605445 
L 477.857911 312.816688 
L 478.43146 314.137034 
L 479.00501 313.567567 
L 479.57856 312.244173 
L 480.152109 311.820634 
L 480.725659 311.095603 
L 481.299208 313.75524 
L 481.872758 309.552111 
L 482.446307 304.458988 
L 483.019857 292.983798 
L 483.593407 287.719692 
L 484.166956 288.101742 
L 484.740506 295.778092 
L 485.314055 301.553213 
L 485.887605 295.656696 
L 486.461154 293.249133 
L 487.034704 296.684172 
L 487.608253 306.961919 
L 488.181803 313.370809 
L 488.755353 313.800814 
L 489.328902 315.784483 
L 489.902452 314.671492 
L 490.476001 314.07886 
L 491.6231 309.935145 
L 492.7702 300.993257 
L 493.343749 301.374177 
L 494.490848 307.587163 
L 495.637947 311.320306 
L 496.211497 315.006713 
L 496.785047 316.675232 
L 497.932146 315.220388 
L 498.505695 312.419057 
L 499.079245 312.707381 
L 499.652794 311.071353 
L 500.226344 314.656375 
L 500.799894 312.40749 
L 501.373443 314.158031 
L 501.946993 309.839857 
L 502.520542 308.660129 
L 503.094092 308.011924 
L 503.667641 310.779552 
L 504.241191 315.105507 
L 504.81474 316.04582 
L 505.38829 313.730129 
L 505.96184 310.347732 
L 506.535389 308.487414 
L 507.108939 307.91158 
L 507.682488 310.205448 
L 508.256038 310.215516 
L 508.829587 308.570483 
L 509.403137 303.705657 
L 509.976687 295.020547 
L 510.550236 292.629908 
L 511.123786 295.860143 
L 511.697335 303.784891 
L 512.270885 309.744258 
L 512.844434 309.576106 
L 513.417984 312.076349 
L 513.991534 311.100336 
L 514.565083 312.66894 
L 515.138633 311.454844 
L 515.712182 308.729314 
L 516.285732 306.965597 
L 516.859281 306.891078 
L 517.432831 308.521069 
L 518.00638 306.391716 
L 518.57993 298.432712 
L 519.15348 294.135964 
L 519.727029 297.131996 
L 520.300579 306.752972 
L 520.874128 312.354755 
L 521.447678 313.434972 
L 522.021227 311.614859 
L 523.168327 312.07719 
L 523.741876 305.326275 
L 524.315426 300.325247 
L 524.888975 299.763899 
L 525.462525 307.136064 
L 526.036074 312.817407 
L 526.609624 311.089369 
L 527.183174 310.196358 
L 527.756723 310.916626 
L 528.330273 313.248826 
L 528.903822 313.318758 
L 529.477372 313.925428 
L 530.050921 314.217105 
L 531.198021 315.231656 
L 531.77157 312.081659 
L 532.34512 307.240928 
L 532.918669 303.6649 
L 533.492219 305.410986 
L 534.065768 309.734489 
L 534.639318 311.448988 
L 535.212867 311.044897 
L 535.786417 310.451897 
L 536.359967 307.968402 
L 536.933516 307.731491 
L 537.507066 307.801183 
L 538.080615 310.067649 
L 538.654165 312.855997 
L 539.227714 313.127526 
L 540.374814 311.398693 
L 540.948363 311.954663 
L 541.521913 311.222832 
L 542.669012 300.726639 
L 543.242561 298.860388 
L 543.816111 300.647118 
L 544.389661 306.632416 
L 544.96321 309.43756 
L 546.110309 312.530152 
L 547.257408 317.939242 
L 547.830958 316.204182 
L 548.404507 315.167724 
L 548.978057 314.703312 
L 549.551607 314.900382 
L 550.125156 315.335589 
L 550.698706 315.091273 
L 551.272255 315.572712 
L 551.845805 313.446239 
L 552.419354 313.169552 
L 552.992904 310.654776 
L 554.140003 303.665764 
L 554.713553 302.410489 
L 555.287102 302.866903 
L 555.287102 302.866903 
" clip-path="url(#p73cb82c25b)" style="fill: none; stroke: #00b0f0; stroke-width: 2; stroke-linecap: round"/>
   </g>
   <g id="patch_3">
    <path d="M 75.914375 348.198281 
L 75.914375 15.558281 
" style="fill: none; stroke: #262626; stroke-width: 1.25; stroke-linejoin: miter; stroke-linecap: square"/>
   </g>
   <g id="patch_4">
    <path d="M 75.914375 348.198281 
L 578.114375 348.198281 
" style="fill: none; stroke: #262626; stroke-width: 1.25; stroke-linejoin: miter; stroke-linecap: square"/>
   </g>
   <g id="legend_1">
    <g id="patch_5">
     <path d="M 162.754375 97.742031 
L 562.714375 97.742031 
Q 567.114375 97.742031 567.114375 93.342031 
L 567.114375 30.958281 
Q 567.114375 26.558281 562.714375 26.558281 
L 162.754375 26.558281 
Q 158.354375 26.558281 158.354375 30.958281 
L 158.354375 93.342031 
Q 158.354375 97.742031 162.754375 97.742031 
z
" style="fill: #ffffff; opacity: 0.8; stroke: #cccccc; stroke-linejoin: miter"/>
    </g>
    <g id="line2d_13">
     <path d="M 167.154375 44.374844 
L 189.154375 44.374844 
L 211.154375 44.374844 
" style="fill: none; stroke: #ffe699; stroke-width: 2; stroke-linecap: round"/>
    </g>
    <g id="text_13">
     <!-- Without AC-awareness ($\alpha = 0 $) -->
     <g style="fill: #262626" transform="translate(228.754375 52.074844) scale(0.22 -0.22)">
      <defs>
       <path id="DejaVuSans-57" d="M 213 4666 
L 850 4666 
L 1831 722 
L 2809 4666 
L 3519 4666 
L 4500 722 
L 5478 4666 
L 6119 4666 
L 4947 0 
L 4153 0 
L 3169 4050 
L 2175 0 
L 1381 0 
L 213 4666 
z
" transform="scale(0.015625)"/>
       <path id="DejaVuSans-74" d="M 1172 4494 
L 1172 3500 
L 2356 3500 
L 2356 3053 
L 1172 3053 
L 1172 1153 
Q 1172 725 1289 603 
Q 1406 481 1766 481 
L 2356 481 
L 2356 0 
L 1766 0 
Q 1100 0 847 248 
Q 594 497 594 1153 
L 594 3053 
L 172 3053 
L 172 3500 
L 594 3500 
L 594 4494 
L 1172 4494 
z
" transform="scale(0.015625)"/>
       <path id="DejaVuSans-75" d="M 544 1381 
L 544 3500 
L 1119 3500 
L 1119 1403 
Q 1119 906 1312 657 
Q 1506 409 1894 409 
Q 2359 409 2629 706 
Q 2900 1003 2900 1516 
L 2900 3500 
L 3475 3500 
L 3475 0 
L 2900 0 
L 2900 538 
Q 2691 219 2414 64 
Q 2138 -91 1772 -91 
Q 1169 -91 856 284 
Q 544 659 544 1381 
z
M 1991 3584 
L 1991 3584 
z
" transform="scale(0.015625)"/>
       <path id="DejaVuSans-43" d="M 4122 4306 
L 4122 3641 
Q 3803 3938 3442 4084 
Q 3081 4231 2675 4231 
Q 1875 4231 1450 3742 
Q 1025 3253 1025 2328 
Q 1025 1406 1450 917 
Q 1875 428 2675 428 
Q 3081 428 3442 575 
Q 3803 722 4122 1019 
L 4122 359 
Q 3791 134 3420 21 
Q 3050 -91 2638 -91 
Q 1578 -91 968 557 
Q 359 1206 359 2328 
Q 359 3453 968 4101 
Q 1578 4750 2638 4750 
Q 3056 4750 3426 4639 
Q 3797 4528 4122 4306 
z
" transform="scale(0.015625)"/>
       <path id="DejaVuSans-2d" d="M 313 2009 
L 1997 2009 
L 1997 1497 
L 313 1497 
L 313 2009 
z
" transform="scale(0.015625)"/>
       <path id="DejaVuSans-77" d="M 269 3500 
L 844 3500 
L 1563 769 
L 2278 3500 
L 2956 3500 
L 3675 769 
L 4391 3500 
L 4966 3500 
L 4050 0 
L 3372 0 
L 2619 2869 
L 1863 0 
L 1184 0 
L 269 3500 
z
" transform="scale(0.015625)"/>
       <path id="DejaVuSans-28" d="M 1984 4856 
Q 1566 4138 1362 3434 
Q 1159 2731 1159 2009 
Q 1159 1288 1364 580 
Q 1569 -128 1984 -844 
L 1484 -844 
Q 1016 -109 783 600 
Q 550 1309 550 2009 
Q 550 2706 781 3412 
Q 1013 4119 1484 4856 
L 1984 4856 
z
" transform="scale(0.015625)"/>
       <path id="DejaVuSans-Oblique-3b1" d="M 2619 1628 
L 2622 2350 
Q 2625 3088 2069 3091 
Q 1653 3094 1394 2747 
Q 1069 2319 959 1747 
Q 825 1059 994 731 
Q 1169 397 1547 397 
Q 1966 397 2319 1063 
L 2619 1628 
z
M 2166 3578 
Q 3141 3594 3128 2584 
Q 3128 2584 3616 3500 
L 4128 3500 
L 3119 1603 
L 3109 919 
Q 3109 766 3194 638 
Q 3291 488 3391 488 
L 3669 488 
L 3575 0 
L 3228 0 
Q 2934 0 2722 263 
Q 2622 394 2619 669 
Q 2416 334 2066 50 
Q 1900 -81 1453 -78 
Q 722 -72 456 397 
Q 184 884 353 1747 
Q 534 2675 1009 3097 
Q 1544 3569 2166 3578 
z
" transform="scale(0.015625)"/>
       <path id="DejaVuSans-3d" d="M 678 2906 
L 4684 2906 
L 4684 2381 
L 678 2381 
L 678 2906 
z
M 678 1631 
L 4684 1631 
L 4684 1100 
L 678 1100 
L 678 1631 
z
" transform="scale(0.015625)"/>
       <path id="DejaVuSans-29" d="M 513 4856 
L 1013 4856 
Q 1481 4119 1714 3412 
Q 1947 2706 1947 2009 
Q 1947 1309 1714 600 
Q 1481 -109 1013 -844 
L 513 -844 
Q 928 -128 1133 580 
Q 1338 1288 1338 2009 
Q 1338 2731 1133 3434 
Q 928 4138 513 4856 
z
" transform="scale(0.015625)"/>
      </defs>
      <use xlink:href="#DejaVuSans-57" transform="translate(0 0.015625)"/>
      <use xlink:href="#DejaVuSans-69" transform="translate(98.876953 0.015625)"/>
      <use xlink:href="#DejaVuSans-74" transform="translate(126.660156 0.015625)"/>
      <use xlink:href="#DejaVuSans-68" transform="translate(165.869141 0.015625)"/>
      <use xlink:href="#DejaVuSans-6f" transform="translate(229.248047 0.015625)"/>
      <use xlink:href="#DejaVuSans-75" transform="translate(290.429688 0.015625)"/>
      <use xlink:href="#DejaVuSans-74" transform="translate(353.808594 0.015625)"/>
      <use xlink:href="#DejaVuSans-20" transform="translate(393.017578 0.015625)"/>
      <use xlink:href="#DejaVuSans-41" transform="translate(424.804688 0.015625)"/>
      <use xlink:href="#DejaVuSans-43" transform="translate(493.212891 0.015625)"/>
      <use xlink:href="#DejaVuSans-2d" transform="translate(563.037109 0.015625)"/>
      <use xlink:href="#DejaVuSans-61" transform="translate(599.121094 0.015625)"/>
      <use xlink:href="#DejaVuSans-77" transform="translate(660.400391 0.015625)"/>
      <use xlink:href="#DejaVuSans-61" transform="translate(742.1875 0.015625)"/>
      <use xlink:href="#DejaVuSans-72" transform="translate(803.466797 0.015625)"/>
      <use xlink:href="#DejaVuSans-65" transform="translate(844.580078 0.015625)"/>
      <use xlink:href="#DejaVuSans-6e" transform="translate(906.103516 0.015625)"/>
      <use xlink:href="#DejaVuSans-65" transform="translate(969.482422 0.015625)"/>
      <use xlink:href="#DejaVuSans-73" transform="translate(1031.005859 0.015625)"/>
      <use xlink:href="#DejaVuSans-73" transform="translate(1083.105469 0.015625)"/>
      <use xlink:href="#DejaVuSans-20" transform="translate(1135.205078 0.015625)"/>
      <use xlink:href="#DejaVuSans-28" transform="translate(1166.992188 0.015625)"/>
      <use xlink:href="#DejaVuSans-Oblique-3b1" transform="translate(1206.005859 0.015625)"/>
      <use xlink:href="#DejaVuSans-3d" transform="translate(1291.40625 0.015625)"/>
      <use xlink:href="#DejaVuSans-30" transform="translate(1394.677734 0.015625)"/>
      <use xlink:href="#DejaVuSans-29" transform="translate(1458.300781 0.015625)"/>
     </g>
    </g>
    <g id="line2d_14">
     <path d="M 167.154375 76.666719 
L 189.154375 76.666719 
L 211.154375 76.666719 
" style="fill: none; stroke: #00b0f0; stroke-width: 2; stroke-linecap: round"/>
    </g>
    <g id="text_14">
     <!-- With AC-awareness($\alpha=1$) -->
     <g style="fill: #262626" transform="translate(228.754375 84.366719) scale(0.22 -0.22)">
      <defs>
       <path id="DejaVuSans-31" d="M 794 531 
L 1825 531 
L 1825 4091 
L 703 3866 
L 703 4441 
L 1819 4666 
L 2450 4666 
L 2450 531 
L 3481 531 
L 3481 0 
L 794 0 
L 794 531 
z
" transform="scale(0.015625)"/>
      </defs>
      <use xlink:href="#DejaVuSans-57" transform="translate(0 0.015625)"/>
      <use xlink:href="#DejaVuSans-69" transform="translate(98.876953 0.015625)"/>
      <use xlink:href="#DejaVuSans-74" transform="translate(126.660156 0.015625)"/>
      <use xlink:href="#DejaVuSans-68" transform="translate(165.869141 0.015625)"/>
      <use xlink:href="#DejaVuSans-20" transform="translate(229.248047 0.015625)"/>
      <use xlink:href="#DejaVuSans-41" transform="translate(261.035156 0.015625)"/>
      <use xlink:href="#DejaVuSans-43" transform="translate(329.443359 0.015625)"/>
      <use xlink:href="#DejaVuSans-2d" transform="translate(399.267578 0.015625)"/>
      <use xlink:href="#DejaVuSans-61" transform="translate(435.351562 0.015625)"/>
      <use xlink:href="#DejaVuSans-77" transform="translate(496.630859 0.015625)"/>
      <use xlink:href="#DejaVuSans-61" transform="translate(578.417969 0.015625)"/>
      <use xlink:href="#DejaVuSans-72" transform="translate(639.697266 0.015625)"/>
      <use xlink:href="#DejaVuSans-65" transform="translate(680.810547 0.015625)"/>
      <use xlink:href="#DejaVuSans-6e" transform="translate(742.333984 0.015625)"/>
      <use xlink:href="#DejaVuSans-65" transform="translate(805.712891 0.015625)"/>
      <use xlink:href="#DejaVuSans-73" transform="translate(867.236328 0.015625)"/>
      <use xlink:href="#DejaVuSans-73" transform="translate(919.335938 0.015625)"/>
      <use xlink:href="#DejaVuSans-28" transform="translate(971.435547 0.015625)"/>
      <use xlink:href="#DejaVuSans-Oblique-3b1" transform="translate(1010.449219 0.015625)"/>
      <use xlink:href="#DejaVuSans-3d" transform="translate(1095.849609 0.015625)"/>
      <use xlink:href="#DejaVuSans-31" transform="translate(1199.121094 0.015625)"/>
      <use xlink:href="#DejaVuSans-29" transform="translate(1262.744141 0.015625)"/>
     </g>
    </g>
   </g>
  </g>
 </g>
 <defs>
  <clipPath id="p73cb82c25b">
   <rect x="75.914375" y="15.558281" width="502.2" height="332.64"/>
  </clipPath>
 </defs>
</svg>
