<?xml version="1.0" encoding="utf-8" standalone="no"?>
<!DOCTYPE svg PUBLIC "-//W3C//DTD SVG 1.1//EN"
  "http://www.w3.org/Graphics/SVG/1.1/DTD/svg11.dtd">
<svg xmlns:xlink="http://www.w3.org/1999/xlink" width="578.3225pt" height="402.059375pt" viewBox="0 0 578.3225 402.059375" xmlns="http://www.w3.org/2000/svg" version="1.1">
 <metadata>
  <rdf:RDF xmlns:dc="http://purl.org/dc/elements/1.1/" xmlns:cc="http://creativecommons.org/ns#" xmlns:rdf="http://www.w3.org/1999/02/22-rdf-syntax-ns#">
   <cc:Work>
    <dc:type rdf:resource="http://purl.org/dc/dcmitype/StillImage"/>
    <dc:date>2024-04-23T14:21:04.355375</dc:date>
    <dc:format>image/svg+xml</dc:format>
    <dc:creator>
     <cc:Agent>
      <dc:title>Matplotlib v3.7.5, https://matplotlib.org/</dc:title>
     </cc:Agent>
    </dc:creator>
   </cc:Work>
  </rdf:RDF>
 </metadata>
 <defs>
  <style type="text/css">*{stroke-linejoin: round; stroke-linecap: butt}</style>
 </defs>
 <g id="figure_1">
  <g id="patch_1">
   <path d="M 0 402.059375 
L 578.3225 402.059375 
L 578.3225 0 
L 0 0 
z
" style="fill: #ffffff"/>
  </g>
  <g id="axes_1">
   <g id="patch_2">
    <path d="M 68.9225 339.84 
L 571.1225 339.84 
L 571.1225 7.2 
L 68.9225 7.2 
z
" style="fill: #ffffff"/>
   </g>
   <g id="matplotlib.axis_1">
    <g id="xtick_1">
     <g id="line2d_1">
      <defs>
       <path id="m5f822154fc" d="M 0 0 
L 0 6 
" style="stroke: #262626; stroke-width: 1.25"/>
      </defs>
      <g>
       <use xlink:href="#m5f822154fc" x="91.749773" y="339.84" style="fill: #262626; stroke: #262626; stroke-width: 1.25"/>
      </g>
     </g>
     <g id="text_1">
      <!-- 0 -->
      <g style="fill: #262626" transform="translate(84.751023 363.056562) scale(0.22 -0.22)">
       <defs>
        <path id="DejaVuSans-30" d="M 2034 4250 
Q 1547 4250 1301 3770 
Q 1056 3291 1056 2328 
Q 1056 1369 1301 889 
Q 1547 409 2034 409 
Q 2525 409 2770 889 
Q 3016 1369 3016 2328 
Q 3016 3291 2770 3770 
Q 2525 4250 2034 4250 
z
M 2034 4750 
Q 2819 4750 3233 4129 
Q 3647 3509 3647 2328 
Q 3647 1150 3233 529 
Q 2819 -91 2034 -91 
Q 1250 -91 836 529 
Q 422 1150 422 2328 
Q 422 3509 836 4129 
Q 1250 4750 2034 4750 
z
" transform="scale(0.015625)"/>
       </defs>
       <use xlink:href="#DejaVuSans-30"/>
      </g>
     </g>
    </g>
    <g id="xtick_2">
     <g id="line2d_2">
      <g>
       <use xlink:href="#m5f822154fc" x="206.172192" y="339.84" style="fill: #262626; stroke: #262626; stroke-width: 1.25"/>
      </g>
     </g>
     <g id="text_2">
      <!-- 200 -->
      <g style="fill: #262626" transform="translate(185.175942 363.056562) scale(0.22 -0.22)">
       <defs>
        <path id="DejaVuSans-32" d="M 1228 531 
L 3431 531 
L 3431 0 
L 469 0 
L 469 531 
Q 828 903 1448 1529 
Q 2069 2156 2228 2338 
Q 2531 2678 2651 2914 
Q 2772 3150 2772 3378 
Q 2772 3750 2511 3984 
Q 2250 4219 1831 4219 
Q 1534 4219 1204 4116 
Q 875 4013 500 3803 
L 500 4441 
Q 881 4594 1212 4672 
Q 1544 4750 1819 4750 
Q 2544 4750 2975 4387 
Q 3406 4025 3406 3419 
Q 3406 3131 3298 2873 
Q 3191 2616 2906 2266 
Q 2828 2175 2409 1742 
Q 1991 1309 1228 531 
z
" transform="scale(0.015625)"/>
       </defs>
       <use xlink:href="#DejaVuSans-32"/>
       <use xlink:href="#DejaVuSans-30" x="63.623047"/>
       <use xlink:href="#DejaVuSans-30" x="127.246094"/>
      </g>
     </g>
    </g>
    <g id="xtick_3">
     <g id="line2d_3">
      <g>
       <use xlink:href="#m5f822154fc" x="320.594612" y="339.84" style="fill: #262626; stroke: #262626; stroke-width: 1.25"/>
      </g>
     </g>
     <g id="text_3">
      <!-- 400 -->
      <g style="fill: #262626" transform="translate(299.598362 363.056562) scale(0.22 -0.22)">
       <defs>
        <path id="DejaVuSans-34" d="M 2419 4116 
L 825 1625 
L 2419 1625 
L 2419 4116 
z
M 2253 4666 
L 3047 4666 
L 3047 1625 
L 3713 1625 
L 3713 1100 
L 3047 1100 
L 3047 0 
L 2419 0 
L 2419 1100 
L 313 1100 
L 313 1709 
L 2253 4666 
z
" transform="scale(0.015625)"/>
       </defs>
       <use xlink:href="#DejaVuSans-34"/>
       <use xlink:href="#DejaVuSans-30" x="63.623047"/>
       <use xlink:href="#DejaVuSans-30" x="127.246094"/>
      </g>
     </g>
    </g>
    <g id="xtick_4">
     <g id="line2d_4">
      <g>
       <use xlink:href="#m5f822154fc" x="435.017032" y="339.84" style="fill: #262626; stroke: #262626; stroke-width: 1.25"/>
      </g>
     </g>
     <g id="text_4">
      <!-- 600 -->
      <g style="fill: #262626" transform="translate(414.020782 363.056562) scale(0.22 -0.22)">
       <defs>
        <path id="DejaVuSans-36" d="M 2113 2584 
Q 1688 2584 1439 2293 
Q 1191 2003 1191 1497 
Q 1191 994 1439 701 
Q 1688 409 2113 409 
Q 2538 409 2786 701 
Q 3034 994 3034 1497 
Q 3034 2003 2786 2293 
Q 2538 2584 2113 2584 
z
M 3366 4563 
L 3366 3988 
Q 3128 4100 2886 4159 
Q 2644 4219 2406 4219 
Q 1781 4219 1451 3797 
Q 1122 3375 1075 2522 
Q 1259 2794 1537 2939 
Q 1816 3084 2150 3084 
Q 2853 3084 3261 2657 
Q 3669 2231 3669 1497 
Q 3669 778 3244 343 
Q 2819 -91 2113 -91 
Q 1303 -91 875 529 
Q 447 1150 447 2328 
Q 447 3434 972 4092 
Q 1497 4750 2381 4750 
Q 2619 4750 2861 4703 
Q 3103 4656 3366 4563 
z
" transform="scale(0.015625)"/>
       </defs>
       <use xlink:href="#DejaVuSans-36"/>
       <use xlink:href="#DejaVuSans-30" x="63.623047"/>
       <use xlink:href="#DejaVuSans-30" x="127.246094"/>
      </g>
     </g>
    </g>
    <g id="xtick_5">
     <g id="line2d_5">
      <g>
       <use xlink:href="#m5f822154fc" x="549.439451" y="339.84" style="fill: #262626; stroke: #262626; stroke-width: 1.25"/>
      </g>
     </g>
     <g id="text_5">
      <!-- 800 -->
      <g style="fill: #262626" transform="translate(528.443201 363.056562) scale(0.22 -0.22)">
       <defs>
        <path id="DejaVuSans-38" d="M 2034 2216 
Q 1584 2216 1326 1975 
Q 1069 1734 1069 1313 
Q 1069 891 1326 650 
Q 1584 409 2034 409 
Q 2484 409 2743 651 
Q 3003 894 3003 1313 
Q 3003 1734 2745 1975 
Q 2488 2216 2034 2216 
z
M 1403 2484 
Q 997 2584 770 2862 
Q 544 3141 544 3541 
Q 544 4100 942 4425 
Q 1341 4750 2034 4750 
Q 2731 4750 3128 4425 
Q 3525 4100 3525 3541 
Q 3525 3141 3298 2862 
Q 3072 2584 2669 2484 
Q 3125 2378 3379 2068 
Q 3634 1759 3634 1313 
Q 3634 634 3220 271 
Q 2806 -91 2034 -91 
Q 1263 -91 848 271 
Q 434 634 434 1313 
Q 434 1759 690 2068 
Q 947 2378 1403 2484 
z
M 1172 3481 
Q 1172 3119 1398 2916 
Q 1625 2713 2034 2713 
Q 2441 2713 2670 2916 
Q 2900 3119 2900 3481 
Q 2900 3844 2670 4047 
Q 2441 4250 2034 4250 
Q 1625 4250 1398 4047 
Q 1172 3844 1172 3481 
z
" transform="scale(0.015625)"/>
       </defs>
       <use xlink:href="#DejaVuSans-38"/>
       <use xlink:href="#DejaVuSans-30" x="63.623047"/>
       <use xlink:href="#DejaVuSans-30" x="127.246094"/>
      </g>
     </g>
    </g>
    <g id="text_6">
     <!-- epochs -->
     <g style="fill: #262626" transform="translate(277.22375 389.868125) scale(0.24 -0.24)">
      <defs>
       <path id="DejaVuSans-65" d="M 3597 1894 
L 3597 1613 
L 953 1613 
Q 991 1019 1311 708 
Q 1631 397 2203 397 
Q 2534 397 2845 478 
Q 3156 559 3463 722 
L 3463 178 
Q 3153 47 2828 -22 
Q 2503 -91 2169 -91 
Q 1331 -91 842 396 
Q 353 884 353 1716 
Q 353 2575 817 3079 
Q 1281 3584 2069 3584 
Q 2775 3584 3186 3129 
Q 3597 2675 3597 1894 
z
M 3022 2063 
Q 3016 2534 2758 2815 
Q 2500 3097 2075 3097 
Q 1594 3097 1305 2825 
Q 1016 2553 972 2059 
L 3022 2063 
z
" transform="scale(0.015625)"/>
       <path id="DejaVuSans-70" d="M 1159 525 
L 1159 -1331 
L 581 -1331 
L 581 3500 
L 1159 3500 
L 1159 2969 
Q 1341 3281 1617 3432 
Q 1894 3584 2278 3584 
Q 2916 3584 3314 3078 
Q 3713 2572 3713 1747 
Q 3713 922 3314 415 
Q 2916 -91 2278 -91 
Q 1894 -91 1617 61 
Q 1341 213 1159 525 
z
M 3116 1747 
Q 3116 2381 2855 2742 
Q 2594 3103 2138 3103 
Q 1681 3103 1420 2742 
Q 1159 2381 1159 1747 
Q 1159 1113 1420 752 
Q 1681 391 2138 391 
Q 2594 391 2855 752 
Q 3116 1113 3116 1747 
z
" transform="scale(0.015625)"/>
       <path id="DejaVuSans-6f" d="M 1959 3097 
Q 1497 3097 1228 2736 
Q 959 2375 959 1747 
Q 959 1119 1226 758 
Q 1494 397 1959 397 
Q 2419 397 2687 759 
Q 2956 1122 2956 1747 
Q 2956 2369 2687 2733 
Q 2419 3097 1959 3097 
z
M 1959 3584 
Q 2709 3584 3137 3096 
Q 3566 2609 3566 1747 
Q 3566 888 3137 398 
Q 2709 -91 1959 -91 
Q 1206 -91 779 398 
Q 353 888 353 1747 
Q 353 2609 779 3096 
Q 1206 3584 1959 3584 
z
" transform="scale(0.015625)"/>
       <path id="DejaVuSans-63" d="M 3122 3366 
L 3122 2828 
Q 2878 2963 2633 3030 
Q 2388 3097 2138 3097 
Q 1578 3097 1268 2742 
Q 959 2388 959 1747 
Q 959 1106 1268 751 
Q 1578 397 2138 397 
Q 2388 397 2633 464 
Q 2878 531 3122 666 
L 3122 134 
Q 2881 22 2623 -34 
Q 2366 -91 2075 -91 
Q 1284 -91 818 406 
Q 353 903 353 1747 
Q 353 2603 823 3093 
Q 1294 3584 2113 3584 
Q 2378 3584 2631 3529 
Q 2884 3475 3122 3366 
z
" transform="scale(0.015625)"/>
       <path id="DejaVuSans-68" d="M 3513 2113 
L 3513 0 
L 2938 0 
L 2938 2094 
Q 2938 2591 2744 2837 
Q 2550 3084 2163 3084 
Q 1697 3084 1428 2787 
Q 1159 2491 1159 1978 
L 1159 0 
L 581 0 
L 581 4863 
L 1159 4863 
L 1159 2956 
Q 1366 3272 1645 3428 
Q 1925 3584 2291 3584 
Q 2894 3584 3203 3211 
Q 3513 2838 3513 2113 
z
" transform="scale(0.015625)"/>
       <path id="DejaVuSans-73" d="M 2834 3397 
L 2834 2853 
Q 2591 2978 2328 3040 
Q 2066 3103 1784 3103 
Q 1356 3103 1142 2972 
Q 928 2841 928 2578 
Q 928 2378 1081 2264 
Q 1234 2150 1697 2047 
L 1894 2003 
Q 2506 1872 2764 1633 
Q 3022 1394 3022 966 
Q 3022 478 2636 193 
Q 2250 -91 1575 -91 
Q 1294 -91 989 -36 
Q 684 19 347 128 
L 347 722 
Q 666 556 975 473 
Q 1284 391 1588 391 
Q 1994 391 2212 530 
Q 2431 669 2431 922 
Q 2431 1156 2273 1281 
Q 2116 1406 1581 1522 
L 1381 1569 
Q 847 1681 609 1914 
Q 372 2147 372 2553 
Q 372 3047 722 3315 
Q 1072 3584 1716 3584 
Q 2034 3584 2315 3537 
Q 2597 3491 2834 3397 
z
" transform="scale(0.015625)"/>
      </defs>
      <use xlink:href="#DejaVuSans-65"/>
      <use xlink:href="#DejaVuSans-70" x="61.523438"/>
      <use xlink:href="#DejaVuSans-6f" x="125"/>
      <use xlink:href="#DejaVuSans-63" x="186.181641"/>
      <use xlink:href="#DejaVuSans-68" x="241.162109"/>
      <use xlink:href="#DejaVuSans-73" x="304.541016"/>
     </g>
    </g>
   </g>
   <g id="matplotlib.axis_2">
    <g id="ytick_1">
     <g id="line2d_6">
      <defs>
       <path id="mf38936da4b" d="M 0 0 
L -6 0 
" style="stroke: #262626; stroke-width: 1.25"/>
      </defs>
      <g>
       <use xlink:href="#mf38936da4b" x="68.9225" y="324.933908" style="fill: #262626; stroke: #262626; stroke-width: 1.25"/>
      </g>
     </g>
     <g id="text_7">
      <!-- 0 -->
      <g style="fill: #262626" transform="translate(48.425 333.292189) scale(0.22 -0.22)">
       <use xlink:href="#DejaVuSans-30"/>
      </g>
     </g>
    </g>
    <g id="ytick_2">
     <g id="line2d_7">
      <g>
       <use xlink:href="#mf38936da4b" x="68.9225" y="234.935408" style="fill: #262626; stroke: #262626; stroke-width: 1.25"/>
      </g>
     </g>
     <g id="text_8">
      <!-- 5 -->
      <g style="fill: #262626" transform="translate(48.425 243.293689) scale(0.22 -0.22)">
       <defs>
        <path id="DejaVuSans-35" d="M 691 4666 
L 3169 4666 
L 3169 4134 
L 1269 4134 
L 1269 2991 
Q 1406 3038 1543 3061 
Q 1681 3084 1819 3084 
Q 2600 3084 3056 2656 
Q 3513 2228 3513 1497 
Q 3513 744 3044 326 
Q 2575 -91 1722 -91 
Q 1428 -91 1123 -41 
Q 819 9 494 109 
L 494 744 
Q 775 591 1075 516 
Q 1375 441 1709 441 
Q 2250 441 2565 725 
Q 2881 1009 2881 1497 
Q 2881 1984 2565 2268 
Q 2250 2553 1709 2553 
Q 1456 2553 1204 2497 
Q 953 2441 691 2322 
L 691 4666 
z
" transform="scale(0.015625)"/>
       </defs>
       <use xlink:href="#DejaVuSans-35"/>
      </g>
     </g>
    </g>
    <g id="ytick_3">
     <g id="line2d_8">
      <g>
       <use xlink:href="#mf38936da4b" x="68.9225" y="144.936908" style="fill: #262626; stroke: #262626; stroke-width: 1.25"/>
      </g>
     </g>
     <g id="text_9">
      <!-- 10 -->
      <g style="fill: #262626" transform="translate(34.4275 153.295189) scale(0.22 -0.22)">
       <defs>
        <path id="DejaVuSans-31" d="M 794 531 
L 1825 531 
L 1825 4091 
L 703 3866 
L 703 4441 
L 1819 4666 
L 2450 4666 
L 2450 531 
L 3481 531 
L 3481 0 
L 794 0 
L 794 531 
z
" transform="scale(0.015625)"/>
       </defs>
       <use xlink:href="#DejaVuSans-31"/>
       <use xlink:href="#DejaVuSans-30" x="63.623047"/>
      </g>
     </g>
    </g>
    <g id="ytick_4">
     <g id="line2d_9">
      <g>
       <use xlink:href="#mf38936da4b" x="68.9225" y="54.938408" style="fill: #262626; stroke: #262626; stroke-width: 1.25"/>
      </g>
     </g>
     <g id="text_10">
      <!-- 15 -->
      <g style="fill: #262626" transform="translate(34.4275 63.296689) scale(0.22 -0.22)">
       <use xlink:href="#DejaVuSans-31"/>
       <use xlink:href="#DejaVuSans-35" x="63.623047"/>
      </g>
     </g>
    </g>
    <g id="text_11">
     <!-- Triplet Loss -->
     <g style="fill: #262626" transform="translate(25.43625 240.52125) rotate(-90) scale(0.24 -0.24)">
      <defs>
       <path id="DejaVuSans-54" d="M -19 4666 
L 3928 4666 
L 3928 4134 
L 2272 4134 
L 2272 0 
L 1638 0 
L 1638 4134 
L -19 4134 
L -19 4666 
z
" transform="scale(0.015625)"/>
       <path id="DejaVuSans-72" d="M 2631 2963 
Q 2534 3019 2420 3045 
Q 2306 3072 2169 3072 
Q 1681 3072 1420 2755 
Q 1159 2438 1159 1844 
L 1159 0 
L 581 0 
L 581 3500 
L 1159 3500 
L 1159 2956 
Q 1341 3275 1631 3429 
Q 1922 3584 2338 3584 
Q 2397 3584 2469 3576 
Q 2541 3569 2628 3553 
L 2631 2963 
z
" transform="scale(0.015625)"/>
       <path id="DejaVuSans-69" d="M 603 3500 
L 1178 3500 
L 1178 0 
L 603 0 
L 603 3500 
z
M 603 4863 
L 1178 4863 
L 1178 4134 
L 603 4134 
L 603 4863 
z
" transform="scale(0.015625)"/>
       <path id="DejaVuSans-6c" d="M 603 4863 
L 1178 4863 
L 1178 0 
L 603 0 
L 603 4863 
z
" transform="scale(0.015625)"/>
       <path id="DejaVuSans-74" d="M 1172 4494 
L 1172 3500 
L 2356 3500 
L 2356 3053 
L 1172 3053 
L 1172 1153 
Q 1172 725 1289 603 
Q 1406 481 1766 481 
L 2356 481 
L 2356 0 
L 1766 0 
Q 1100 0 847 248 
Q 594 497 594 1153 
L 594 3053 
L 172 3053 
L 172 3500 
L 594 3500 
L 594 4494 
L 1172 4494 
z
" transform="scale(0.015625)"/>
       <path id="DejaVuSans-20" transform="scale(0.015625)"/>
       <path id="DejaVuSans-4c" d="M 628 4666 
L 1259 4666 
L 1259 531 
L 3531 531 
L 3531 0 
L 628 0 
L 628 4666 
z
" transform="scale(0.015625)"/>
      </defs>
      <use xlink:href="#DejaVuSans-54"/>
      <use xlink:href="#DejaVuSans-72" x="46.333984"/>
      <use xlink:href="#DejaVuSans-69" x="87.447266"/>
      <use xlink:href="#DejaVuSans-70" x="115.230469"/>
      <use xlink:href="#DejaVuSans-6c" x="178.707031"/>
      <use xlink:href="#DejaVuSans-65" x="206.490234"/>
      <use xlink:href="#DejaVuSans-74" x="268.013672"/>
      <use xlink:href="#DejaVuSans-20" x="307.222656"/>
      <use xlink:href="#DejaVuSans-4c" x="339.009766"/>
      <use xlink:href="#DejaVuSans-6f" x="392.972656"/>
      <use xlink:href="#DejaVuSans-73" x="454.154297"/>
      <use xlink:href="#DejaVuSans-73" x="506.253906"/>
     </g>
    </g>
   </g>
   <g id="line2d_10">
    <path d="M 91.749773 132.780563 
L 92.321885 33.778049 
L 92.893997 22.32 
L 93.466109 48.924971 
L 94.038221 87.907312 
L 94.610333 144.955715 
L 95.182445 176.799868 
L 96.32667 207.687014 
L 96.898782 208.537719 
L 97.470894 215.701768 
L 98.043006 226.110897 
L 98.615118 216.469378 
L 99.18723 215.363925 
L 99.759342 229.484954 
L 100.331454 229.148886 
L 100.903566 232.616253 
L 101.475678 233.181219 
L 102.04779 241.571521 
L 102.619903 234.320454 
L 103.192015 238.723383 
L 103.764127 246.080417 
L 104.336239 239.395217 
L 104.908351 220.693783 
L 105.480463 239.439709 
L 106.052575 240.275668 
L 106.624687 238.814218 
L 107.196799 243.140968 
L 107.768911 240.375956 
L 108.341024 232.909017 
L 108.913136 245.950974 
L 110.05736 234.276861 
L 110.629472 242.052561 
L 111.201584 237.469103 
L 111.773696 234.53567 
L 112.345808 241.13074 
L 112.91792 241.683408 
L 113.490032 239.812394 
L 114.062145 236.931764 
L 114.634257 242.350989 
L 115.206369 242.315924 
L 115.778481 243.1399 
L 116.350593 240.480731 
L 116.922705 240.900816 
L 117.494817 242.143053 
L 118.066929 237.644457 
L 118.639041 237.54549 
L 119.211153 240.979827 
L 119.783266 237.374153 
L 120.355378 239.154481 
L 120.92749 234.041856 
L 121.499602 232.832999 
L 122.071714 232.073255 
L 122.643826 237.044133 
L 123.215938 245.818695 
L 123.78805 244.132876 
L 124.360162 238.569744 
L 124.932274 236.234138 
L 125.504387 240.012766 
L 126.076499 236.090253 
L 126.648611 240.830204 
L 127.220723 244.476541 
L 127.792835 231.581733 
L 128.364947 239.886088 
L 128.937059 243.679942 
L 129.509171 243.802811 
L 130.081283 242.955801 
L 130.653395 244.313005 
L 131.225508 244.148945 
L 131.79762 245.067813 
L 132.369732 245.64494 
L 133.513956 237.921367 
L 134.086068 241.543447 
L 134.65818 238.512788 
L 135.230292 241.37834 
L 135.802404 231.341445 
L 136.374516 243.110562 
L 136.946629 241.700288 
L 137.518741 245.310241 
L 138.090853 241.169151 
L 138.662965 247.089533 
L 139.235077 240.871468 
L 139.807189 239.984842 
L 140.379301 239.643577 
L 140.951413 241.495702 
L 141.523525 242.487736 
L 142.095637 242.96367 
L 142.667749 239.836773 
L 143.239862 240.614178 
L 143.811974 244.924623 
L 144.384086 246.007514 
L 144.956198 243.137946 
L 146.100422 244.538665 
L 147.244646 244.512266 
L 147.816758 242.043988 
L 148.38887 238.1473 
L 148.960983 241.475474 
L 149.533095 241.528956 
L 150.105207 236.725744 
L 150.677319 243.516792 
L 151.249431 238.855925 
L 151.821543 244.325264 
L 152.393655 246.435803 
L 152.965767 239.491039 
L 153.537879 242.588259 
L 154.109991 244.245741 
L 154.682104 244.341437 
L 155.254216 240.446593 
L 155.826328 242.70921 
L 156.39844 240.650104 
L 156.970552 243.207566 
L 157.542664 244.068162 
L 158.114776 241.456057 
L 158.686888 241.546237 
L 159.259 239.255509 
L 159.831112 238.308674 
L 160.975337 242.318751 
L 161.547449 240.619434 
L 162.119561 237.310769 
L 162.691673 235.153249 
L 163.263785 236.007497 
L 163.835897 234.677303 
L 164.408009 243.581139 
L 164.980121 237.752445 
L 165.552233 241.305537 
L 166.124346 241.046937 
L 166.696458 241.703401 
L 167.26857 239.14604 
L 167.840682 246.151473 
L 168.412794 243.180001 
L 168.984906 251.301795 
L 169.557018 246.382564 
L 170.12913 244.856723 
L 170.701242 244.709993 
L 171.273354 245.417465 
L 171.845467 236.849254 
L 172.417579 243.731063 
L 172.989691 240.816078 
L 173.561803 242.606266 
L 174.133915 240.865744 
L 175.278139 245.511822 
L 175.850251 237.933072 
L 176.422363 242.823957 
L 176.994475 242.901036 
L 177.566587 243.370041 
L 178.1387 245.161778 
L 178.710812 246.247107 
L 179.855036 242.77304 
L 180.427148 245.188031 
L 180.99926 243.131081 
L 181.571372 243.699016 
L 182.143484 240.6828 
L 182.715596 241.999153 
L 183.287708 234.043457 
L 183.859821 242.481196 
L 184.431933 241.738475 
L 185.576157 246.517231 
L 186.148269 246.251135 
L 186.720381 246.121743 
L 187.292493 240.431996 
L 187.864605 242.707648 
L 188.436717 243.808021 
L 189.008829 238.999582 
L 189.580942 245.716741 
L 190.153054 246.83666 
L 190.725166 249.045273 
L 191.297278 247.400035 
L 191.86939 248.797731 
L 192.441502 243.112085 
L 193.013614 246.86991 
L 193.585726 242.404548 
L 194.157838 245.044311 
L 194.72995 242.40646 
L 195.302063 245.539418 
L 195.874175 241.697745 
L 196.446287 246.265342 
L 197.018399 244.031012 
L 197.590511 246.762075 
L 198.162623 241.977931 
L 198.734735 247.68506 
L 199.306847 245.521102 
L 199.878959 247.446424 
L 200.451071 249.875247 
L 201.023184 248.857683 
L 201.595296 250.708887 
L 202.167408 247.347159 
L 202.73952 247.878476 
L 203.311632 242.965365 
L 203.883744 245.223799 
L 204.455856 245.934021 
L 205.027968 246.011562 
L 205.60008 245.921161 
L 206.172192 248.748277 
L 206.744305 243.828743 
L 207.316417 248.915306 
L 207.888529 249.414755 
L 208.460641 251.114286 
L 209.032753 249.913724 
L 209.604865 245.414442 
L 210.176977 249.721562 
L 211.321201 246.799663 
L 211.893313 245.757301 
L 213.037538 244.560286 
L 213.60965 247.324432 
L 214.181762 244.204643 
L 214.753874 244.931285 
L 215.325986 243.104332 
L 215.898098 244.788042 
L 216.47021 243.806049 
L 217.042322 246.812204 
L 217.614434 244.67802 
L 218.186546 245.687995 
L 218.758659 247.33896 
L 219.330771 250.597423 
L 219.902883 251.037873 
L 220.474995 251.31983 
L 221.047107 246.954404 
L 221.619219 245.434605 
L 222.191331 244.790911 
L 222.763443 248.063926 
L 223.335555 248.125915 
L 223.907667 245.781051 
L 224.47978 244.950108 
L 225.051892 248.15649 
L 225.624004 245.041466 
L 226.196116 244.237924 
L 226.768228 244.43947 
L 227.34034 245.363032 
L 227.912452 245.500343 
L 228.484564 245.752732 
L 229.056676 246.936203 
L 229.628788 245.310185 
L 230.200901 246.847396 
L 230.773013 244.969459 
L 231.345125 246.379158 
L 231.917237 246.335926 
L 232.489349 248.735779 
L 233.633573 244.06609 
L 234.205685 248.37895 
L 234.777797 246.575148 
L 236.494134 246.984427 
L 237.066246 245.959478 
L 237.638358 249.921744 
L 238.21047 246.3828 
L 238.782582 245.64804 
L 239.354694 245.497538 
L 239.926806 243.437764 
L 240.498918 244.659771 
L 241.07103 241.623027 
L 241.643143 244.386651 
L 242.215255 243.036213 
L 242.787367 247.035641 
L 243.359479 247.279764 
L 243.931591 245.803745 
L 244.503703 249.361363 
L 245.075815 247.770967 
L 246.220039 250.101526 
L 246.792151 248.292683 
L 247.364263 249.426791 
L 247.936376 248.024499 
L 248.508488 248.34122 
L 249.0806 249.134069 
L 249.652712 249.239454 
L 250.224824 249.742874 
L 250.796936 250.621028 
L 251.369048 245.667657 
L 251.94116 245.992202 
L 252.513272 246.615311 
L 253.085384 246.197958 
L 253.657497 244.071302 
L 254.229609 247.687772 
L 254.801721 245.955833 
L 255.945945 250.741932 
L 256.518057 250.297136 
L 257.090169 252.817422 
L 257.662281 253.944698 
L 258.234393 249.411589 
L 258.806505 251.413287 
L 259.378618 247.239404 
L 259.95073 248.93208 
L 260.522842 247.78763 
L 261.094954 247.776279 
L 261.667066 247.974306 
L 262.239178 248.918964 
L 262.81129 249.407162 
L 263.383402 244.47914 
L 263.955514 248.018742 
L 264.527626 245.71064 
L 265.099739 246.853497 
L 265.671851 246.008225 
L 266.243963 246.481695 
L 266.816075 248.191662 
L 267.388187 248.30694 
L 267.960299 249.069085 
L 268.532411 246.745469 
L 269.104523 249.939112 
L 269.676635 249.414444 
L 270.248747 249.600284 
L 270.82086 247.629251 
L 271.392972 247.36367 
L 271.965084 247.871943 
L 272.537196 247.597013 
L 273.109308 247.628722 
L 273.68142 250.803375 
L 274.253532 247.912967 
L 274.825644 246.827006 
L 275.397756 246.720647 
L 275.969868 249.02856 
L 276.541981 247.301276 
L 277.114093 246.447622 
L 277.686205 248.772954 
L 278.258317 248.292355 
L 278.830429 247.993117 
L 279.402541 249.09222 
L 279.974653 250.842158 
L 280.546765 249.354835 
L 281.118877 249.983929 
L 281.690989 253.067954 
L 282.263102 249.925086 
L 282.835214 249.467987 
L 283.407326 248.024736 
L 283.979438 249.065126 
L 284.55155 247.422098 
L 285.123662 248.31109 
L 285.695774 247.379473 
L 286.267886 250.293595 
L 286.839998 252.094265 
L 287.41211 251.577078 
L 287.984222 251.776718 
L 288.556335 247.668494 
L 289.128447 249.898644 
L 289.700559 249.595667 
L 290.272671 252.05241 
L 290.844783 247.363567 
L 291.416895 249.158065 
L 291.989007 249.237285 
L 292.561119 251.263381 
L 293.133231 243.808697 
L 294.277456 249.82706 
L 294.849568 248.380164 
L 295.42168 249.191981 
L 295.993792 251.68952 
L 296.565904 251.476061 
L 297.138016 252.20747 
L 297.710128 252.101795 
L 298.854352 247.990786 
L 299.998577 245.439286 
L 300.570689 248.241426 
L 301.142801 244.283512 
L 301.714913 247.600165 
L 302.287025 247.197975 
L 302.859137 249.410671 
L 303.431249 247.905928 
L 304.003361 246.822513 
L 304.575473 247.988731 
L 305.147585 248.278185 
L 305.719698 244.919867 
L 306.29181 244.23027 
L 306.863922 246.631366 
L 307.436034 248.27781 
L 308.008146 246.563962 
L 308.580258 246.235804 
L 309.15237 245.31923 
L 309.724482 245.689239 
L 310.296594 244.96965 
L 310.868706 247.350296 
L 311.440819 244.160368 
L 312.012931 246.614698 
L 312.585043 246.329818 
L 313.157155 245.889681 
L 313.729267 248.308305 
L 314.301379 244.721689 
L 314.873491 247.660942 
L 315.445603 244.365303 
L 316.017715 245.27832 
L 316.589827 244.049601 
L 317.734052 250.386047 
L 318.306164 249.676518 
L 318.878276 250.168771 
L 319.450388 247.733219 
L 320.0225 250.589127 
L 320.594612 247.005483 
L 321.166724 247.771971 
L 321.738836 247.904403 
L 322.310948 249.35485 
L 322.88306 251.531358 
L 323.455173 250.224162 
L 324.027285 249.386296 
L 324.599397 250.45843 
L 325.171509 254.098512 
L 325.743621 251.568977 
L 326.315733 249.767386 
L 326.887845 248.460458 
L 327.459957 248.019347 
L 328.032069 250.238881 
L 329.176294 249.982225 
L 329.748406 250.414745 
L 330.320518 249.597471 
L 330.89263 249.003988 
L 331.464742 248.101016 
L 332.036854 247.516066 
L 333.181078 250.316776 
L 333.75319 253.443717 
L 335.469527 249.758862 
L 336.041639 248.500076 
L 336.613751 250.949849 
L 337.185863 249.901337 
L 337.757975 251.292099 
L 338.330087 249.159661 
L 338.902199 252.682296 
L 339.474311 249.501707 
L 340.618536 250.112125 
L 341.190648 249.9839 
L 342.334872 250.18689 
L 342.906984 251.823435 
L 343.479096 250.305722 
L 344.051208 250.824289 
L 344.62332 250.19884 
L 345.195432 248.108132 
L 345.767544 244.891362 
L 346.339657 249.204749 
L 346.911769 248.109065 
L 347.483881 248.532052 
L 348.055993 247.415604 
L 348.628105 248.358316 
L 349.200217 248.733099 
L 349.772329 249.984701 
L 350.344441 247.900853 
L 350.916553 251.378948 
L 351.488665 250.118537 
L 352.060778 252.086003 
L 352.63289 250.223665 
L 353.205002 249.259143 
L 353.777114 249.757844 
L 354.349226 251.614805 
L 354.921338 251.479363 
L 355.49345 251.160659 
L 356.065562 252.253394 
L 356.637674 249.495426 
L 357.209786 248.266679 
L 357.781898 250.944057 
L 358.354011 251.724103 
L 358.926123 251.214125 
L 359.498235 249.576193 
L 360.070347 249.671793 
L 360.642459 248.879661 
L 361.214571 247.152513 
L 361.786683 250.504026 
L 362.358795 250.583772 
L 362.930907 253.358983 
L 363.503019 249.671323 
L 364.647244 250.028152 
L 365.219356 250.257031 
L 365.791468 249.97457 
L 366.36358 250.465534 
L 366.935692 250.244397 
L 367.507804 247.115482 
L 368.652028 251.463855 
L 369.22414 251.307086 
L 369.796253 247.981922 
L 370.368365 248.257455 
L 370.940477 250.262562 
L 371.512589 249.718981 
L 372.084701 250.769297 
L 372.656813 252.153609 
L 373.228925 252.540039 
L 373.801037 254.256703 
L 374.373149 253.825224 
L 374.945261 252.205455 
L 375.517374 251.958705 
L 376.089486 252.292879 
L 376.661598 251.835688 
L 377.23371 251.026319 
L 377.805822 253.485202 
L 378.377934 252.379489 
L 378.950046 250.412853 
L 379.522158 251.48714 
L 380.09427 250.18104 
L 380.666382 249.597697 
L 381.238495 248.057123 
L 381.810607 248.487427 
L 382.382719 251.537049 
L 382.954831 253.348258 
L 383.526943 254.325756 
L 384.099055 253.748143 
L 384.671167 250.768021 
L 385.243279 250.513884 
L 385.815391 253.119789 
L 386.387503 254.126038 
L 386.959616 250.960021 
L 387.531728 252.49722 
L 388.10384 252.110195 
L 389.248064 250.940713 
L 389.820176 248.004217 
L 390.392288 248.238611 
L 390.9644 246.272925 
L 391.536512 246.168464 
L 392.108624 245.414903 
L 392.680737 248.004955 
L 393.252849 248.662404 
L 393.824961 247.256723 
L 394.397073 251.250065 
L 394.969185 250.263767 
L 395.541297 251.208954 
L 396.113409 249.483103 
L 396.685521 249.750218 
L 397.257633 249.891431 
L 397.829745 248.515103 
L 398.401857 248.239029 
L 398.97397 248.91379 
L 399.546082 246.468273 
L 400.118194 249.589389 
L 400.690306 248.085906 
L 401.262418 248.668317 
L 401.83453 252.33924 
L 402.406642 251.313449 
L 402.978754 250.009285 
L 403.550866 246.590688 
L 404.122978 246.579256 
L 404.695091 246.843167 
L 405.839315 249.400318 
L 406.983539 250.694763 
L 407.555651 248.027424 
L 408.127763 250.599126 
L 408.699875 249.359155 
L 409.271987 249.99753 
L 409.844099 250.354573 
L 410.416212 250.050598 
L 410.988324 250.700945 
L 411.560436 247.210499 
L 412.132548 247.570125 
L 412.70466 247.429237 
L 413.276772 249.39497 
L 413.848884 249.870711 
L 414.420996 248.875047 
L 414.993108 247.243276 
L 415.56522 249.036924 
L 416.137333 245.844005 
L 416.709445 249.379016 
L 417.281557 248.505139 
L 417.853669 249.551054 
L 418.425781 248.682045 
L 418.997893 251.141586 
L 419.570005 247.314691 
L 420.142117 248.876875 
L 420.714229 251.142434 
L 421.286341 252.877793 
L 421.858454 249.554887 
L 422.430566 251.674061 
L 423.002678 248.388431 
L 423.57479 251.599672 
L 424.146902 248.416756 
L 424.719014 249.59051 
L 425.291126 249.52514 
L 425.863238 247.032082 
L 426.43535 249.831246 
L 427.007462 248.802398 
L 427.579575 249.802287 
L 428.151687 248.911052 
L 428.723799 249.606349 
L 429.295911 247.916314 
L 429.868023 248.071563 
L 430.440135 249.766738 
L 431.012247 249.447921 
L 431.584359 248.492677 
L 432.156471 247.852339 
L 432.728583 248.939327 
L 433.300695 248.822544 
L 433.872808 250.097678 
L 434.44492 249.322556 
L 435.017032 251.981677 
L 435.589144 251.772592 
L 436.161256 249.51103 
L 437.30548 252.722134 
L 437.877592 249.923298 
L 438.449704 248.101164 
L 439.021816 249.984436 
L 439.593929 250.214335 
L 440.166041 251.593155 
L 440.738153 251.116036 
L 441.310265 248.590951 
L 441.882377 248.192018 
L 442.454489 249.327639 
L 443.026601 248.417932 
L 443.598713 249.567909 
L 444.170825 249.101886 
L 444.742937 245.978069 
L 445.31505 247.83024 
L 445.887162 246.650414 
L 446.459274 248.292579 
L 447.031386 249.471478 
L 447.603498 250.939877 
L 448.17561 251.760542 
L 448.747722 252.303357 
L 449.319834 248.83296 
L 449.891946 249.581578 
L 450.464058 248.824757 
L 451.608283 246.727844 
L 452.180395 246.562916 
L 452.752507 246.687116 
L 453.324619 248.703898 
L 453.896731 249.696312 
L 454.468843 251.352699 
L 455.040955 249.030085 
L 455.613067 250.514857 
L 456.185179 249.362534 
L 456.757292 248.847851 
L 457.329404 250.667855 
L 457.901516 251.472329 
L 458.473628 251.132982 
L 459.04574 252.341605 
L 459.617852 250.969234 
L 460.189964 252.700795 
L 460.762076 252.30023 
L 461.334188 253.13402 
L 461.9063 251.191647 
L 462.478413 247.933645 
L 463.050525 248.76348 
L 463.622637 250.135526 
L 464.194749 248.552646 
L 464.766861 251.160274 
L 465.338973 253.189336 
L 465.911085 251.02528 
L 466.483197 250.632676 
L 467.055309 247.849544 
L 467.627421 250.53293 
L 468.199533 249.994876 
L 468.771646 250.262508 
L 469.343758 247.063013 
L 470.487982 249.811362 
L 471.060094 249.743001 
L 471.632206 250.17434 
L 472.204318 252.067269 
L 472.77643 248.030356 
L 473.348542 250.19736 
L 473.920654 250.17583 
L 474.492767 249.614918 
L 475.064879 251.825695 
L 475.636991 248.925832 
L 476.209103 248.597683 
L 476.781215 252.463193 
L 477.353327 250.588818 
L 477.925439 249.736353 
L 478.497551 250.509523 
L 479.069663 250.648304 
L 479.641775 249.067514 
L 480.213888 255.026452 
L 480.786 252.891837 
L 481.358112 251.73913 
L 481.930224 249.833108 
L 482.502336 250.064773 
L 483.074448 252.285515 
L 483.64656 253.453875 
L 484.218672 251.30414 
L 484.790784 252.619956 
L 485.362896 250.650504 
L 485.935009 251.261088 
L 486.507121 250.694404 
L 487.079233 253.07042 
L 487.651345 249.344364 
L 488.223457 250.506411 
L 488.795569 251.125126 
L 489.367681 250.300719 
L 489.939793 251.316234 
L 490.511905 250.225203 
L 491.084017 251.617453 
L 491.65613 252.431159 
L 492.228242 252.589049 
L 492.800354 251.835407 
L 493.372466 249.910633 
L 493.944578 251.313334 
L 494.51669 249.772392 
L 495.088802 250.845937 
L 495.660914 248.206412 
L 496.233026 249.8242 
L 496.805138 250.410434 
L 497.377251 250.112055 
L 497.949363 249.072674 
L 498.521475 249.589928 
L 499.093587 250.42978 
L 499.665699 248.793832 
L 500.237811 251.10237 
L 500.809923 250.639506 
L 501.382035 248.404958 
L 501.954147 249.083501 
L 502.526259 251.001126 
L 503.098371 252.33692 
L 503.670484 250.742619 
L 504.242596 249.970629 
L 504.814708 248.052982 
L 505.38682 247.454876 
L 505.958932 251.666727 
L 506.531044 251.885159 
L 507.103156 253.855453 
L 507.675268 252.339817 
L 508.24738 252.427805 
L 508.819492 251.439378 
L 509.391605 249.709452 
L 509.963717 249.762488 
L 510.535829 251.135963 
L 511.107941 249.425404 
L 511.680053 247.090509 
L 512.252165 249.912169 
L 512.824277 251.536416 
L 513.396389 252.332662 
L 514.540613 252.522499 
L 515.112726 252.109484 
L 515.684838 251.399144 
L 516.25695 249.689137 
L 516.829062 249.076432 
L 517.401174 248.150859 
L 517.973286 248.16057 
L 519.689622 252.125249 
L 520.261734 249.311774 
L 520.833847 247.906136 
L 521.405959 249.232312 
L 521.978071 251.560313 
L 522.550183 251.56302 
L 523.694407 248.165012 
L 524.266519 249.435803 
L 524.838631 249.67601 
L 525.410743 249.661 
L 525.982855 251.308683 
L 526.554968 251.478488 
L 527.12708 250.718807 
L 527.699192 246.709374 
L 528.271304 246.517769 
L 528.843416 247.448367 
L 529.415528 248.822336 
L 530.559752 252.057636 
L 531.131864 252.557418 
L 531.703976 252.518656 
L 532.276089 253.381809 
L 532.848201 251.469189 
L 533.420313 247.571904 
L 533.992425 250.035422 
L 534.564537 250.17127 
L 535.136649 249.59947 
L 535.708761 250.661534 
L 536.280873 250.291453 
L 536.852985 252.789628 
L 537.425097 252.94127 
L 537.99721 254.823914 
L 538.569322 254.216754 
L 539.141434 255.164828 
L 539.713546 253.145688 
L 540.285658 253.711003 
L 540.85777 254.758428 
L 541.429882 251.300401 
L 542.001994 253.914323 
L 542.574106 253.884006 
L 543.146218 253.996574 
L 543.71833 250.522958 
L 544.290443 252.940347 
L 544.862555 251.771816 
L 545.434667 253.58803 
L 546.006779 251.706162 
L 546.578891 251.301078 
L 547.151003 250.384391 
L 547.723115 250.133795 
L 548.295227 250.445994 
L 548.295227 250.445994 
" clip-path="url(#p26c48f2d34)" style="fill: none; stroke: #ffe699; stroke-width: 2; stroke-linecap: round"/>
   </g>
   <g id="line2d_11">
    <path d="M 91.749773 247.772004 
L 92.321885 291.34866 
L 92.893997 298.712371 
L 93.466109 302.181442 
L 94.038221 303.51853 
L 94.610333 303.412118 
L 95.182445 302.381404 
L 95.754557 302.494215 
L 96.32667 304.996119 
L 97.470894 308.163608 
L 99.18723 310.635323 
L 99.759342 310.717599 
L 100.331454 311.022221 
L 100.903566 312.38662 
L 101.475678 312.717039 
L 102.04779 312.854717 
L 102.619903 312.81407 
L 103.192015 313.360123 
L 103.764127 313.331117 
L 104.336239 312.561965 
L 104.908351 313.124409 
L 105.480463 312.425263 
L 106.052575 313.991574 
L 106.624687 313.912244 
L 107.196799 314.721664 
L 107.768911 314.810674 
L 108.341024 315.469624 
L 108.913136 315.074673 
L 109.485248 315.609167 
L 110.05736 315.934792 
L 110.629472 316.549604 
L 111.201584 316.671408 
L 111.773696 317.296057 
L 112.91792 317.489165 
L 113.490032 317.56163 
L 114.062145 316.883262 
L 115.206369 317.672509 
L 115.778481 317.489723 
L 116.350593 318.058729 
L 117.494817 318.482264 
L 118.066929 317.927293 
L 118.639041 318.38318 
L 119.211153 318.127216 
L 119.783266 318.614913 
L 120.355378 318.559147 
L 120.92749 318.323338 
L 123.78805 318.935383 
L 124.360162 318.546319 
L 124.932274 318.968085 
L 126.076499 320.015092 
L 127.220723 319.955358 
L 127.792835 319.642189 
L 128.364947 319.565721 
L 128.937059 320.13498 
L 130.081283 320.276328 
L 130.653395 320.688747 
L 131.225508 320.625643 
L 131.79762 320.816815 
L 132.369732 320.884473 
L 132.941844 321.203363 
L 133.513956 321.205409 
L 135.802404 321.590052 
L 136.946629 321.683359 
L 137.518741 321.659166 
L 138.090853 321.79758 
L 138.662965 321.7321 
L 139.235077 321.924646 
L 140.379301 321.339911 
L 140.951413 321.592792 
L 141.523525 321.652628 
L 142.667749 322.002748 
L 143.239862 322.018233 
L 143.811974 322.293502 
L 145.52831 322.090093 
L 146.100422 322.169236 
L 147.244646 322.61446 
L 147.816758 322.446706 
L 148.38887 322.157359 
L 148.960983 322.556834 
L 149.533095 322.340793 
L 150.105207 322.612116 
L 150.677319 322.475011 
L 151.821543 322.690365 
L 152.965767 322.571864 
L 154.109991 322.414147 
L 154.682104 322.685514 
L 155.254216 322.545898 
L 155.826328 322.773755 
L 156.970552 322.553135 
L 157.542664 322.776576 
L 158.114776 322.685745 
L 158.686888 322.895322 
L 160.403225 322.898872 
L 160.975337 322.758987 
L 162.119561 323.058868 
L 164.408009 323.093919 
L 164.980121 322.997194 
L 168.412794 323.285673 
L 170.12913 323.449837 
L 171.273354 323.568951 
L 172.417579 323.096526 
L 172.989691 323.073494 
L 174.133915 323.413764 
L 174.706027 323.151312 
L 175.850251 323.13032 
L 176.422363 323.250102 
L 176.994475 323.055094 
L 177.566587 322.689849 
L 178.1387 322.989231 
L 178.710812 322.972964 
L 179.855036 323.420007 
L 180.427148 323.309206 
L 181.571372 323.641636 
L 183.859821 323.6241 
L 185.004045 323.600171 
L 186.720381 323.430816 
L 187.292493 323.667831 
L 187.864605 323.599857 
L 188.436717 323.862923 
L 189.008829 323.771488 
L 189.580942 323.828994 
L 190.725166 323.688879 
L 191.297278 323.64834 
L 192.441502 323.809174 
L 193.013614 323.69362 
L 194.72995 323.787141 
L 199.306847 323.813236 
L 199.878959 324.010189 
L 200.451071 323.787338 
L 201.595296 323.763858 
L 202.167408 323.85912 
L 202.73952 323.728506 
L 203.311632 323.958457 
L 205.60008 324.015174 
L 206.172192 324.148333 
L 206.744305 323.952414 
L 207.316417 324.048969 
L 207.888529 323.93713 
L 208.460641 324.028594 
L 210.176977 323.86959 
L 211.321201 323.975197 
L 212.465425 323.789419 
L 213.037538 323.856825 
L 213.60965 323.584049 
L 214.181762 323.978486 
L 214.753874 324.01396 
L 215.325986 323.924371 
L 216.47021 324.05929 
L 217.042322 323.819109 
L 217.614434 323.855845 
L 218.186546 323.750029 
L 220.474995 323.986234 
L 221.047107 323.97629 
L 221.619219 323.728752 
L 223.907667 323.92619 
L 224.47978 323.754666 
L 227.34034 324.025155 
L 228.484564 324.099534 
L 229.628788 324.108855 
L 230.200901 324.218346 
L 232.489349 324.088123 
L 235.922022 324.189142 
L 237.066246 323.965621 
L 237.638358 324.173688 
L 239.926806 324.13426 
L 241.07103 324.137938 
L 241.643143 324.018568 
L 242.215255 324.099221 
L 242.787367 323.9685 
L 243.359479 324.10149 
L 249.0806 324.141662 
L 249.652712 324.039871 
L 250.224824 324.135253 
L 250.796936 324.071996 
L 252.513272 324.120047 
L 257.662281 324.243501 
L 258.234393 324.112397 
L 259.378618 324.252467 
L 261.094954 324.212186 
L 263.383402 324.208102 
L 263.955514 324.145004 
L 266.816075 324.315869 
L 268.532411 324.39443 
L 269.676635 324.328171 
L 270.248747 324.40391 
L 270.82086 324.284606 
L 271.392972 324.382041 
L 273.109308 324.309033 
L 274.253532 324.321484 
L 279.974653 324.117956 
L 280.546765 324.226682 
L 281.118877 324.158637 
L 282.263102 324.253712 
L 286.267886 324.271765 
L 286.839998 324.381653 
L 288.556335 324.32014 
L 289.128447 324.460991 
L 293.133231 324.289162 
L 293.705343 324.228801 
L 294.849568 324.375765 
L 295.42168 324.334129 
L 295.993792 324.477048 
L 297.710128 324.278904 
L 298.854352 324.329821 
L 306.29181 324.428871 
L 306.863922 324.327306 
L 308.008146 324.375154 
L 309.724482 324.428578 
L 310.296594 324.506626 
L 314.301379 324.350125 
L 328.604181 324.477129 
L 330.320518 324.481546 
L 332.608966 324.50286 
L 333.75319 324.444479 
L 334.897415 324.406334 
L 336.613751 324.469286 
L 337.757975 324.456269 
L 350.916553 324.508115 
L 351.488665 324.390943 
L 353.777114 324.491511 
L 356.065562 324.400943 
L 358.354011 324.536428 
L 360.070347 324.559778 
L 361.214571 324.56296 
L 362.358795 324.521424 
L 368.079916 324.476365 
L 369.796253 324.548109 
L 373.801037 324.503451 
L 374.373149 324.578686 
L 375.517374 324.495398 
L 379.522158 324.555906 
L 382.954831 324.483086 
L 384.099055 324.554816 
L 386.959616 324.525026 
L 388.10384 324.532305 
L 390.9644 324.610302 
L 393.824961 324.551647 
L 398.401857 324.572232 
L 399.546082 324.584087 
L 401.262418 324.621149 
L 403.550866 324.576865 
L 431.012247 324.585783 
L 432.156471 324.617861 
L 456.757292 324.622265 
L 459.04574 324.634655 
L 460.762076 324.507462 
L 461.9063 324.529981 
L 462.478413 324.464598 
L 463.050525 324.590368 
L 476.209103 324.57011 
L 478.497551 324.586515 
L 484.218672 324.680032 
L 484.790784 324.584227 
L 487.651345 324.670877 
L 517.973286 324.647721 
L 521.405959 324.700731 
L 527.699192 324.607178 
L 528.843416 324.67114 
L 530.559752 324.668771 
L 548.295227 324.672202 
L 548.295227 324.672202 
" clip-path="url(#p26c48f2d34)" style="fill: none; stroke: #00b0f0; stroke-width: 2; stroke-linecap: round"/>
   </g>
   <g id="patch_3">
    <path d="M 68.9225 339.84 
L 68.9225 7.2 
" style="fill: none; stroke: #262626; stroke-width: 1.25; stroke-linejoin: miter; stroke-linecap: square"/>
   </g>
   <g id="patch_4">
    <path d="M 68.9225 339.84 
L 571.1225 339.84 
" style="fill: none; stroke: #262626; stroke-width: 1.25; stroke-linejoin: miter; stroke-linecap: square"/>
   </g>
   <g id="legend_1">
    <g id="patch_5">
     <path d="M 155.7625 89.38375 
L 555.7225 89.38375 
Q 560.1225 89.38375 560.1225 84.98375 
L 560.1225 22.6 
Q 560.1225 18.2 555.7225 18.2 
L 155.7625 18.2 
Q 151.3625 18.2 151.3625 22.6 
L 151.3625 84.98375 
Q 151.3625 89.38375 155.7625 89.38375 
z
" style="fill: #ffffff; opacity: 0.8; stroke: #cccccc; stroke-linejoin: miter"/>
    </g>
    <g id="line2d_12">
     <path d="M 160.1625 36.016563 
L 182.1625 36.016563 
L 204.1625 36.016563 
" style="fill: none; stroke: #ffe699; stroke-width: 2; stroke-linecap: round"/>
    </g>
    <g id="text_12">
     <!-- Without AC-awareness ($\alpha = 0 $) -->
     <g style="fill: #262626" transform="translate(221.7625 43.716563) scale(0.22 -0.22)">
      <defs>
       <path id="DejaVuSans-57" d="M 213 4666 
L 850 4666 
L 1831 722 
L 2809 4666 
L 3519 4666 
L 4500 722 
L 5478 4666 
L 6119 4666 
L 4947 0 
L 4153 0 
L 3169 4050 
L 2175 0 
L 1381 0 
L 213 4666 
z
" transform="scale(0.015625)"/>
       <path id="DejaVuSans-75" d="M 544 1381 
L 544 3500 
L 1119 3500 
L 1119 1403 
Q 1119 906 1312 657 
Q 1506 409 1894 409 
Q 2359 409 2629 706 
Q 2900 1003 2900 1516 
L 2900 3500 
L 3475 3500 
L 3475 0 
L 2900 0 
L 2900 538 
Q 2691 219 2414 64 
Q 2138 -91 1772 -91 
Q 1169 -91 856 284 
Q 544 659 544 1381 
z
M 1991 3584 
L 1991 3584 
z
" transform="scale(0.015625)"/>
       <path id="DejaVuSans-41" d="M 2188 4044 
L 1331 1722 
L 3047 1722 
L 2188 4044 
z
M 1831 4666 
L 2547 4666 
L 4325 0 
L 3669 0 
L 3244 1197 
L 1141 1197 
L 716 0 
L 50 0 
L 1831 4666 
z
" transform="scale(0.015625)"/>
       <path id="DejaVuSans-43" d="M 4122 4306 
L 4122 3641 
Q 3803 3938 3442 4084 
Q 3081 4231 2675 4231 
Q 1875 4231 1450 3742 
Q 1025 3253 1025 2328 
Q 1025 1406 1450 917 
Q 1875 428 2675 428 
Q 3081 428 3442 575 
Q 3803 722 4122 1019 
L 4122 359 
Q 3791 134 3420 21 
Q 3050 -91 2638 -91 
Q 1578 -91 968 557 
Q 359 1206 359 2328 
Q 359 3453 968 4101 
Q 1578 4750 2638 4750 
Q 3056 4750 3426 4639 
Q 3797 4528 4122 4306 
z
" transform="scale(0.015625)"/>
       <path id="DejaVuSans-2d" d="M 313 2009 
L 1997 2009 
L 1997 1497 
L 313 1497 
L 313 2009 
z
" transform="scale(0.015625)"/>
       <path id="DejaVuSans-61" d="M 2194 1759 
Q 1497 1759 1228 1600 
Q 959 1441 959 1056 
Q 959 750 1161 570 
Q 1363 391 1709 391 
Q 2188 391 2477 730 
Q 2766 1069 2766 1631 
L 2766 1759 
L 2194 1759 
z
M 3341 1997 
L 3341 0 
L 2766 0 
L 2766 531 
Q 2569 213 2275 61 
Q 1981 -91 1556 -91 
Q 1019 -91 701 211 
Q 384 513 384 1019 
Q 384 1609 779 1909 
Q 1175 2209 1959 2209 
L 2766 2209 
L 2766 2266 
Q 2766 2663 2505 2880 
Q 2244 3097 1772 3097 
Q 1472 3097 1187 3025 
Q 903 2953 641 2809 
L 641 3341 
Q 956 3463 1253 3523 
Q 1550 3584 1831 3584 
Q 2591 3584 2966 3190 
Q 3341 2797 3341 1997 
z
" transform="scale(0.015625)"/>
       <path id="DejaVuSans-77" d="M 269 3500 
L 844 3500 
L 1563 769 
L 2278 3500 
L 2956 3500 
L 3675 769 
L 4391 3500 
L 4966 3500 
L 4050 0 
L 3372 0 
L 2619 2869 
L 1863 0 
L 1184 0 
L 269 3500 
z
" transform="scale(0.015625)"/>
       <path id="DejaVuSans-6e" d="M 3513 2113 
L 3513 0 
L 2938 0 
L 2938 2094 
Q 2938 2591 2744 2837 
Q 2550 3084 2163 3084 
Q 1697 3084 1428 2787 
Q 1159 2491 1159 1978 
L 1159 0 
L 581 0 
L 581 3500 
L 1159 3500 
L 1159 2956 
Q 1366 3272 1645 3428 
Q 1925 3584 2291 3584 
Q 2894 3584 3203 3211 
Q 3513 2838 3513 2113 
z
" transform="scale(0.015625)"/>
       <path id="DejaVuSans-28" d="M 1984 4856 
Q 1566 4138 1362 3434 
Q 1159 2731 1159 2009 
Q 1159 1288 1364 580 
Q 1569 -128 1984 -844 
L 1484 -844 
Q 1016 -109 783 600 
Q 550 1309 550 2009 
Q 550 2706 781 3412 
Q 1013 4119 1484 4856 
L 1984 4856 
z
" transform="scale(0.015625)"/>
       <path id="DejaVuSans-Oblique-3b1" d="M 2619 1628 
L 2622 2350 
Q 2625 3088 2069 3091 
Q 1653 3094 1394 2747 
Q 1069 2319 959 1747 
Q 825 1059 994 731 
Q 1169 397 1547 397 
Q 1966 397 2319 1063 
L 2619 1628 
z
M 2166 3578 
Q 3141 3594 3128 2584 
Q 3128 2584 3616 3500 
L 4128 3500 
L 3119 1603 
L 3109 919 
Q 3109 766 3194 638 
Q 3291 488 3391 488 
L 3669 488 
L 3575 0 
L 3228 0 
Q 2934 0 2722 263 
Q 2622 394 2619 669 
Q 2416 334 2066 50 
Q 1900 -81 1453 -78 
Q 722 -72 456 397 
Q 184 884 353 1747 
Q 534 2675 1009 3097 
Q 1544 3569 2166 3578 
z
" transform="scale(0.015625)"/>
       <path id="DejaVuSans-3d" d="M 678 2906 
L 4684 2906 
L 4684 2381 
L 678 2381 
L 678 2906 
z
M 678 1631 
L 4684 1631 
L 4684 1100 
L 678 1100 
L 678 1631 
z
" transform="scale(0.015625)"/>
       <path id="DejaVuSans-29" d="M 513 4856 
L 1013 4856 
Q 1481 4119 1714 3412 
Q 1947 2706 1947 2009 
Q 1947 1309 1714 600 
Q 1481 -109 1013 -844 
L 513 -844 
Q 928 -128 1133 580 
Q 1338 1288 1338 2009 
Q 1338 2731 1133 3434 
Q 928 4138 513 4856 
z
" transform="scale(0.015625)"/>
      </defs>
      <use xlink:href="#DejaVuSans-57" transform="translate(0 0.015625)"/>
      <use xlink:href="#DejaVuSans-69" transform="translate(98.876953 0.015625)"/>
      <use xlink:href="#DejaVuSans-74" transform="translate(126.660156 0.015625)"/>
      <use xlink:href="#DejaVuSans-68" transform="translate(165.869141 0.015625)"/>
      <use xlink:href="#DejaVuSans-6f" transform="translate(229.248047 0.015625)"/>
      <use xlink:href="#DejaVuSans-75" transform="translate(290.429688 0.015625)"/>
      <use xlink:href="#DejaVuSans-74" transform="translate(353.808594 0.015625)"/>
      <use xlink:href="#DejaVuSans-20" transform="translate(393.017578 0.015625)"/>
      <use xlink:href="#DejaVuSans-41" transform="translate(424.804688 0.015625)"/>
      <use xlink:href="#DejaVuSans-43" transform="translate(493.212891 0.015625)"/>
      <use xlink:href="#DejaVuSans-2d" transform="translate(563.037109 0.015625)"/>
      <use xlink:href="#DejaVuSans-61" transform="translate(599.121094 0.015625)"/>
      <use xlink:href="#DejaVuSans-77" transform="translate(660.400391 0.015625)"/>
      <use xlink:href="#DejaVuSans-61" transform="translate(742.1875 0.015625)"/>
      <use xlink:href="#DejaVuSans-72" transform="translate(803.466797 0.015625)"/>
      <use xlink:href="#DejaVuSans-65" transform="translate(844.580078 0.015625)"/>
      <use xlink:href="#DejaVuSans-6e" transform="translate(906.103516 0.015625)"/>
      <use xlink:href="#DejaVuSans-65" transform="translate(969.482422 0.015625)"/>
      <use xlink:href="#DejaVuSans-73" transform="translate(1031.005859 0.015625)"/>
      <use xlink:href="#DejaVuSans-73" transform="translate(1083.105469 0.015625)"/>
      <use xlink:href="#DejaVuSans-20" transform="translate(1135.205078 0.015625)"/>
      <use xlink:href="#DejaVuSans-28" transform="translate(1166.992188 0.015625)"/>
      <use xlink:href="#DejaVuSans-Oblique-3b1" transform="translate(1206.005859 0.015625)"/>
      <use xlink:href="#DejaVuSans-3d" transform="translate(1291.40625 0.015625)"/>
      <use xlink:href="#DejaVuSans-30" transform="translate(1394.677734 0.015625)"/>
      <use xlink:href="#DejaVuSans-29" transform="translate(1458.300781 0.015625)"/>
     </g>
    </g>
    <g id="line2d_13">
     <path d="M 160.1625 68.308438 
L 182.1625 68.308438 
L 204.1625 68.308438 
" style="fill: none; stroke: #00b0f0; stroke-width: 2; stroke-linecap: round"/>
    </g>
    <g id="text_13">
     <!-- With AC-awareness($\alpha=1$) -->
     <g style="fill: #262626" transform="translate(221.7625 76.008438) scale(0.22 -0.22)">
      <use xlink:href="#DejaVuSans-57" transform="translate(0 0.015625)"/>
      <use xlink:href="#DejaVuSans-69" transform="translate(98.876953 0.015625)"/>
      <use xlink:href="#DejaVuSans-74" transform="translate(126.660156 0.015625)"/>
      <use xlink:href="#DejaVuSans-68" transform="translate(165.869141 0.015625)"/>
      <use xlink:href="#DejaVuSans-20" transform="translate(229.248047 0.015625)"/>
      <use xlink:href="#DejaVuSans-41" transform="translate(261.035156 0.015625)"/>
      <use xlink:href="#DejaVuSans-43" transform="translate(329.443359 0.015625)"/>
      <use xlink:href="#DejaVuSans-2d" transform="translate(399.267578 0.015625)"/>
      <use xlink:href="#DejaVuSans-61" transform="translate(435.351562 0.015625)"/>
      <use xlink:href="#DejaVuSans-77" transform="translate(496.630859 0.015625)"/>
      <use xlink:href="#DejaVuSans-61" transform="translate(578.417969 0.015625)"/>
      <use xlink:href="#DejaVuSans-72" transform="translate(639.697266 0.015625)"/>
      <use xlink:href="#DejaVuSans-65" transform="translate(680.810547 0.015625)"/>
      <use xlink:href="#DejaVuSans-6e" transform="translate(742.333984 0.015625)"/>
      <use xlink:href="#DejaVuSans-65" transform="translate(805.712891 0.015625)"/>
      <use xlink:href="#DejaVuSans-73" transform="translate(867.236328 0.015625)"/>
      <use xlink:href="#DejaVuSans-73" transform="translate(919.335938 0.015625)"/>
      <use xlink:href="#DejaVuSans-28" transform="translate(971.435547 0.015625)"/>
      <use xlink:href="#DejaVuSans-Oblique-3b1" transform="translate(1010.449219 0.015625)"/>
      <use xlink:href="#DejaVuSans-3d" transform="translate(1095.849609 0.015625)"/>
      <use xlink:href="#DejaVuSans-31" transform="translate(1199.121094 0.015625)"/>
      <use xlink:href="#DejaVuSans-29" transform="translate(1262.744141 0.015625)"/>
     </g>
    </g>
   </g>
  </g>
 </g>
 <defs>
  <clipPath id="p26c48f2d34">
   <rect x="68.9225" y="7.2" width="502.2" height="332.64"/>
  </clipPath>
 </defs>
</svg>
